<?xml version="1.0" encoding="utf-8"?>
<!-- Generator: Adobe Illustrator 16.0.0, SVG Export Plug-In . SVG Version: 6.00 Build 0)  -->
<!DOCTYPE svg PUBLIC "-//W3C//DTD SVG 1.1//EN" "http://www.w3.org/Graphics/SVG/1.1/DTD/svg11.dtd">
<svg version="1.1" id="Calque_1" xmlns="http://www.w3.org/2000/svg" xmlns:xlink="http://www.w3.org/1999/xlink" x="0px" y="0px"
	 width="269.526px" height="435.473px" viewBox="0 0 269.526 435.473" enable-background="new 0 0 269.526 435.473"
	 xml:space="preserve">
<g>
	<path fill="#E05A28" d="M1.195,2.222c0,0,242.486,1.111,261.598-2.222c0,0-2.39,147.75-1.194,166.635
		c1.194,18.885,7.167,239.954,7.167,239.954l0.76,28.883L0,435.473c0,0,0.537-137.411,1.134-258.544
		C1.529,96.796,2.622,23.895,1.195,2.222"/>
</g>
<path fill="#FFFFFF" d="M26.001,141.858c0,0.154,0,0.308,0.154,0.616v0.308c1.232,0.77,2.926,1.078,4.312,1.078
	c1.078,0,1.848,0,2.31-0.154h6.006c2.772,0,8.778,0,9.856,0.154h1.078c0.616,0,1.386,0,2.002,0.154h1.54
	c1.232,0,2.31-0.154,3.08-0.616c0.462,0,0.616-1.848,0.616-5.39c0-3.388-0.308-5.082-1.078-5.236h-6.314
	c-0.154,0-0.77,0-1.694-0.154h-2.156c-0.462,0.154-5.698,0.154-7.392,0.154s-1.54,0-2.31,0.154v-13.552
	c0.154-1.078,0.154-1.848,0.154-2.464v-9.702c0-1.386,0.154-4.158,0.308-5.236v-0.462v-1.386v-0.308
	c0.154-0.308,0.308-0.462,0.616-0.462s0.77,0.154,1.386,0.154h7.854c1.54,0,2.772-0.154,3.542-0.462c0.462,0,0.77-0.77,0.924-2.31
	v-0.77c0-1.848-0.154-2.31-0.154-4.004v-0.77c-0.154-1.386-0.462-2.156-0.77-2.31c-0.77-0.462-1.694-0.616-2.926-0.616h-2.002
	c-0.77,0.154-5.698,0.154-6.16,0.154h-2.156v-2.926v-4.466c0-1.386,0-3.08-0.154-5.236l0.154-27.258
	c0.154-1.078,0.154-1.848,0.154-2.31c0-1.078,0.154-1.848,0.154-2.464c0-0.308,0-0.77-0.154-1.078v-0.308v-1.232V40.68
	c0.154-0.154,0.308-0.308,0.308-0.616v-0.308c0.154,0.154,4.774,0.308,8.316,0.462c1.232-0.154,2.156-0.308,2.926-0.308h3.08
	c0.308,0,0.77,0,1.232-0.154h0.924l0.924-0.308l0.154-0.154c0.308,0,0.462-2.31,0.462-4.312v-1.078c0-0.154,0-0.462-0.154-0.924
	c-0.154-0.462-0.154-0.77-0.154-1.078v-0.308l-0.308-0.77v-0.308l-0.154-0.154c-0.154-0.154-1.078-0.462-2.618-0.616
	c-0.462,0-1.386-0.154-2.772-0.308c-1.386,0-2.464,0-3.08,0.154c-1.694-0.154-8.316-0.154-11.55-0.154
	c-5.39,0.154-8.162,0.462-8.162,0.616l0.154,0.308v0.77v6.006c0,0.77,0,1.54,0.154,2.002c-0.154,1.078-0.154,2.926-0.154,5.698
	V56.08c0,5.852-0.154,10.318-0.308,13.244v7.7c0,9.394-0.154,16.478-0.154,26.026c0,1.54,0,2.464-0.154,2.926
	c0.154,0.616,0.154,1.54,0.154,2.772c0,1.694,0,2.772-0.154,3.388c0.154,1.386,0.154,3.234,0.154,5.852
	c0,9.702,0,15.246,0.154,18.172c0.154,0.77,0.154,1.386,0.154,1.848c0,0.924-0.154,1.386-0.154,1.54V141.858z"/>
<path fill="#FFFFFF" d="M100.229,63.318v2.156c0,0.616,0,1.848,0.154,3.542c0.154,1.694,0.154,3.08,0.154,3.85v3.696
	c0,0.462,0,1.078,0.154,1.848c0.154,0.77,0.154,1.386,0.154,1.848c-0.154,0.616-0.154,1.54-0.154,2.618v4.928
	c0,0.616,0,1.694,0.154,3.234v3.542C101,98.276,101,103.204,101,109.364c0,6.314-0.154,10.01-0.462,10.934
	c0.154,1.078,0.154,2.464,0.154,3.85c0,0.77,0,1.386-0.154,1.694c-0.154,0-0.308-0.462-0.616-1.54l-0.77-3.234
	c-0.308-1.232-0.462-2.002-0.616-2.31l-4.158-16.324l-1.232-5.698l-0.462-1.54c-0.154-0.616-0.308-1.386-0.462-2.31
	c-0.154-0.77-0.154-1.54-0.308-2.002l-1.232-6.006c-2.002-10.01-5.082-26.334-9.086-49.126c-1.078-3.85-2.002-6.314-2.772-7.7
	c-0.308-1.078-2.156-1.694-5.544-1.694c-1.078,0-2.31,0.154-3.542,0.308h-0.77h-1.386l-0.77,0.154c0,1.078,0,1.694-0.154,2.156
	l-0.308,1.232v3.08c0,3.85,0,8.778-0.154,14.784v13.706c-0.154,1.386-0.154,3.542-0.154,6.314c0,2.618,0,4.62,0.154,5.852
	c-0.154,3.85-0.308,6.622-0.308,8.162v12.012l-0.154,8.778v0.462c0,5.698-0.154,10.164-0.308,13.398
	c0.154,0.462,0.154,0.924,0.154,1.54v1.386c0,0.77,0,1.54,0.154,2.002c-0.154,0.924-0.154,2.31-0.154,4.158
	c-0.154,2.464-0.154,5.236-0.154,8.162v1.232c0.154,0.462,0.154,0.924,0.154,1.078c0.154,0.154,0.154,0.462,0.154,0.924
	c0,0.308,0,0.616-0.154,0.77v0.616c0,0.308,0.154,0.616,0.308,1.078v0.154c0,0.154,0.77,0.462,2.31,0.924h1.54
	c0.616,0.154,1.078,0.154,1.386,0.154c0.77,0,1.694-0.154,2.926-0.462c1.078-0.154,1.694-0.462,1.694-0.77v-7.392
	c-0.154-0.462-0.154-1.232-0.154-2.31s0-1.848,0.154-2.31v-5.544c-0.154-1.386-0.308-3.388-0.308-6.314
	c0-2.772,0-7.238-0.154-13.552V88.266c0-2.926,0-5.082,0.154-6.622c-0.154-1.078-0.154-2.618-0.154-4.62v-7.546
	c0-4.774,0.154-8.778,0.308-11.858l0.308-6.16l0.308,5.236l2.618,15.4c0.154,0.462,0.308,1.54,0.616,2.926
	c0.154,1.54,0.308,2.772,0.462,3.85c0.924,4.466,1.386,6.776,1.386,7.084l0.616,3.388c0.462,1.694,0.77,2.772,1.232,3.234v0.462
	c-0.154,0.308-0.154,0.462-0.154,0.616c0,1.694,0.308,2.926,0.77,3.388c0.924,5.544,1.694,9.24,2.31,11.088
	c0.77,2.618,2.31,8.316,4.466,16.94c2.002,8.778,3.696,14.014,4.774,15.862c0.77,1.232,3.08,1.848,6.93,1.848
	c1.078,0,2.002-0.154,2.618-0.308h0.616h1.848c0.77,0.154,1.232,0.154,1.54,0.154c0.616,0,0.924-0.154,0.924-0.308l0.616-2.464
	v-0.616c0-2.772,0-6.776-0.154-12.166c-0.154-5.39-0.154-9.548-0.154-12.782c0-0.924,0-2.464,0.154-4.466v-4.774V99.97
	c0-0.616,0-1.54,0.154-2.772v-2.926V83.03c0-8.316,0-14.784-0.154-19.404v-4.928c-0.154-2.002-0.154-3.542-0.154-4.312v-4.004
	c-0.154-1.694-0.154-2.772-0.154-3.388c0-1.232,0-2.926-0.154-5.236c-0.154-2.156-0.154-3.85-0.154-5.236
	c0-0.462,0-1.078-0.154-1.694c0-1.078,0-2.464,0.154-4.004V27.59c0-0.154-0.154-0.154-0.462-0.308l-0.616-0.308
	c-0.154-0.154-0.924-0.462-2.31-0.77c-0.616,0.154-1.386,0.154-2.464,0.154c-1.078,0.154-1.848,0.154-2.156,0.154h-0.308
	c-1.078,0-1.848,0.308-2.002,0.924c0,2.464,0,5.082,0.154,8.008c0,1.694,0.154,4.158,0.308,7.7c0.154,3.542,0.154,6.314,0.154,8.008
	c0,1.386,0,3.388,0.154,6.16C100.229,60.084,100.229,62.086,100.229,63.318z"/>
<path fill="#FFFFFF" d="M117.631,108.132c-1.078,0.154-1.694,0.924-1.694,2.31c0,2.772-0.154,5.544-0.154,8.162v2.002v2.156
	c0.154,8.778,2.926,15.092,8.008,18.788c3.234,1.694,6.622,2.31,9.548,2.31c2.618,0,4.773-0.462,6.468-1.54l3.542-2.31l0.771-0.77
	c0.462-0.308,0.77-0.616,0.924-0.77c0.77-0.462,1.54-1.694,2.31-3.388c0.771-1.694,1.078-3.388,1.078-4.928
	c0.154-1.078,0.462-2.618,0.616-4.62c0.308-4.004,0.462-13.09,0.462-27.104c0-0.77,0-4.004-0.154-5.39v-3.388
	c0.154-1.078,0.154-2.464,0.154-4.466s0-3.388-0.154-4.158c0-3.696,0-6.314-0.153-8.008v-8.162
	c-0.154-1.694-0.154-4.312-0.154-7.546c-0.154-1.54-0.154-3.85-0.154-6.776v-2.772c0-1.386,0-2.31-0.153-3.08V42.22
	c0-0.308,0-0.77-0.154-1.232V39.91v-2.926c0-0.308,0-0.77-0.154-1.232V34.52v-2.464c-0.154-0.308-0.154-0.77-0.154-1.386
	c0-0.77-0.153-1.232-0.308-1.54c0.154,0,0.154,0,0.154-0.154c0-0.77-0.924-1.078-3.851-1.078c-0.462,0-1.078,0-2.002-0.154
	c-0.924-0.154-1.54-0.308-2.002-0.308c-0.77,0-1.078,0.308-1.231,0.77c0,1.386,0,2.772,0.153,4.312v15.708v3.542
	c0.154,1.54,0.154,2.772,0.154,3.542c0,2.926,0.154,5.082,0.308,6.622c-0.153,1.386-0.153,3.696-0.153,6.776
	c0.153,0.77,0.153,2.002,0.153,3.542c0.154,1.54,0.154,2.772,0.154,3.542v5.236v2.464c0.154,1.232,0.154,2.156,0.309,2.926v0.924
	v1.694c0.153,0.77,0.153,1.54,0.153,2.002c-0.153,1.078-0.153,4.62-0.153,6.622c0.153,2.772,0.153,6.468,0.153,11.242
	c0,3.234,0,5.698-0.153,7.084c0,2.002-0.154,3.85-0.309,5.698v0.77c0,2.31,0,4.158-0.154,5.39c-0.153,1.078-0.462,2.31-1.077,3.542
	c-0.771,1.848-2.465,2.926-4.312,3.08h-0.462c-2.002,0-4.928-1.078-6.16-3.542c-1.078-2.002-1.848-5.39-2.156-9.856
	c0-0.924,0-1.848-0.154-2.926c-0.154-1.078-0.154-2.002-0.308-2.926v-1.232c0-1.848,0.154-3.388,0.154-4.774v-0.77
	c0-0.462-0.462-0.77-1.54-0.77c-0.462,0-1.232,0.154-2.618,0.308c-1.232,0.154-2.156,0.154-2.618,0.154H117.631z"/>
<path fill="#FFFFFF" d="M198.328,94.734v-6.16V83.03v-4.62c-0.154-1.078-0.154-2.618-0.154-4.466c0-1.694,0-2.926-0.154-3.696
	c0-2.618-0.153-4.312-0.308-5.39c0-4.158-0.154-6.776-0.462-8.008c-0.154-0.462-0.154-1.232-0.309-2.002
	c-0.153-0.77-0.153-1.232-0.153-1.386c-0.462-3.542-1.078-6.314-1.849-8.624c-1.231-4.158-2.464-7.392-3.85-9.394
	c-1.386-2.156-3.08-4.312-5.39-6.468c-1.078-1.078-2.465-2.002-3.851-2.618c-1.386-0.77-2.618-1.232-3.696-1.232
	c-0.615-0.154-1.386-0.154-2.31-0.154c-0.77,0-1.232,0-1.54,0.154c-5.082,0.77-8.778,4.004-11.396,9.548
	c-1.849,4.466-2.927,9.548-3.234,15.4c-0.154,1.078-0.154,3.234-0.154,6.314c0,0.77,0,2.002-0.153,3.85
	c-0.154,1.848-0.154,3.388-0.154,4.466v5.236c-0.154,2.464-0.154,4.466-0.154,5.852v9.548v2.156
	c-0.154,0.924-0.154,1.694-0.154,2.156s0,1.232,0.154,2.31v2.002v5.39v2.31c0,3.234,0,5.698,0.154,7.238
	c0.308,4.774,0.462,7.238,0.462,7.392c0.154,1.078,0.308,2.31,0.462,3.85c0.154,1.386,0.308,2.31,0.308,2.618
	c0,0.77,0.154,1.694,0.309,2.926s0.308,2.156,0.308,2.772c0.154,0.462,0.462,1.078,0.924,2.156c0.309,1.078,0.616,1.848,0.771,2.31
	c0.462,1.232,0.924,2.464,1.694,3.85c1.693,2.31,3.388,4.004,5.39,5.082c0.462,0.154,1.078,0.462,1.848,0.77
	c0.771,0.308,1.232,0.616,1.694,0.77c1.386,0.462,2.771,0.924,4.158,1.078h1.54h3.388h0.77c1.078,0,2.465-0.154,3.851-0.616
	c1.231-0.462,2.618-1.078,4.312-2.002c1.232-0.77,2.311-1.694,3.08-2.926c0.771-1.232,1.54-2.926,2.002-5.082
	c0.462-2.31,0.924-4.158,1.232-5.544c0.308-1.386,0.462-3.85,0.616-7.084c0.153-3.388,0.153-5.544,0.153-6.622v-7.084v-3.08
	c-0.153-1.386-0.153-2.464-0.153-3.234V94.734z M170.607,42.836c0.462-1.694,1.232-3.08,2.618-4.466
	c0.309-0.77,1.386-1.386,3.08-2.002c2.002,0.462,3.234,0.924,4.004,1.694c0.924,0.462,1.386,0.924,1.54,1.386
	c0.462,0.462,0.924,1.078,1.232,1.694c0.153,0.154,0.616,0.924,1.386,2.156l1.386,2.156c0.616,1.386,1.078,2.926,1.54,4.774
	c0.462,1.694,0.771,3.388,0.924,4.774c0.154,1.386,0.309,3.234,0.462,5.852c0.154,2.464,0.154,4.158,0.154,5.236v6.16v5.39v2.002
	c0,0.77,0,1.386-0.154,1.848c0,0.462,0,1.386,0.154,2.618v2.772c0,2.618,0,6.776,0.154,12.628s0.154,10.164,0.154,13.09v1.232
	c-0.154,1.694-0.309,4.158-0.309,7.084c0,2.926-0.154,5.082-0.616,6.622c-0.153,0.77-0.462,1.54-0.77,2.156
	c-0.462,0.462-0.771,0.924-0.924,1.232c-0.309,0.154-0.771,0.462-1.387,0.924c-0.77,0.462-1.231,0.771-1.386,0.924
	c-1.078,0.77-2.002,1.078-3.08,1.078c-1.693,0-2.926-0.154-3.85-0.462c-1.386-0.462-2.464-1.232-3.234-2.156
	c-0.462-0.616-1.231-1.694-2.002-3.388c-0.462-0.924-0.924-2.464-1.54-4.466c-0.616-2.31-1.078-12.012-1.231-29.414V89.19v-2.31
	v-7.392c0-1.386,0-3.542,0.153-6.314v-6.16c0.154-1.386,0.154-3.234,0.154-5.698c0.154-1.386,0.154-3.234,0.154-5.39
	c0.153-1.232,0.308-2.156,0.308-2.618v-0.77c-0.154-0.462-0.154-0.77-0.154-0.924c0.154-0.77,0.154-1.54,0.309-2.31
	c0.154-0.924,0.154-1.54,0.154-1.694C170.145,46.378,170.299,44.838,170.607,42.836z"/>
<path fill="#FFFFFF" d="M217.116,86.264c0.462,1.386,0.615,3.08,0.615,5.39c0,1.694,0,4.466-0.153,8.316
	c-0.154,3.85-0.154,6.622-0.154,8.316v2.31c0.154,3.234,0.154,8.47,0.308,16.016c0.154,7.392,0.154,11.704,0.309,12.936v2.156v0.462
	c0.153,0.308,0.153,0.616,0.308,0.924v0.77c0,0.154,0,0.308,0.154,0.308c0,0.154,0.154,0.154,0.616,0.154s1.077,0,1.848,0.154
	c0.77,0,1.386,0,1.848,0.154c0.462,0,2.002,0,2.772-0.154c0.77-0.154,1.231-0.154,1.54-0.154c0.153-0.154,0.308-0.308,0.308-0.462
	v-0.154v-0.616v-0.308v-0.462c0-0.308,0-0.616,0.154-0.924v-0.308c-0.154-0.154-0.154-0.154-0.154-0.308
	c0-0.154,0-0.308,0.154-0.616v-0.77v-0.154c-0.154-0.462-0.154-0.77-0.309-1.078c0.154-0.308,0.154-0.77,0.154-1.386v-0.616v-2.002
	v-0.924c0-1.078,0-2.156,0.154-3.696c0.154-1.232-0.154-2.772-0.154-4.312c0-1.386,0.154-2.618,0-4.004v-5.698v-4.312
	c0.154-4.774,0.154-8.316,0.154-10.78c0-3.08-0.154-5.698-0.309-7.854v-3.234c1.232-4.62,4.467-13.706,5.236-17.71
	c0.154-0.616,0.309-1.54,0.771-2.926c0.462-1.386,0.615-2.31,0.77-2.772c2.311-9.086,4.004-17.71,4.774-25.564
	c0.153-0.462,0.153-1.078,0.308-2.002c0.154-0.77,0.154-1.386,0.308-1.848c0.154-2.002,0.309-3.234,0.309-3.542v-0.154
	c0-0.462,0-0.924,0.154-1.54c0.153-0.616,0.153-1.078,0.153-1.386v-0.462c0-0.308-0.77-0.616-2.155-1.078h-3.389h-1.231
	c-1.694,0-2.618,0.308-2.618,1.078c-0.309,1.232-0.462,2.002-0.462,2.464s0,0.924,0.153,1.078c-0.153,0.462-0.153,1.386-0.153,2.464
	l-0.154,1.694c-0.154,1.232-0.308,2.156-0.462,2.926v0.154c0,0.616-0.154,1.54-0.308,2.926c-1.694,10.626-3.389,19.558-4.929,26.488
	c-0.153,0.616-0.308,1.078-0.462,1.54l-0.462,0.924c-0.154,0.154-0.154,0.154-0.308,0.154c-0.462,0,0.153-0.616-0.616-1.848
	c-0.154-0.462-0.154-1.078-0.462-2.002c-0.309-0.77-0.616-1.694-0.771-2.464l-0.77-3.542c-0.462-1.54-1.078-2.772-1.386-3.85
	c-0.462-1.54-0.771-3.388-1.232-5.698c-0.462-2.156-1.54-4.62-2.31-7.392c-1.078-5.082-2.465-10.934-3.851-16.478
	c0-0.154-0.924,0.308-2.926-0.154h-1.54c-0.924,0-2.156,0.154-3.542,0.308c-1.232,0.462-1.848,0.616-1.848,0.77v0.154
	c0.153,0.462,0.308,1.54,0.77,3.08s0.771,2.772,0.924,3.696l1.849,6.93c2.617,10.318,5.082,19.866,7.699,28.644
	c0.463,2.156,1.078,4.004,1.54,5.544c0.462,2.464,0.925,4.004,1.232,4.62c0.154,0.616,0.462,1.232,0.77,2.002
	C216.961,85.34,217.116,85.956,217.116,86.264z"/>
<path fill="#FFFFFF" d="M33.186,153.402h-3.162c-2.55,0-3.57,0.306-3.57,0.918v12.546v2.652c-0.102,1.122-0.102,2.754-0.102,4.998
	v3.774v8.67v6.936v2.448v4.59v4.182v1.938v1.836c0,1.734,0,3.06-0.102,3.774v2.55c0.102,1.02,0.102,1.734,0.102,2.142v6.018
	c0,2.346,0,3.876,0.408,4.386c0.102,0.102,0.612,0.306,1.53,0.612c0.612-0.102,1.53-0.102,2.448-0.102h0.714
	c0.51,0,0.918-0.102,1.122-0.408v-0.102c0-0.204,0-0.408-0.102-0.51c0.102-0.306,0.204-0.918,0.204-1.836
	c0.102-0.51-0.102-1.326-0.102-2.652c0-0.918,0-1.734,0.102-2.244v-2.652v-0.816c0-0.918,0-1.734,0.102-2.244v-0.612
	c0-0.306,0-0.714,0.102-1.224v-1.122c-0.102-0.714-0.102-1.938-0.102-3.468v-6.936v-3.774c0-0.51,0.102-1.836,0.204-3.978
	c-0.102-0.714-0.204-1.938-0.204-3.876v-0.714c0-0.306,0-0.816-0.102-1.632v-1.53v-3.774c0.102-1.734,0.102-2.958,0.102-3.774
	c0-1.53,0.102-6.018,0.204-13.464C33.084,157.482,33.186,153.606,33.186,153.402z"/>
<path fill="#FFFFFF" d="M38.082,152.28c-0.204,3.366-0.306,5.508-0.306,6.222v0.408c0.408,0.102,0.816,0.204,1.326,0.204
	c0.306,0,0.816-0.102,1.53-0.204c0.714-0.102,1.224-0.204,1.53-0.204h0.306c0.306,0,0.714,0,1.326,0.102
	c0.714,0.102,1.122,0.204,1.224,0.204c0.204,0,0.51,0,0.918-0.102h1.02c0.306,0,0.816,0.102,1.632,0.204v0.306
	c0,0.102,0,0.204-0.102,0.306v1.02c0.102,0.51,0.102,0.918,0.102,1.224v6.12c0,0.306,0,0.408,0.102,0.408v4.794v2.04
	c0.102,0.918,0.102,1.632,0.102,2.142l0.306,15.81c0.102,7.14,0.204,12.138,0.306,15.096c0,3.774,0,5.916,0.102,6.63v1.836
	c0,0.408,0,0.612-0.102,0.714v0.612v1.02c0.102,0.306,0.102,0.612,0.102,0.714v0.51c0,0.612,0.102,1.326,0.204,2.142
	c0,0.918,0,1.53,0.102,1.836c0,2.142,0.102,3.672,0.306,4.59c0,0.306,0.306,0.51,1.02,0.714c0.714,0.102,1.428,0.204,2.244,0.204
	c1.938,0,2.958-0.408,2.958-1.326v-0.102c0-7.14-0.102-17.034-0.408-29.784v-4.896c-0.102-1.734-0.204-3.876-0.204-6.324v-2.856
	v-2.856c-0.102-1.938-0.204-2.856-0.204-3.978l-0.408-19.074h7.854c0.102,0,0.408,0,0.816,0.102h0.918
	c0.51,0,0.714-0.102,0.816-0.204h0.204c0.51,0,0.816-0.204,0.816-0.51c-0.102-0.204-0.102-0.408-0.102-0.714v-0.714
	c0.102-0.306,0.102-0.612,0.102-0.816c0-0.306,0-0.612-0.102-0.816v-0.51c0-1.02-0.102-1.53-0.306-1.632
	c-0.714-0.306-1.938-0.51-3.672-0.51h-4.59c-1.836-0.102-3.366-0.102-4.284-0.102h-0.918c-0.408-0.102-0.714-0.102-0.918-0.102
	c-0.918-0.102-2.346-0.102-4.182-0.102c-0.816-0.102-2.04-0.102-3.57-0.102c-0.51,0.102-1.122,0.102-1.836,0.102
	c-0.51,0-0.918,0-1.224-0.102c-0.408,0.102-0.918,0.102-1.53,0.102H39C38.388,152.076,38.082,152.178,38.082,152.28z"/>
<path fill="#FFFFFF" d="M74.802,152.382c-0.102-0.51-1.02-0.204-1.632-0.51c-0.204-0.102,0-0.102-0.102-0.102
	c-0.51,0-0.306,0-0.612,0.102c-0.306,0.102-0.612,0.102-0.918,0.102c-0.306-0.102-0.612-0.102-0.918,0
	c-0.306,0-0.51,0.102-0.612,0.204c-0.306,1.122-0.408,4.488-0.408,10.2v2.04v1.632c0,0.918,0,1.836,0.204,2.244
	c0.204,0.204,0.408,0.306,0.714,0.306c1.326,0,1.734-0.102,3.06-0.102h0.408c0.816,0.204,1.02-0.102,1.02-0.51
	c0-0.306-0.102-0.612-0.102-1.122l0.102-5.712c0-0.408,0.102-0.918,0-1.632v-1.632c0-0.306,0-0.816-0.102-1.428
	c0-0.714,0-1.122-0.102-1.428c0-0.102,0.102-0.51,0-0.816C74.7,153.504,74.904,152.484,74.802,152.382z"/>
<path fill="#FFFFFF" d="M97.344,154.218c-2.04-1.938-4.386-2.856-7.14-2.856c-3.468,0-7.65,1.224-9.282,3.774
	c-1.53,2.55-2.346,5.814-2.346,9.792c0.204,2.142,0.51,3.774,0.918,4.794c0.306,1.122,1.326,3.264,2.958,6.63l1.836,3.774
	c0.51,1.428,1.326,3.06,2.448,4.794c0.204,0.51,0.51,1.122,0.714,1.836l1.122,2.346c0.408,0.918,0.714,1.632,0.918,2.142
	c3.57,7.752,5.814,13.668,6.528,17.646c0.102,0.306,0.102,0.714,0.204,1.326c0.102,0.612,0.204,1.122,0.306,1.428v2.652
	c0,0.51-0.102,1.326-0.204,2.55c-0.306,2.04-0.816,3.57-1.632,4.59c-0.816,1.122-1.734,1.632-2.856,1.632
	c-1.02,0-1.53-0.51-2.652-1.632c-1.02-1.122-1.938-2.652-2.652-4.59c-0.102-0.306-0.306-0.816-0.51-1.428l-0.408-1.224
	c-0.204-1.53-0.204-1.836-0.408-3.366c0-0.204-2.142-0.408-3.876-0.51c-1.326,0-2.04,0.204-2.142,0.714c0,0.102,0,0.306,0.102,0.714
	c0.102,0.306,0.102,0.714,0.102,1.122v0.918c0.102,0.51,0.204,1.02,0.306,1.326c0,0.204,0.204,1.122,0.51,2.652
	c0.102,0.306,0.204,0.816,0.306,1.428c0.204,0.612,0.408,1.122,0.51,1.428c0.918,2.754,2.244,4.896,4.182,6.426
	c1.938,1.632,4.08,2.448,6.324,2.448h0.714c2.754-0.306,6.426-1.02,8.058-3.57c1.53-2.346,2.346-5.508,3.06-10.506v-1.02
	c0.102-0.816,0.102-1.53,0.102-2.142c0-1.53-0.204-2.958-0.51-5.202c-0.306-2.55-1.224-5.406-2.754-8.466l-6.936-13.668
	l-1.734-3.366c-0.204-0.51-0.51-1.224-0.816-2.04c-0.408-0.918-0.714-1.53-0.816-1.836c0-0.102-0.204-0.51-0.612-1.224
	c-0.306-0.714-0.612-1.326-0.714-1.734c-2.142-4.896-3.57-6.732-3.57-10.506c0-3.978,2.448-6.018,3.978-6.12h1.53
	c1.326,0,2.346,0.51,2.856,1.428c0.408,0.612,0.714,1.326,0.918,2.244c0,0.102,0.102,0.51,0.306,1.428
	c0.306,0.918,0.408,1.632,0.51,2.244c0,0.306,0.204,2.04,0.51,4.998c0.102,0.51,0.714,0.714,2.04,0.714
	c1.02,0,2.04-0.102,2.856-0.408c1.02-0.306,1.428-0.612,1.428-1.02c-0.102-0.918-0.204-1.836-0.306-2.856
	c0-0.408-0.102-0.918-0.306-1.632c-0.102-0.714-0.204-1.224-0.204-1.53v-0.306c-0.408-2.142-0.612-3.264-0.714-3.468l-1.224-3.264
	C98.67,155.646,98.058,154.83,97.344,154.218z"/>
<path fill="#FFFFFF" d="M128.046,223.17c-0.306-4.182-0.51-8.568-0.51-13.158l-0.204-12.546l4.182-0.204h3.264h1.53
	c0.102,0,0.204-0.204,0.204-0.51v-0.51c-0.103-0.204-0.103-0.408-0.103-0.51c0.103-0.102,0.103-0.408,0.103-0.816
	c0-0.102-0.103-0.816-0.307-2.04v-0.408c0-0.714-0.102-1.224-0.408-1.53c-0.102,0-0.102,0-0.306,0.102h-0.306h-0.408
	c-0.204-0.102-0.408-0.102-0.51-0.102h-1.938h-0.918c-1.734,0-2.856,0-3.264,0.102c-0.204,0-0.306-0.306-0.306-1.02
	c0-0.306,0-0.918,0.102-2.04v-4.692v-6.834v-4.182l-0.102-13.974h4.182c1.326,0,3.468,0.102,6.324,0.204h2.346h0.102
	c0.307,0,0.612-0.408,0.918-1.326v-1.02c0-1.53-0.102-2.448-0.203-2.754c-0.103-0.918-0.307-1.428-0.408-1.53h-0.612h-0.306h-0.408
	h-0.816c-0.51-0.102-1.224-0.102-2.04-0.102c-1.122,0-1.836,0-2.346,0.102h-0.918h-1.836c-2.754,0-6.018,0.102-9.792,0.306
	l-0.204,0.612c-0.102,0.102-0.102,0.408-0.204,0.714v0.816c-0.102,0.306-0.102,0.816-0.102,1.326c0,0.51,0,1.02,0.102,1.428
	c-0.204,0.612-0.306,1.326-0.306,2.04c0,0.102,0,0.306,0.102,0.612v0.714c0,0.51-0.102,1.836-0.204,3.876v1.326v2.958
	c0,5.814,0,10.098-0.102,12.852c0,0.306,0,0.714-0.102,1.224v1.224v0.51c0,1.326,0,2.346-0.102,2.856
	c0.102,0.816,0.204,1.428,0.204,1.734c0,0.408,0,0.714-0.102,1.02v4.896v5.304c-0.102,0.612-0.102,1.428-0.102,2.55
	s0,2.04,0.102,2.652c0,0.102,0,0.816-0.102,1.938c-0.102,1.224-0.102,2.142-0.204,2.754c0.102,1.02,0.204,2.55,0.204,4.488
	c-0.102,9.69-0.204,14.586-0.204,14.688s0.102,0.102,0.204,0.204c0.204,0.102,0.408,0.102,0.714,0.204l0.918,0.306
	c0.918-0.102,2.142-0.102,3.672-0.102c1.326-0.102,2.04-0.306,2.04-0.612C128.25,227.148,128.148,225.108,128.046,223.17z"/>
<path fill="#FFFFFF" d="M160.686,154.83c-0.408-0.306-1.326-0.816-2.856-1.428c-1.938-0.408-1.836-0.204-3.876-0.51
	c-0.408-0.102-0.918,0-1.53,0h-1.733c-0.714,0-1.326,0-2.04,0.102c-0.306,0.102-1.53-0.306-1.632,0.612
	c-0.307,3.264-0.511,3.672-0.511,13.872v2.448v4.182c0.103,0.306,0.103,0.51,0.103,0.816c0,0.306,0,0.918-0.103,1.632v1.53v0.612
	l0.103,3.06v0.714v7.14c0.102,3.162,0.102,5.406,0.102,6.936v1.02v1.836c0,0.816,0,1.53-0.102,2.244l0.102,0.51v0.102
	c0,0.102,0,0.408-0.102,0.714v0.918v0.102v2.142c0.102,1.02,0.102,1.734,0.204,2.244c-0.103,0.51-0.103,1.122-0.103,1.836v1.326
	c0,1.122,0,2.652-0.102,4.386v4.692v3.774v4.386c0,0.204,0.612,0.408,1.836,0.51c1.326-0.102,2.142-0.204,2.448-0.306
	c1.326-0.102,1.938-0.51,1.938-1.122c0.103,0,0.103-0.408,0.204-1.224c-0.102-0.51-0.102-1.632-0.204-3.264l-0.102-8.976
	c-0.103-1.734-0.103-3.468-0.103-5.406v-0.51v-0.51v-2.244v-0.306c0-0.714,0-1.428,0.103-2.346c0-0.816,0-1.224-0.103-1.326
	c0.103-0.408,0.204-0.714,0.307-0.816c0.102,0,0.102,0,0.204-0.102h0.203c0.204,0,0.408,0.102,0.715,0.204
	c0.306,0.102,0.51,0.204,0.611,0.204c1.429,0.204,2.652,1.326,3.672,3.366c1.021,2.04,1.734,4.182,2.244,6.324
	c0.307,2.244,0.511,4.59,0.511,7.038v1.53c0,1.02,0,2.448-0.103,4.386v4.182v1.122c0,0.306,0.51,0.51,1.632,0.51
	c0.103,0,0.408,0,0.918,0.102c0.511,0.102,0.918,0.204,1.225,0.204h0.611c1.225-0.306,1.836-0.612,1.836-0.816
	c0.103-0.102,0.103-0.408,0.103-0.714c0.102-0.306,0.102-0.612,0.102-0.816v-2.244l-0.204-7.548c0-1.632,0-3.06-0.102-4.284
	c-0.102-1.224-0.102-2.244-0.204-3.162c0-0.918-0.102-1.734-0.306-2.55c-0.204-0.816-0.307-1.428-0.408-1.836
	c0-0.408-0.204-0.918-0.51-1.53l-0.612-1.224c-0.102-0.204-0.306-0.714-0.816-1.428c-0.51-0.714-0.815-1.224-1.02-1.53l-2.142-2.652
	c0.203-0.204,0.611-0.612,1.325-1.224c0.715-0.612,1.225-1.02,1.326-1.224c0.204-0.102,0.51-0.51,0.918-1.02
	c0.51-0.51,0.816-1.02,0.918-1.428c0.204-0.51,0.408-1.02,0.51-1.734c0.204-0.714,0.307-1.53,0.408-2.448
	c0.103-0.51,0.204-1.428,0.307-2.55c0.102-1.224,0.204-2.346,0.306-3.366s0.102-2.04,0.102-2.958v-2.04
	c-0.102-6.324-0.203-8.058-0.306-8.568c-0.51-5.508-1.53-9.282-3.06-11.22c-0.408-0.612-0.816-1.122-1.326-1.632
	C161.604,155.442,160.992,154.932,160.686,154.83z M152.934,175.638c-0.103-2.142-0.103-4.59-0.307-7.446
	c0-2.856-0.102-4.692-0.102-5.406c-0.103-0.306-0.103-0.51-0.103-0.714c0-1.326,0.103-2.346,0.307-2.856
	c0.102-0.306,0.204-0.51,0.51-0.51c1.632,0,3.162,0.204,4.08,0.714c0.102,0.102,0.306,0.408,0.714,0.816
	c0.408,0.408,0.714,0.714,0.816,0.918c0.407,0.408,1.632,4.284,1.733,5.814c0.612,2.55,0.918,5.916,0.918,10.302
	c0,4.08-0.306,6.222-0.918,9.69c-0.611,3.366-1.529,5.508-2.651,6.324c-1.122,0.816-2.448,1.224-3.979,1.224h-0.306
	c-0.103-0.102-0.204-0.102-0.307-0.102c-0.306-0.408-0.51-1.428-0.611-3.162v-0.612v-1.734v-0.612l0.102-6.732
	c0.103-0.918,0.103-0.816,0.103-2.958V175.638z"/>
<path fill="#FFFFFF" d="M199.854,196.854v-4.08v-3.672v-3.06c-0.103-0.714-0.103-1.734-0.103-2.958c0-1.122,0-1.938-0.102-2.448
	c0-1.734-0.103-2.856-0.204-3.57c0-2.754-0.102-4.488-0.306-5.304c-0.103-0.306-0.103-0.816-0.204-1.326
	c-0.103-0.51-0.103-0.816-0.103-0.918c-0.306-2.346-0.714-4.182-1.224-5.712c-0.816-2.754-1.632-4.896-2.55-6.222
	c-0.918-1.428-2.04-2.856-3.57-4.284c-0.714-0.714-1.632-1.326-2.55-1.734c-0.918-0.51-1.734-0.816-2.448-0.816
	c-0.408-0.102-0.918-0.102-1.53-0.102c-0.51,0-0.815,0-1.02,0.102c-3.366,0.51-5.814,2.652-7.548,6.324
	c-1.225,2.958-1.938,6.324-2.143,10.2c-0.102,0.714-0.102,2.142-0.102,4.182c0,0.51,0,1.326-0.103,2.55
	c-0.102,1.224-0.102,2.244-0.102,2.958v3.468c-0.102,1.632-0.102,2.958-0.102,3.876v6.324v1.428
	c-0.103,0.612-0.103,1.122-0.103,1.428c0,0.306,0,0.816,0.103,1.53v1.326v3.57v1.53c0,2.142,0,3.774,0.102,4.794
	c0.204,3.162,0.306,4.794,0.306,4.896c0.103,0.714,0.204,1.53,0.307,2.55c0.102,0.918,0.204,1.53,0.204,1.734
	c0,0.51,0.102,1.122,0.203,1.938c0.103,0.816,0.204,1.428,0.204,1.836c0.103,0.306,0.307,0.714,0.612,1.428
	c0.204,0.714,0.408,1.224,0.51,1.53c0.307,0.816,0.612,1.632,1.122,2.55c1.122,1.53,2.244,2.652,3.57,3.366
	c0.306,0.102,0.714,0.306,1.224,0.51c0.511,0.204,0.816,0.408,1.122,0.51c0.918,0.306,1.836,0.612,2.754,0.714h1.021h2.244h0.51
	c0.714,0,1.632-0.102,2.55-0.408c0.816-0.306,1.734-0.714,2.856-1.326c0.815-0.51,1.529-1.122,2.04-1.938
	c0.51-0.816,1.02-1.938,1.325-3.366c0.307-1.53,0.612-2.754,0.816-3.672s0.306-2.55,0.408-4.692
	c0.102-2.244,0.102-3.672,0.102-4.386v-4.692v-2.04c-0.102-0.918-0.102-1.632-0.102-2.142V196.854z M181.494,162.48
	c0.306-1.122,0.816-2.04,1.734-2.958c0.204-0.51,0.918-0.918,2.04-1.326c1.326,0.306,2.142,0.612,2.651,1.122
	c0.612,0.306,0.918,0.612,1.021,0.918c0.306,0.306,0.612,0.714,0.815,1.122c0.103,0.102,0.408,0.612,0.918,1.428l0.918,1.428
	c0.408,0.918,0.715,1.938,1.021,3.162c0.306,1.122,0.51,2.244,0.612,3.162c0.102,0.918,0.204,2.142,0.306,3.876
	c0.102,1.632,0.102,2.754,0.102,3.468v4.08v3.57v1.326c0,0.51,0,0.918-0.102,1.224c0,0.306,0,0.918,0.102,1.734v1.836
	c0,1.734,0,4.488,0.103,8.364c0.102,3.876,0.102,6.732,0.102,8.67v0.816c-0.102,1.122-0.204,2.754-0.204,4.692
	s-0.102,3.366-0.407,4.386c-0.103,0.51-0.307,1.02-0.511,1.428c-0.306,0.306-0.51,0.612-0.611,0.816
	c-0.204,0.102-0.511,0.306-0.918,0.612c-0.511,0.306-0.816,0.51-0.918,0.612c-0.714,0.51-1.326,0.714-2.04,0.714
	c-1.122,0-1.938-0.102-2.551-0.306c-0.918-0.306-1.632-0.816-2.142-1.428c-0.306-0.408-0.815-1.122-1.326-2.244
	c-0.306-0.612-0.611-1.632-1.02-2.958c-0.408-1.53-0.714-7.956-0.816-19.482v-3.162v-1.53v-4.896c0-0.918,0-2.346,0.103-4.182v-4.08
	c0.102-0.918,0.102-2.142,0.102-3.774c0.103-0.918,0.103-2.142,0.103-3.57c0.102-0.816,0.203-1.428,0.203-1.734v-0.51
	c-0.102-0.306-0.102-0.51-0.102-0.612c0.102-0.51,0.102-1.02,0.204-1.53c0.102-0.612,0.102-1.02,0.102-1.122
	C181.188,164.826,181.29,163.806,181.494,162.48z"/>
<path fill="#FFFFFF" d="M236.37,152.892c-0.102-0.102-0.204-0.306-0.408-0.408c-0.102-0.102-0.306-0.306-0.611-0.408
	c-1.429-0.306-1.429-0.408-3.162-0.408c-0.307-0.102-0.714-0.102-1.225-0.102c-0.306,0-0.51,0.102-0.714,0.204
	c-0.408,0.306-0.918,1.836-1.632,4.794c-0.612,2.856-1.428,6.12-2.346,11.424c-0.918,5.202-1.428,8.058-1.53,8.568
	c-0.102,0.714-0.306,1.53-0.408,2.55c-0.102,1.02-0.204,1.632-0.306,1.836c-0.306,0.816-0.612,1.938-0.918,3.264l-0.816,3.162
	c-0.204,0.816-0.407,1.224-0.51,1.326c-0.204,0-0.408-0.408-0.612-1.224c-0.203-0.816-0.51-2.142-0.918-3.978l-1.02-4.59
	l-0.918-3.876c-0.103-0.51-0.204-1.224-0.51-2.142c-0.307-0.918-0.408-1.53-0.511-1.836c-0.611-2.754-0.918-4.284-1.02-4.59
	l-1.021-4.182c-0.102-0.408-0.51-1.734-1.224-3.876c-0.102-0.51-0.306-1.122-0.51-1.836l-0.408-1.632l-1.122-3.366
	c-0.102-0.102-0.408-0.204-0.714-0.204c-0.103,0-0.306,0-0.612,0.102h-0.611c-0.511-0.102-0.918-0.204-1.021-0.204
	c-0.306,0-0.612,0.102-1.02,0.204h-0.408c-0.612,0-1.122,0.204-1.428,0.51c0,0.102,0,0.204-0.103,0.306v0.408
	c0.103,0.102,0.103,0.204,0.103,0.306c0,0.306,0,0.816-0.103,1.632v1.836c0,0.714,0,1.326,0.103,1.938l0.306,10.608v3.264
	c0.102,0.918,0.102,2.142,0.102,3.774c0.103,0.408,0.204,1.836,0.307,4.284v1.428v3.366l0.204,5.202l-0.204,21.012l0.102,3.978
	c0.103,7.752,0.204,11.832,0.204,12.138c0.102,0.204,0.714,0.408,1.836,0.51c1.428,0,2.346,0,2.856-0.102
	c1.122-0.408,1.632-0.714,1.733-1.02v-0.102l-0.102-0.204v-0.408c0-0.204,0-0.408,0.102-0.51c0-0.102,0-0.408-0.102-0.918v-1.326
	v-2.55l-0.204-6.426c-0.103-2.04-0.103-1.734-0.103-4.284v-5.712c0.103-2.55,0.103-4.488,0.103-5.814c0-2.142,0-4.182-0.103-6.12
	c0-0.918-0.102-2.346-0.203-4.386c-0.103-1.836-0.103-3.774-0.204-5.916c-0.103-2.142-0.103-3.876-0.204-5.1
	c0-1.224,0-1.938-0.103-2.244l-0.204-2.142c0.103,0.102,0.307,0.612,0.511,1.53l0.918,4.182c0.408,1.836,0.714,3.264,0.918,4.284
	l1.122,4.59c0.714,2.754,1.02,4.284,1.122,4.692c0.102,1.122,0.611,2.958,1.428,5.508c0.815,2.55,1.428,3.978,1.733,4.284
	c0.103,0.102,0.408,0.102,0.715,0.102c0.714,0,1.632-0.306,2.855-0.816c1.428-3.162,2.448-6.222,3.162-9.078l1.326-4.182
	c0.102-0.51,0.306-1.224,0.51-2.244s0.408-1.734,0.51-2.142c0.103-0.51,0.408-1.938,0.816-4.284c0.306-1.122,0.51-2.142,0.612-3.06
	l0.611-4.386l-0.306,5.814c0,1.122,0,2.142,0.102,2.856c0,0.306,0,0.816-0.102,1.428c-0.102,0.612-0.102,1.122-0.102,1.428v0.714
	v4.284v4.794l-0.204,18.054v4.08c0.102,0.204,0.102,0.408,0.102,0.612c0,0.102,0,0.408-0.102,0.714v0.612c0,1.53,0,2.55-0.103,2.856
	v3.06v2.448v1.938c0,0.102,0.103,0.204,0.204,0.204h0.306c0.204-0.102,0.408-0.102,0.511-0.102c0.204,0,0.407,0,0.51,0.102
	c0.51,0.204,1.53,0.306,2.958,0.306c0.204-0.102,0.408-0.102,0.612-0.102c0.203,0,0.407,0,0.714,0.102l0.407,0.102
	c0-0.102,0-0.306-0.102-0.408l-0.102-0.204c0-0.204,0-0.408,0.102-0.51l0.102-2.04l0.103-8.16v-1.428v-0.51v-0.612
	c0-0.408,0-0.816-0.103-1.122c0.103-0.51,0.103-1.53,0.103-2.856v-1.224l0.102-2.754v-1.53v-4.488
	c0.103-6.222,0.103-15.606,0.103-28.152v-2.346v-1.122c0-0.306,0-0.816-0.103-1.53c0-0.816,0-1.428-0.102-1.836v-1.122l0.102-1.836
	l-0.102-2.856c0-2.652-0.103-3.876-0.204-5.406L236.37,152.892z"/>
<path fill="#FFFFFF" d="M26.106,328.974c0,0.125,0,0.25,0.125,0.5v0.25c1,0.625,2.375,0.875,3.5,0.875c0.875,0,1.5,0,1.875-0.125
	h4.875c2.25,0,7.125,0,8,0.125h0.875c0.5,0,1.125,0,1.625,0.125h1.25c1,0,1.875-0.125,2.5-0.5c0.375,0,0.5-1.5,0.5-4.375
	c0-2.75-0.25-4.125-0.875-4.25h-5.125c-0.125,0-0.625,0-1.375-0.125h-1.75c-0.375,0.125-4.625,0.125-6,0.125s-1.25,0-1.875,0.125
	v-11c0.125-0.875,0.125-1.5,0.125-2v-7.875c0-1.125,0.125-3.375,0.25-4.25v-0.375v-1.125v-0.25c0.125-0.25,0.25-0.375,0.5-0.375
	s0.625,0.125,1.125,0.125h6.375c1.25,0,2.25-0.125,2.875-0.375c0.375,0,0.625-0.625,0.75-1.875v-0.625c0-1.5-0.125-1.875-0.125-3.25
	v-0.625c-0.125-1.125-0.375-1.75-0.625-1.875c-0.625-0.375-1.375-0.5-2.375-0.5h-1.625c-0.625,0.125-4.625,0.125-5,0.125h-1.75
	v-2.375v-3.625c0-1.125,0-2.5-0.125-4.25l0.125-22.125c0.125-0.875,0.125-1.5,0.125-1.875c0-0.875,0.125-1.5,0.125-2
	c0-0.25,0-0.625-0.125-0.875v-0.25v-1v-0.375c0.125-0.125,0.25-0.25,0.25-0.5v-0.25c0.125,0.125,3.875,0.25,6.75,0.375
	c1-0.125,1.75-0.25,2.375-0.25h2.5c0.25,0,0.625,0,1-0.125h0.75l0.75-0.25l0.125-0.125c0.25,0,0.375-1.875,0.375-3.5v-0.875
	c0-0.125,0-0.375-0.125-0.75s-0.125-0.625-0.125-0.875v-0.25l-0.25-0.625v-0.25l-0.125-0.125c-0.125-0.125-0.875-0.375-2.125-0.5
	c-0.375,0-1.125-0.125-2.25-0.25c-1.125,0-2,0-2.5,0.125c-1.375-0.125-6.75-0.125-9.375-0.125c-4.375,0.125-6.625,0.375-6.625,0.5
	l0.125,0.25v0.625v4.875c0,0.625,0,1.25,0.125,1.625c-0.125,0.875-0.125,2.375-0.125,4.625v9.125c0,4.75-0.125,8.375-0.25,10.75
	v6.25c0,7.625-0.125,13.375-0.125,21.125c0,1.25,0,2-0.125,2.375c0.125,0.5,0.125,1.25,0.125,2.25c0,1.375,0,2.25-0.125,2.75
	c0.125,1.125,0.125,2.625,0.125,4.75c0,7.875,0,12.375,0.125,14.75c0.125,0.625,0.125,1.125,0.125,1.5
	c0,0.75-0.125,1.125-0.125,1.25V328.974z"/>
<path fill="#FFFFFF" d="M64.481,237.974c-0.125-0.25-0.75-0.5-2.25-0.75c-0.5,0-0.5,0-1.375,0.125h-1.875
	c-1.5,0-2.25,0.125-2.375,0.5c0,0.625,0,1.25-0.125,1.75v1c0.125,0.5,0.125,0.875,0.125,1.25c0,0.625-0.125,0.875-0.125,1.5v1v0.5
	c0.125,0.375,0.125,0.875,0.125,1.75c-0.125,0.375-0.125,1-0.125,1.875v2l-0.125,4.5v10.625c0,9,0.125,16.125,0.25,21.75
	c-0.125,0.125-0.125,0.5-0.125,0.875c0,0.25,0,0.75,0.125,1.125c0,0.875,0,1.625,0.125,2c0.125,2.875,0.125,4.75,0.125,5.625v1.75
	c0.125,0.75,0.25,1.625,0.25,2.75v0.75c0.25,1.5,0.25,2.5,0.375,2.875c0.5,6.5,1.25,11.25,2.375,14.375s2.875,5.75,5.25,7.625
	c3.25,2.5,7.125,3.875,11.875,4c2.875,0,5.25-0.625,6.75-1.75c2.125-1.875,3.625-4.625,4.625-8.125c0.875-3.5,1.5-9.25,2-17.125
	c0.125-0.625,0.125-1.5,0.25-2.875v-3.375c0-1.875,0-3.125-0.125-4c0.125-0.375,0.125-0.875,0.125-1.625c0-0.875,0-1.625-0.125-2
	c0-0.25,0-0.625,0.125-1.125v-1.125l0.125-1.125c-0.125-0.5-0.125-0.875-0.125-1.125c0-0.375,0-1.125-0.125-2.125v-2.375
	c0-3.375-0.125-9-0.125-16.625c-0.125-7.625-0.25-13-0.375-16.125l-0.125-3.625c0-0.375,0-0.75-0.125-1.25v-1.125v-0.5
	c0-0.875-0.125-1.625-0.375-2.125c0.125-0.25,0.125-0.625,0.125-1c0-0.125-0.75-0.5-2.125-1c-0.875,0-1.875-0.125-3.25-0.375
	c-0.375,0.125-0.625,0.125-1,0.125h-0.75l-0.25,0.125c-0.125,0.125-0.125,0.375-0.125,0.5s0.125,0.5,0.25,1.125v0.25v0.75
	c0,0.375,0,0.75-0.125,1v1.125c0,0.75,0.125,1.375,0.25,1.875l-0.125,1.875v3c0.125,1.125,0.125,1.875,0.125,2.25
	c-0.125,0.75-0.125,1.75-0.125,2.625c0,1,0,2,0.125,3.125l0.125,6.625v2.375v5.375c0,1.875,0.125,3.25,0.125,4.25
	c0.125,0.625,0.25,1.625,0.25,2.875v1.875c-0.125,0.375-0.125,0.75-0.125,1.375c0,0.5,0,1.25,0.125,2
	c0.125,1.625,0.125,2.625,0.125,3.25c0,0.25-0.125,0.625-0.25,1.125v1.125c0,0.25,0,0.625-0.125,1.125s-0.125,0.875-0.125,1.125
	l-0.125,4.375v3.125c-0.125,7.5-0.625,14.125-1.625,17.75c-0.625,2.625-1.25,4.25-1.875,4.75c-0.5,0.5-1.25,0.75-2.25,0.75l-1-0.125
	c-1,0-2-0.125-3.125-0.375c-0.125-0.125-0.5-0.25-1.125-0.625c-0.5-0.375-0.875-0.5-1-0.625c-1.375-1-2.125-1.5-2.25-1.875
	c-0.5-0.5-0.875-1-1-1.625c-1.625-4-2.875-21.375-2.875-50.625v-7.75v-3.5c0-2.625,0-4.5-0.125-5.75
	c0.125-1.125,0.25-2.125,0.25-2.875v-1.375l0.125-1.5V237.974z"/>
<path fill="#FFFFFF" d="M116.856,239.224c-0.5-0.375-1.625-1-3.5-1.75c-2.375-0.5-2.25-0.25-4.75-0.625c-0.5-0.125-1.125,0-1.875,0
	h-2.125c-0.875,0-1.625,0-2.5,0.125c-0.375,0.125-1.875-0.375-2,0.75c-0.375,4-0.625,4.5-0.625,17v3v5.125
	c0.125,0.375,0.125,0.625,0.125,1s0,1.125-0.125,2v1.875v0.75l0.125,3.75v0.875v8.75c0.125,3.875,0.125,6.625,0.125,8.5v1.25v2.25
	c0,1,0,1.875-0.125,2.75l0.125,0.625v0.125c0,0.125,0,0.5-0.125,0.875v1.125v0.125v2.625c0.125,1.25,0.125,2.125,0.25,2.75
	c-0.125,0.625-0.125,1.375-0.125,2.25v1.625c0,1.375,0,3.25-0.125,5.375v5.75v4.625v5.375c0,0.25,0.75,0.5,2.25,0.625
	c1.625-0.125,2.625-0.25,3-0.375c1.625-0.125,2.375-0.625,2.375-1.375c0.125,0,0.125-0.5,0.25-1.5c-0.125-0.625-0.125-2-0.25-4
	l-0.125-11c-0.125-2.125-0.125-4.25-0.125-6.625v-0.625v-0.625v-2.75v-0.375c0-0.875,0-1.75,0.125-2.875c0-1,0-1.5-0.125-1.625
	c0.125-0.5,0.25-0.875,0.375-1c0.125,0,0.125,0,0.25-0.125h0.25c0.25,0,0.5,0.125,0.875,0.25s0.625,0.25,0.75,0.25
	c1.75,0.25,3.25,1.625,4.5,4.125s2.125,5.125,2.75,7.75c0.375,2.75,0.625,5.625,0.625,8.625v1.875c0,1.25,0,3-0.125,5.375v5.125
	v1.375c0,0.375,0.625,0.625,2,0.625c0.125,0,0.5,0,1.125,0.125s1.125,0.25,1.5,0.25h0.75c1.5-0.375,2.25-0.75,2.25-1
	c0.125-0.125,0.125-0.5,0.125-0.875c0.125-0.375,0.125-0.75,0.125-1v-2.75l-0.25-9.25c0-2,0-3.75-0.125-5.25s-0.125-2.75-0.25-3.875
	c0-1.125-0.125-2.125-0.375-3.125s-0.375-1.75-0.5-2.25c0-0.5-0.25-1.125-0.625-1.875l-0.75-1.5c-0.125-0.25-0.375-0.875-1-1.75
	s-1-1.5-1.25-1.875l-2.625-3.25c0.25-0.25,0.75-0.75,1.625-1.5s1.5-1.25,1.625-1.5c0.25-0.125,0.625-0.625,1.125-1.25
	c0.625-0.625,1-1.25,1.125-1.75c0.25-0.625,0.5-1.25,0.625-2.125c0.25-0.875,0.375-1.875,0.5-3c0.125-0.625,0.25-1.75,0.375-3.125
	c0.125-1.5,0.25-2.875,0.375-4.125s0.125-2.5,0.125-3.625v-2.5c-0.125-7.75-0.25-9.875-0.375-10.5
	c-0.625-6.75-1.875-11.375-3.75-13.75c-0.5-0.75-1-1.375-1.625-2C117.981,239.974,117.231,239.349,116.856,239.224z
	 M107.356,264.724c-0.125-2.625-0.125-5.625-0.375-9.125c0-3.5-0.125-5.75-0.125-6.625c-0.125-0.375-0.125-0.625-0.125-0.875
	c0-1.625,0.125-2.875,0.375-3.5c0.125-0.375,0.25-0.625,0.625-0.625c2,0,3.875,0.25,5,0.875c0.125,0.125,0.375,0.5,0.875,1
	s0.875,0.875,1,1.125c0.5,0.5,2,5.25,2.125,7.125c0.75,3.125,1.125,7.25,1.125,12.625c0,5-0.375,7.625-1.125,11.875
	c-0.75,4.125-1.875,6.75-3.25,7.75s-3,1.5-4.875,1.5h-0.375c-0.125-0.125-0.25-0.125-0.375-0.125c-0.375-0.5-0.625-1.75-0.75-3.875
	v-0.75v-2.125v-0.75l0.125-8.25c0.125-1.125,0.125-1,0.125-3.625V264.724z"/>
<path fill="#FFFFFF" d="M164.856,290.724v-5v-4.5v-3.75c-0.125-0.875-0.125-2.125-0.125-3.625c0-1.375,0-2.375-0.125-3
	c0-2.125-0.125-3.5-0.25-4.375c0-3.375-0.125-5.5-0.375-6.5c-0.125-0.375-0.125-1-0.25-1.625s-0.125-1-0.125-1.125
	c-0.375-2.875-0.875-5.125-1.5-7c-1-3.375-2-6-3.125-7.625c-1.125-1.75-2.5-3.5-4.375-5.25c-0.875-0.875-2-1.625-3.125-2.125
	c-1.125-0.625-2.125-1-3-1c-0.5-0.125-1.125-0.125-1.875-0.125c-0.625,0-1,0-1.25,0.125c-4.125,0.625-7.125,3.25-9.25,7.75
	c-1.5,3.625-2.375,7.75-2.625,12.5c-0.125,0.875-0.125,2.625-0.125,5.125c0,0.625,0,1.625-0.125,3.125s-0.125,2.75-0.125,3.625v4.25
	c-0.125,2-0.125,3.625-0.125,4.75v7.75v1.75c-0.125,0.75-0.125,1.375-0.125,1.75s0,1,0.125,1.875v1.625v4.375v1.875
	c0,2.625,0,4.625,0.125,5.875c0.25,3.875,0.375,5.875,0.375,6c0.125,0.875,0.25,1.875,0.375,3.125
	c0.125,1.125,0.25,1.875,0.25,2.125c0,0.625,0.125,1.375,0.25,2.375s0.25,1.75,0.25,2.25c0.125,0.375,0.375,0.875,0.75,1.75
	c0.25,0.875,0.5,1.5,0.625,1.875c0.375,1,0.75,2,1.375,3.125c1.375,1.875,2.75,3.25,4.375,4.125c0.375,0.125,0.875,0.375,1.5,0.625
	s1,0.5,1.375,0.625c1.125,0.375,2.25,0.75,3.375,0.875h1.25h2.75h0.625c0.875,0,2-0.125,3.125-0.5c1-0.375,2.125-0.875,3.5-1.625
	c1-0.625,1.875-1.375,2.5-2.375s1.25-2.375,1.625-4.125c0.375-1.875,0.75-3.375,1-4.5s0.375-3.125,0.5-5.75
	c0.125-2.75,0.125-4.5,0.125-5.375v-5.75v-2.5c-0.125-1.125-0.125-2-0.125-2.625V290.724z M142.356,248.599
	c0.375-1.375,1-2.5,2.125-3.625c0.25-0.625,1.125-1.125,2.5-1.625c1.625,0.375,2.625,0.75,3.25,1.375
	c0.75,0.375,1.125,0.75,1.25,1.125c0.375,0.375,0.75,0.875,1,1.375c0.125,0.125,0.5,0.75,1.125,1.75l1.125,1.75
	c0.5,1.125,0.875,2.375,1.25,3.875c0.375,1.375,0.625,2.75,0.75,3.875s0.25,2.625,0.375,4.75c0.125,2,0.125,3.375,0.125,4.25v5
	v4.375v1.625c0,0.625,0,1.125-0.125,1.5c0,0.375,0,1.125,0.125,2.125v2.25c0,2.125,0,5.5,0.125,10.25s0.125,8.25,0.125,10.625v1
	c-0.125,1.375-0.25,3.375-0.25,5.75s-0.125,4.125-0.5,5.375c-0.125,0.625-0.375,1.25-0.625,1.75c-0.375,0.375-0.625,0.75-0.75,1
	c-0.25,0.125-0.625,0.375-1.125,0.75c-0.625,0.375-1,0.625-1.125,0.75c-0.875,0.625-1.625,0.875-2.5,0.875
	c-1.375,0-2.375-0.125-3.125-0.375c-1.125-0.375-2-1-2.625-1.75c-0.375-0.5-1-1.375-1.625-2.75c-0.375-0.75-0.75-2-1.25-3.625
	c-0.5-1.875-0.875-9.75-1-23.875v-3.875v-1.875v-6c0-1.125,0-2.875,0.125-5.125v-5c0.125-1.125,0.125-2.625,0.125-4.625
	c0.125-1.125,0.125-2.625,0.125-4.375c0.125-1,0.25-1.75,0.25-2.125v-0.625c-0.125-0.375-0.125-0.625-0.125-0.75
	c0.125-0.625,0.125-1.25,0.25-1.875c0.125-0.75,0.125-1.25,0.125-1.375C141.981,251.474,142.106,250.224,142.356,248.599z"/>
<path fill="#FFFFFF" d="M202.481,262.599c0-3.5-0.25-6.625-0.875-9.125c-0.5-2.75-1.5-5.125-2.75-7.5c-1.5-2.25-3.5-4-6.25-5.25
	c-2.625-1.375-6-2-10-2.125h-2.25h-0.375c-0.375,0-0.75,0-1.125,0.125l-3.75-0.125c-0.25,0-0.5,0.125-0.625,0.375
	c-0.125,0.125-0.25,0.625-0.375,1.5s-0.125,2-0.25,3.625v0.875v0.375c0,1.375,0,2.5-0.125,3.375c0.125,0.75,0.125,1.875,0.125,3.5
	v0.125v1.75v1.25v4.125c0.125,2,0.125,3.625,0.125,4.875c0.125,0.875,0.125,2.375,0.125,4.375c0,1.5,0,2.625-0.125,3.375
	c0,0.25,0.125,3.5,0.375,9.625l0.25,11v4.875c0.125,2.125,0.125,3.5,0.125,4.375v1.25v3.375c0.125,1.375,0.125,2.375,0.125,3v3.25
	c0.125,1.375-0.125,2.25,0,2.875v0.25c0,3.125,0,5.25,0.125,6.625c0,1,0,1.875,0.125,2.625v0.75v1.125v0.375v1.125
	c0.125,0.375,1.375,0.5,2.75,0.625c0.875,0,1,0.25,2.125,0c0.5-0.125,0.875-0.125,1.125-0.125h0.125h0.375
	c0.75,0,1.125-0.125,1.25-0.375c0.125-0.125,0.125-0.5,0.125-0.875c0-0.125,0-0.25-0.125-0.625v-0.875v-0.125v-1.625
	c-0.125-4.75-0.25-8.5-0.25-11.375v-1.5l0.125-18.125v-0.875h1.125h1.625c0.5-0.125,1.125-0.125,2-0.25l1.375-0.25h0.25
	c2.125,0,4.125-0.5,5.75-1.375c1.625-1,3-2.25,3.875-3.75s1.625-2.875,2-4.125c0.5-1.375,0.875-2.5,1-3.625
	c0.125-2,0.375-3.5,0.5-4.5v-1.125v-1.25c0.125-0.625,0.125-1.125,0.125-1.5c0-0.125,0-0.25-0.125-0.375v-0.5v-2.25
	c0.125-1,0.125-1.75,0.25-2.25V262.599z M185.981,245.724c1.375,0,2.5,0.25,3.5,0.875c0.875,0.625,1.625,1.25,2.25,1.875
	s1.125,1.75,1.5,3c0.375,1.5,0.75,2.5,0.875,3.375s0.375,2.125,0.625,3.75c0.125,0.375,0.125,2.75,0.125,6.875v1.375v1.375
	c0,2.875-0.25,5.625-0.625,8.125c-0.375,3-1,4.875-1.875,5.625c-0.875,0.875-2.875,1.5-6,2.125l-2.125,0.125h-0.375
	c-0.5,0-0.75-0.125-0.875-0.5c-0.125-0.125-0.125-0.25-0.25-0.375c-0.375-1.125-0.625-5.25-0.625-12.375c0-1.75,0-3.5,0.125-5.375
	v-2.375c0-1.75-0.125-4.375-0.125-7.875c-0.25-3.375-0.25-5.875-0.25-7.375v-0.5v-1v-0.625l-0.125-0.125h0.375h0.75
	c0.375-0.125,0.75-0.125,1-0.125h0.125L185.981,245.724z"/>
<path fill="#FFFFFF" d="M237.106,237.224c-0.375-0.125-1-0.25-2-0.25c-1.125-0.125-1.875-0.125-2.5-0.25
	c-1,0.125-5.125,0.125-9,0.125c-1.75,0-5.25-0.125-7.125-0.125h-1c-3.5,0.125-5.25,0.375-5.375,0.625
	c-0.75,1.5-1.125,6-1.125,13.625c0,1.625,0.125,7.625,0.25,18.125c0,3.375,0,6.125,0.125,8v0.875c-0.125,0.375-0.125,0.75-0.125,1
	c0,0.5,0,1.375,0.125,2.5s0.125,2,0.125,2.625c0,0.25,0,0.625-0.125,1v1.125c0.125,1.375,0.125,3.25,0.125,5.875
	c0,1.5,0,3.75-0.125,6.5v6.375v3c-0.125,3.625-0.25,4.625-0.25,8v3.125v3.875c0,3.625,0.25,5.5,0.625,5.5l15.125,0.25h5.5
	c2.125,0,3.25,0,3.625-0.125c1.625,0,2.875,0,3.625-0.125c0.375,0,0.5-0.875,0.5-2.75c0-3.5-0.375-5.375-1-5.5
	c-1.25-0.125-4.375-0.25-9.375-0.25l-10.25-0.25l0.375-24.375l14.25-0.625c0.625,0,0.375-0.625,0.375-1.875
	c0.125-0.5,0.25-1,0.25-1.5c0-0.875-0.125-1.5-0.25-2c-0.125-1.375,0-2.625-0.625-2.75c-0.125-0.125-1.25-0.25-2.375-0.25h-0.875
	h-3.625c-2.125,0-6.5-0.375-6.875-0.5l-0.375-7.375c0-0.5,0-1.5-0.125-2.875v-3.5c0-1.625,0-3-0.125-4v-1.125
	c0-0.25,0-0.75,0.125-1.5s0.125-1.375,0-1.75c-0.125-2.125-0.25-3.75-0.25-4.75v-13.25l10.625-0.375
	c0.75-0.125,2.75-0.125,5.875-0.125h1.125c1.5,0,2.375-0.125,2.5-0.375s0.25-1.125,0.375-2.625c0.125-0.375,0.125-0.625,0.125-1.5
	s0-1.5-0.125-1.875c-0.125-1.125-0.375-1.625-0.625-1.625H237.106z"/>
<g>
	<rect x="84.9" y="348.07" fill="#144391" width="95.616" height="63.963"/>
	<polygon fill="#FDEB1A" points="133.746,357.164 137.075,357.164 134.39,359.252 135.433,362.566 132.761,360.525 130.091,362.566 
		131.144,359.252 128.44,357.164 131.757,357.164 132.761,353.932 	"/>
	<polygon fill="#FDEB1A" points="133.862,399.82 137.195,399.82 134.512,401.835 135.555,405.02 132.883,403.058 130.212,405.02 
		131.265,401.835 128.558,399.82 131.879,399.82 132.883,396.711 	"/>
	<polygon fill="#FDEB1A" points="144.414,396.995 147.745,396.995 145.065,399.006 146.107,402.194 143.437,400.227 
		140.765,402.194 141.817,399.006 139.109,396.995 142.43,396.995 143.437,393.886 	"/>
	<polygon fill="#FDEB1A" points="144.414,360.01 147.745,360.01 145.065,362.02 146.107,365.209 143.437,363.244 140.765,365.209 
		141.817,362.02 139.109,360.01 142.43,360.01 143.437,356.901 	"/>
	<polygon fill="#FDEB1A" points="152.248,367.844 155.573,367.844 152.892,369.85 153.934,373.043 151.264,371.078 148.598,373.043 
		149.65,369.85 146.942,367.844 150.257,367.844 151.264,364.733 	"/>
	<polygon fill="#FDEB1A" points="152.248,389.269 155.573,389.269 152.892,391.284 153.934,394.474 151.264,392.504 
		148.598,394.474 149.65,391.284 146.942,389.269 150.257,389.269 151.264,386.16 	"/>
	<polygon fill="#FDEB1A" points="155.182,378.393 158.514,378.393 155.833,380.402 156.875,383.593 154.205,381.626 
		151.533,383.593 152.584,380.402 149.878,378.393 153.194,378.393 154.205,375.284 	"/>
	<polygon fill="#FDEB1A" points="122.988,360.036 126.314,360.036 123.633,362.049 124.675,365.238 122.004,363.271 
		119.332,365.238 120.387,362.049 117.684,360.036 121,360.036 122.004,356.927 	"/>
	<polygon fill="#FDEB1A" points="115.372,367.869 118.704,367.869 116.022,369.879 117.059,373.069 114.393,371.104 
		111.722,373.069 112.772,369.879 110.067,367.869 113.389,367.869 114.393,364.761 	"/>
	<polygon fill="#FDEB1A" points="112.544,378.418 115.874,378.418 113.192,380.431 114.234,383.619 111.562,381.657 
		108.893,383.619 109.946,380.431 107.241,378.418 110.559,378.418 111.562,375.312 	"/>
	<polygon fill="#FDEB1A" points="115.372,389.296 118.704,389.296 116.022,391.309 117.059,394.5 114.393,392.532 111.722,394.5 
		112.772,391.309 110.067,389.296 113.389,389.296 114.393,386.189 	"/>
	<polygon fill="#FDEB1A" points="123.099,397.021 126.426,397.021 123.744,399.032 124.781,402.221 122.115,400.254 
		119.443,402.221 120.497,399.032 117.795,397.021 121.111,397.021 122.115,393.912 	"/>
</g>
</svg>
