<?xml version="1.0" encoding="utf-8"?>
<!-- Generator: Adobe Illustrator 16.0.0, SVG Export Plug-In . SVG Version: 6.00 Build 0)  -->
<!DOCTYPE svg PUBLIC "-//W3C//DTD SVG 1.1//EN" "http://www.w3.org/Graphics/SVG/1.1/DTD/svg11.dtd">
<svg version="1.1" id="Capa_1" xmlns="http://www.w3.org/2000/svg" xmlns:xlink="http://www.w3.org/1999/xlink" x="0px" y="0px"
	 width="206.122px" height="47.398px" viewBox="0 0 206.122 47.398" enable-background="new 0 0 206.122 47.398"
	 xml:space="preserve">
<g>
	<g>
		<g>
			<rect y="0.029" fill="#11448E" width="70.815" height="47.369"/>
			<polygon fill="#FDEA23" points="36.178,6.767 38.639,6.767 36.651,8.31 37.423,10.767 35.448,9.256 33.475,10.767 34.245,8.31 
				32.247,6.767 34.705,6.767 35.448,4.375 			"/>
			<polygon fill="#FDEA23" points="36.266,38.353 38.727,38.353 36.744,39.849 37.521,42.206 35.536,40.75 33.561,42.206 
				34.339,39.849 32.336,38.353 34.792,38.353 35.536,36.056 			"/>
			<polygon fill="#FDEA23" points="44.075,36.261 46.548,36.261 44.556,37.749 45.324,40.113 43.353,38.653 41.375,40.113 
				42.153,37.749 40.149,36.261 42.605,36.261 43.353,33.959 			"/>
			<polygon fill="#FDEA23" points="44.075,8.873 46.548,8.873 44.556,10.355 45.324,12.723 43.353,11.268 41.375,12.723 
				42.153,10.355 40.149,8.873 42.605,8.873 43.353,6.57 			"/>
			<polygon fill="#FDEA23" points="49.878,14.674 52.343,14.674 50.355,16.161 51.127,18.53 49.151,17.07 47.177,18.53 
				47.952,16.161 45.949,14.674 48.401,14.674 49.151,12.372 			"/>
			<polygon fill="#FDEA23" points="49.878,30.539 52.343,30.539 50.355,32.033 51.127,34.392 49.151,32.938 47.177,34.392 
				47.952,32.033 45.949,30.539 48.401,30.539 49.151,28.238 			"/>
			<polygon fill="#FDEA23" points="52.049,22.488 54.521,22.488 52.53,23.97 53.298,26.335 51.331,24.879 49.352,26.335 
				50.124,23.97 48.119,22.488 50.576,22.488 51.331,20.185 			"/>
			<polygon fill="#FDEA23" points="28.207,8.888 30.671,8.888 28.688,10.386 29.459,12.741 27.481,11.294 25.502,12.741 
				26.283,10.386 24.281,8.888 26.732,8.888 27.481,6.593 			"/>
			<polygon fill="#FDEA23" points="22.569,14.692 25.036,14.692 23.053,16.182 23.822,18.543 21.844,17.092 19.864,18.543 
				20.64,16.182 18.636,14.692 21.103,14.692 21.844,12.393 			"/>
			<polygon fill="#FDEA23" points="20.473,22.502 22.945,22.502 20.955,23.996 21.724,26.359 19.749,24.906 17.773,26.359 
				18.545,23.996 16.549,22.502 19.004,22.502 19.749,20.205 			"/>
			<polygon fill="#FDEA23" points="22.569,30.559 25.036,30.559 23.053,32.054 23.822,34.411 21.844,32.956 19.864,34.411 
				20.64,32.054 18.636,30.559 21.103,30.559 21.844,28.256 			"/>
			<polygon fill="#FDEA23" points="28.291,36.28 30.754,36.28 28.767,37.77 29.537,40.13 27.561,38.678 25.586,40.13 26.362,37.77 
				24.362,36.28 26.821,36.28 27.561,33.979 			"/>
		</g>
	</g>
	<g>
		<path fill="#010202" d="M79.259,5.497c0-2.133,1.571-3.59,3.569-3.59c1.228,0,2.082,0.593,2.633,1.374l-0.729,0.405
			c-0.396-0.582-1.113-1.009-1.904-1.009c-1.519,0-2.674,1.165-2.674,2.819c0,1.645,1.155,2.82,2.674,2.82
			c0.791,0,1.509-0.416,1.904-1.009l0.739,0.405c-0.583,0.791-1.415,1.374-2.643,1.374C80.83,9.088,79.259,7.631,79.259,5.497z"/>
		<path fill="#010202" d="M91.499,8.963l-0.614-1.54H87.43l-0.614,1.54h-0.988l2.789-6.941h1.072l2.799,6.941H91.499z M89.158,2.917
			L87.68,6.652h2.945L89.158,2.917z"/>
		<path fill="#010202" d="M99.327,8.963V3.25l-2.362,5.713h-0.354L94.259,3.25v5.713h-0.864V2.021h1.239l2.154,5.225l2.165-5.225
			h1.238v6.941H99.327z"/>
		<path fill="#010202" d="M101.816,8.963V2.021h2.789c1.395,0,2.175,0.958,2.175,2.092c0,1.135-0.801,2.092-2.175,2.092h-1.925
			v2.758H101.816z M105.886,4.113c0-0.78-0.562-1.321-1.384-1.321h-1.821v2.644h1.821C105.324,5.436,105.886,4.894,105.886,4.113z"
			/>
		<path fill="#010202" d="M112.079,8.963l-0.614-1.54h-3.455l-0.614,1.54h-0.988l2.789-6.941h1.072l2.799,6.941H112.079z
			 M109.738,2.917l-1.478,3.735h2.945L109.738,2.917z"/>
		<path fill="#010202" d="M118.887,8.963l-4.048-5.536v5.536h-0.864V2.021h0.885l3.996,5.422V2.021h0.864v6.941H118.887z
			 M116.171,0.502c-0.281,0-0.5,0.271-0.5,0.896h-0.468c0-0.812,0.354-1.395,1.01-1.395c0.749,0,0.78,0.957,1.28,0.957
			c0.281,0,0.5-0.271,0.5-0.895h0.468c0,0.812-0.354,1.395-1.009,1.395C116.691,1.46,116.67,0.502,116.171,0.502z"/>
		<path fill="#010202" d="M126.299,8.963l-0.614-1.54h-3.455l-0.614,1.54h-0.988l2.789-6.941h1.072l2.799,6.941H126.299z
			 M123.958,2.917l-1.478,3.735h2.945L123.958,2.917z"/>
		<path fill="#010202" d="M130.88,8.963V2.021h4.548v0.771h-3.684v2.237h3.611V5.8h-3.611v3.163H130.88z"/>
		<path fill="#010202" d="M136.606,8.963V2.021h0.864v6.941H136.606z"/>
		<path fill="#010202" d="M144.006,8.963l-4.048-5.536v5.536h-0.864V2.021h0.885l3.996,5.422V2.021h0.864v6.941H144.006z"/>
		<path fill="#010202" d="M151.417,8.963l-0.614-1.54h-3.455l-0.614,1.54h-0.989l2.789-6.941h1.072l2.799,6.941H151.417z
			 M149.076,2.917l-1.478,3.735h2.945L149.076,2.917z"/>
		<path fill="#010202" d="M158.226,8.963l-4.048-5.536v5.536h-0.864V2.021h0.885l3.996,5.422V2.021h0.864v6.941H158.226z"/>
		<path fill="#010202" d="M160.403,5.497c0-2.133,1.571-3.59,3.569-3.59c1.228,0,2.081,0.593,2.633,1.374l-0.729,0.405
			c-0.396-0.582-1.113-1.009-1.904-1.009c-1.52,0-2.674,1.165-2.674,2.819c0,1.645,1.155,2.82,2.674,2.82
			c0.791,0,1.509-0.416,1.904-1.009l0.739,0.405c-0.583,0.791-1.416,1.374-2.644,1.374C161.974,9.088,160.403,7.631,160.403,5.497z"
			/>
		<path fill="#010202" d="M167.72,8.963V2.021h0.864v6.941H167.72z"/>
		<path fill="#010202" d="M175.163,8.963l-0.615-1.54h-3.455l-0.614,1.54h-0.988l2.79-6.941h1.07l2.801,6.941H175.163z
			 M172.821,2.917l-1.479,3.735h2.945L172.821,2.917z"/>
		<path fill="#010202" d="M177.058,8.963V2.021h2.373c2.154,0,3.559,1.509,3.559,3.476c0,1.978-1.404,3.466-3.559,3.466H177.058z
			 M182.095,5.497c0-1.498-0.947-2.705-2.664-2.705h-1.508v5.4h1.508C181.116,8.192,182.095,6.985,182.095,5.497z"/>
		<path fill="#010202" d="M188.913,8.963l-0.613-1.54h-3.455l-0.615,1.54h-0.988l2.789-6.941h1.072l2.799,6.941H188.913z
			 M186.571,2.917l-1.477,3.735h2.943L186.571,2.917z"/>
		<path fill="#010202" d="M79.259,18.718c0-2.133,1.571-3.59,3.569-3.59c1.228,0,2.082,0.593,2.633,1.374l-0.729,0.405
			c-0.396-0.582-1.113-1.009-1.904-1.009c-1.519,0-2.674,1.165-2.674,2.819c0,1.645,1.155,2.82,2.674,2.82
			c0.791,0,1.509-0.416,1.904-1.009l0.739,0.405c-0.583,0.791-1.415,1.374-2.643,1.374C80.83,22.309,79.259,20.852,79.259,18.718z"
			/>
		<path fill="#010202" d="M86.296,18.718c0-2.05,1.384-3.59,3.444-3.59c2.05,0,3.445,1.54,3.445,3.59
			c0,2.051-1.395,3.591-3.445,3.591C87.68,22.309,86.296,20.769,86.296,18.718z M92.29,18.718c0-1.623-0.999-2.819-2.55-2.819
			c-1.561,0-2.549,1.196-2.549,2.819c0,1.613,0.988,2.82,2.549,2.82C91.291,21.538,92.29,20.331,92.29,18.718z"/>
		<path fill="#010202" d="M99.452,22.184l-4.048-5.536v5.536H94.54v-6.941h0.885l3.996,5.422v-5.422h0.864v6.941H99.452z"/>
		<path fill="#010202" d="M109.549,22.184l-0.614-1.54h-3.455l-0.614,1.54h-0.989l2.789-6.941h1.072l2.799,6.941H109.549z
			 M107.208,16.138l-1.478,3.735h2.945L107.208,16.138z"/>
		<path fill="#010202" d="M112.809,22.184v-2.935l-2.737-4.007h1.009l2.154,3.227l2.154-3.227h1.009l-2.727,4.007v2.935H112.809z"/>
		<path fill="#010202" d="M117.306,19.488v-4.246h0.864v4.226c0,1.27,0.687,2.07,1.967,2.07c1.28,0,1.967-0.801,1.967-2.07v-4.226
			h0.864v4.235c0,1.728-0.947,2.831-2.831,2.831C118.253,22.309,117.306,21.195,117.306,19.488z"/>
		<path fill="#010202" d="M124.593,22.184v-6.941h2.373c2.154,0,3.559,1.509,3.559,3.476c0,1.978-1.405,3.466-3.559,3.466H124.593z
			 M129.63,18.718c0-1.498-0.947-2.705-2.664-2.705h-1.509v5.4h1.509C128.652,21.413,129.63,20.206,129.63,18.718z"/>
		<path fill="#010202" d="M136.449,22.184l-0.614-1.54h-3.455l-0.614,1.54h-0.989l2.789-6.941h1.072l2.799,6.941H136.449z
			 M134.107,16.138l-1.478,3.735h2.945L134.107,16.138z"/>
		<path fill="#010202" d="M141.03,22.184v-6.941h2.373c2.154,0,3.559,1.509,3.559,3.476c0,1.978-1.405,3.466-3.559,3.466H141.03z
			 M146.067,18.718c0-1.498-0.947-2.705-2.664-2.705h-1.509v5.4h1.509C145.089,21.413,146.067,20.206,146.067,18.718z"/>
		<path fill="#010202" d="M148.317,22.184v-6.941h4.548v0.771h-3.684v2.237h3.611v0.771h-3.611v2.393h3.684v0.771H148.317z"/>
		<path fill="#010202" d="M156.926,22.184v-6.941h0.864v6.171h3.226v0.771H156.926z"/>
		<path fill="#010202" d="M167.189,22.184l-0.614-1.54h-3.455l-0.614,1.54h-0.988l2.789-6.941h1.071l2.8,6.941H167.189z
			 M164.847,16.138l-1.478,3.735h2.945L164.847,16.138z"/>
		<path fill="#010202" d="M171.771,19.488v-4.246h0.863v4.226c0,1.27,0.688,2.07,1.967,2.07s1.967-0.801,1.967-2.07v-4.226h0.863
			v4.235c0,1.728-0.947,2.831-2.83,2.831S171.771,21.195,171.771,19.488z"/>
		<path fill="#010202" d="M183.97,22.184l-4.049-5.536v5.536h-0.863v-6.941h0.885l3.996,5.422v-5.422h0.863v6.941H183.97z"/>
		<path fill="#010202" d="M186.427,22.184v-6.941h0.865v6.941H186.427z"/>
		<path fill="#010202" d="M188.634,18.718c0-2.05,1.385-3.59,3.445-3.59c2.051,0,3.445,1.54,3.445,3.59
			c0,2.051-1.395,3.591-3.445,3.591C190.019,22.309,188.634,20.769,188.634,18.718z M194.628,18.718
			c0-1.623-0.998-2.819-2.549-2.819c-1.561,0-2.549,1.196-2.549,2.819c0,1.613,0.988,2.82,2.549,2.82
			C193.63,21.538,194.628,20.331,194.628,18.718z M192.089,14.66h-0.592l1.539-1.499h0.812L192.089,14.66z"/>
		<path fill="#010202" d="M201.79,22.184l-4.047-5.536v5.536h-0.865v-6.941h0.885l3.996,5.422v-5.422h0.863v6.941H201.79z"/>
		<path fill="#010202" d="M79.54,35.405v-6.941h4.548v0.771h-3.684v2.237h3.611v0.77h-3.611v2.394h3.684v0.771H79.54z"/>
		<path fill="#010202" d="M85.462,32.71v-4.246h0.864v4.226c0,1.27,0.687,2.07,1.967,2.07c1.28,0,1.967-0.801,1.967-2.07v-4.226
			h0.864v4.235c0,1.728-0.947,2.831-2.831,2.831C86.41,35.53,85.462,34.417,85.462,32.71z"/>
		<path fill="#010202" d="M96.767,35.405l-1.769-2.758h-1.384v2.758H92.75v-6.941h2.789c1.27,0,2.175,0.812,2.175,2.092
			c0,1.249-0.853,1.936-1.8,2.02l1.874,2.83H96.767z M96.819,30.556c0-0.78-0.562-1.321-1.384-1.321h-1.821v2.653h1.821
			C96.257,31.888,96.819,31.336,96.819,30.556z"/>
		<path fill="#010202" d="M98.798,31.939c0-2.05,1.384-3.59,3.444-3.59c2.05,0,3.445,1.54,3.445,3.59
			c0,2.051-1.395,3.591-3.445,3.591C100.182,35.53,98.798,33.99,98.798,31.939z M104.792,31.939c0-1.623-0.999-2.819-2.55-2.819
			c-1.561,0-2.549,1.196-2.549,2.819c0,1.613,0.988,2.82,2.549,2.82C103.793,34.76,104.792,33.553,104.792,31.939z"/>
		<path fill="#010202" d="M107.042,35.405v-6.941h2.789c1.395,0,2.175,0.958,2.175,2.092c0,1.135-0.801,2.092-2.175,2.092h-1.925
			v2.758H107.042z M111.111,30.556c0-0.78-0.562-1.321-1.384-1.321h-1.821v2.644h1.821
			C110.549,31.878,111.111,31.336,111.111,30.556z"/>
		<path fill="#010202" d="M113.153,35.405v-6.941h4.548v0.771h-3.684v2.237h3.611v0.77h-3.611v2.394h3.684v0.771H113.153z"/>
		<path fill="#010202" d="M124.029,35.405l-0.614-1.54h-3.455l-0.614,1.54h-0.988l2.789-6.941h1.072l2.799,6.941H124.029z
			 M121.688,29.359l-1.478,3.735h2.945L121.688,29.359z"/>
	</g>
</g>
</svg>
