<?xml version="1.0" encoding="utf-8"?>
<!-- Generator: Adobe Illustrator 16.0.0, SVG Export Plug-In . SVG Version: 6.00 Build 0)  -->
<!DOCTYPE svg PUBLIC "-//W3C//DTD SVG 1.1//EN" "http://www.w3.org/Graphics/SVG/1.1/DTD/svg11.dtd">
<svg id="map_img" version="1.1" xmlns="http://www.w3.org/2000/svg" xmlns:xlink="http://www.w3.org/1999/xlink" x="0px" y="0px"
	 viewBox="139.884 95.487 829.616 615.013"
	 enable-background="new 139.884 95.487 829.616 615.013" xml:space="preserve">

<g id="Capa_2">
	<rect x="-181.667" y="-66" fill="#EEF1F2" stroke="#FFFFFF" stroke-width="0.7976" width="1400" height="900"/>
</g>
<g id="Capa_1" xmlns:amcharts="http://amcharts.com/ammap">
	<defs>


			<amcharts:ammap  leftLongitude="-9.303714" projection="mercator" rightLongitude="4.332619" topLatitude="43.794381" bottomLatitude="31.700719">
			</amcharts:ammap>
	</defs>
	<path id="ES-AN" fill="#DAE4E5" stroke="#FFFFFF" d="M557.919,624.328l-0.021,1.353l-2.601,1.08l-0.93,2.135l-3.637,0.97
		l-4.628-5.686l-3.13-2.473l-2.812-0.509l-3.444,2.199l-2.854-1.901l0.739,0.76l-0.932-0.677l-4.755,1.374l-3.553,6.828
		l-1.437,1.543l-3.043,1.205l-4.037,0.126l-2.474-1.711l-2.008,0.739l-4.249-4.103l-3.065,1.017l-15.833-1.184l-4.883,1.122
		l-1.522,1.711l-3.171,1.46l-3.466-0.234l-2.41-1.521l-1.904,0.251l-2.662-2.093l-3.171-0.19l-1.163,1.227l-2.177-0.23l-0.804,0.972
		l-1.184-1.29l-1.014,0.57l-3.869-1.754l-7.018,2.009l-6.448-1.585l-2.092,1.731l-4.46,0.654l-8.371,0.236l-3.848-0.806l-1.226,1.12
		l0.083-0.822l-5.664,8.476l-1.268,1.288l-4.059,1.46l-1.903,3.846l-6.004,1.629l-6.277-1.543l-3.404,0.041l-5.41,3.3l-4.313,0.61
		l-4.27,2.517l-1.291-0.063l-2.431,2.811l-1.627,4.735l-3.911,5.583l-1.31,5.325l-1.48-0.084l-1.226-1.542l-2.261,0.231
		l-1.269,2.473l0.972,5.03l-1.944,1.46l-1.246-0.276l-6.977,3.362l-2.071-2.98l-2.452-1.311l-2.093,0.442l-3.213-1.965l-1.099,0.696
		l-3.635-4.757l-3.255-2.725l-6.85,0.169l-3.91-7.315l-2.199-0.824l-2.134-4.989l-2.114-1.921l-4.165-9.197l-0.147-0.719
		l0.739,0.211l-0.127,0.213l1.1,2.114l0.422-0.296l1.564-2.749l0.486-1.945l-0.528-0.97l-2.114,0.104l-1.945-2.684l-1.29,0.379
		l0.591-0.358l-0.845,0.508l-1.818-0.359l-2.093-1.354l-2.79-7.44l4.904-3.91l-2.346-1.374l-2.727-6.573l-4.736-5.644l-13.444-8.942
		l-5.876-2.707l-3.995-3.148l-0.973,1.059l-0.718-0.044l-5.687-2.601l-15.579,1.205l-2.093,1.669l-2.05-0.803l-0.635-3.51
		l-1.035-1.416l0.676-1.69l-1.184-2.642l0.064-5.73l-1.29-1.395l1.057-0.676l-1.394-3.656l0.359-1.247l-1.204-0.784l-0.445-1.775
		l-1.141-0.126l-0.698-2.219l0.888-0.424l0.211-3.256l2.875-3.129l1.945-7.904l1.585-0.485l5.37-5.454l1.121-4.059l1.5-2.136
		l-0.191-4.015l3.277-1.483l4.164-0.02l0.254-1.881l1.416-1.014l2.326,1.775l3.108-0.277l1.204-5.895l1.987-3.618l-0.803-0.441
		l0.063-1.078l1.945-2.432l0,0l4.904,2.198l2.917-0.083l-0.93,4.817l2.219-0.041l0.064,0.909l1.331,0.57l1.523-0.654l4.101,0.74
		l1.183-0.572l1.458,1.544l0,0l0.908,1.098l0,0l0.254,2.835l1.395-0.425l0,0h0.677l0,0l4.101,1.584l0.655-0.441l-0.338-1.269
		l1.544-1.227l-0.508-0.676l2.177-0.212l2.622,0.677l0.592,2.43l1.564,1.334l0,0l0.275,0.104l0,0l1.311,1.332l2.959,0.529
		l0.782,0.865l2.177-0.209l1.184,1.562l3.742-3.19l3.763-0.974l5.644,0.19l1.035-3.763l1.5-1.521l-1.205-1.544l0.169-1.204
		l2.621-1.967l0.169-1.668l1.5-1.186l2.981-0.209l1.035-0.806l1.458,0.358l1.649-1.183l2.41,1.121l0.084,1.544l-0.55-0.761
		l-0.656,0.358l0.55,1.142l-2.622,1.668l0.401,2.938l1.627,0.488l4.101-4.078l3.001,0.461l0.403-1.352l2.177-0.931l-0.317-1.606
		l0.741-1.396l0,0l0.212-0.103l0,0l0.083-4.228l-2.747-4.8l0.929-2.707l-1.564-1.5l0.063-1.162l2.136-3.51l1.521-0.972h2.029
		l0.276-1.521l3.909-2.643l0,0l-0.232-0.549l0,0l0.825-1.416l0.993,0.548l-0.465-1.056l1.311-2.178l3.593,0.359l-0.189-1.077
		l1.099-1.353l2.072-1.058l1.859-2.327l0.528,0.55l0.317-1.332l0.465,0.805l0.211-0.74l0.718,0.572l-0.021-1.124l0.993-0.103l0,0
		l0.084-0.169l0,0l-0.972-2.832l4.967,0.76l2.959-1.628l0,0l2.092,0.929l0.445,1.672l3.319,0.909l3.974-0.169l1.079,5.178
		l8.666,2.98l0.253,1.416l2.156,0.359l2.495,1.883l1.648,2.684l0.465-0.591l1.099,0.231l0.422,1.057l1.015-0.38l5.053,5.939
		l9.492,4.228l1.035-0.274l-0.528-2.389l0.782-1.459l7.694,1.523l12.409,0.801l3.403-0.421l1.417-1.332l0.402-1.67l1.416-0.424l0,0
		l1.057-0.338l0,0l2.41,0.824l0.571-0.738l6.595,2.241l1.543-0.806l0.338-3.171l0.804-0.146l1.796,0.674l0.442,2.37l3.468,0.801
		l2.537-0.634l2.77-2.493l-0.084-1.439l0,0l0.232-0.653l0,0l2.769-0.889l0,0l0.317,0.148l0,0l2.558,1.563l8.033,1.354l4.08-2.812
		l3.678,5.054l0.487-3.129l1.585-1.335l3.508,0.023l1.333,1.204l1.14-1.688l1.332-0.721l0.444,0.552l0.021-0.719l2.241-1.08
		l0.232-0.908l0.423,0.359l0.613-1.629l5.453,2.686l3.784-1.312l0,0h0.528l0,0l1.818,1.647l-0.232,5.582l5.158,1.312l-0.129,6.933
		l2.518,1.163l0.336,1.521l-1.033,3.551l0.422,2.283l-6.151,7.462l1.586,0.933l0,0h0.739l0,0l5.264,2.789l4.691,0.422l0,0
		l2.348,1.649l2.643,4.713l4.629,3.593l2.77-0.864l2.26,1.986l1.271-0.738l2.345,1.098l0.932-0.826l1.036,0.446l0,0l0.359-0.021l0,0
		l0.423,0.549l-1.206,1.669l-0.782,4.843l0.782,3.486l-0.993,1.945l0.655,3.466l0,0l0.38,0.401l0,0l8.624,13.954l2.072,1.52
		l-0.084-1.31l4.332,0.782l6.257,4.903l0,0l-2.831,1.481l-1.86,3.465l-5.264,5.71l-2.832,11.266l-2.961,5.727l0.276,2.898
		l-0.614,0.888h-1.922l-1.524,2.662l-1.33,0.275l-0.74,0.992l0.232,2.94l-2.261,1.078L557.919,624.328z"/>
	<path id="ES-AR" fill="#DAE4E5" stroke="#FFFFFF" d="M570.199,237.619l0.593,1.164l3.952-0.064l3.022,2.939l3.595-0.655
		l5.537,3.868l0,0l1.396,0.274l0,0l1.098-0.337l0,0l0.678-0.635l0,0l5.305,0.316l1.629-1.902l-0.212-1.035l2.517-4.651l1.964-1.965
		l-0.338-2.325l0,0l-0.59,0.063l0,0l-1.778-0.042l-0.824-2.581l-1.858-1.542l0.399-4.207l-1.416-3.044l1.461-4.165l-0.424-1.394
		l3.994-4.841l-0.295-1.269l-1.396-0.571l1.037-3.552l3.742-3.953l-0.721-3.762l1.354-2.621l2.029,1.12l1.204-0.528l0,0h0.296l0,0
		l0.085-2.261l2.515-1.67l-1.203-0.952l1.267,0.021l0.255-2.875l6.467,0.084l0.022-3.423l0.804-0.74l3.255-0.232l2.663-3.129
		l1.291,0.021l0.02-1.353l2.05-0.169l0.993-1.86l-0.718-0.972l0.234-3.721l2.112-1.669l0.17-2.664l1.985-1.501l3.319,0.148l0,0
		l-0.487,1.796l2.032,1.375l1.057-0.465l1.183,1.88l3.149,2.283l0.085,1.966l1.901-0.021l0.063,1.924l0.889,0.338l0.486-1.184
		l0.908-0.042l0.127-1.375l1.29-1.289l3.55,2.558l1.818-0.972l1.481,0.486l2.112-2.812l1.248,0.232l0.718-1.184l3.15,2.241
		l0.866-0.169l0.275,1.121l2.917,1.69l1.565-0.867l3.127,6.047l2.134,0.232l0.403,1.754l2.663,0.781l1.374-0.337l0.359-0.93
		l2.05,0.401l1.564-1.438l2.07,0.318l2.791-0.973l0.826-1.1l4.797,1.649l0.234,1.755l1.755,1.543l1.521-0.76l0.255-1.67l2.008-1.523
		l3.592,2.601l3.256-0.718l2.197,0.654l0.614-0.888l3.404,0.613l0.592-0.823l3.677,1.12l0,0l0.233,0.55l0,0l0.465,0.296l0,0
		l1.29,1.755l0.568,2.811l3.554,0.888l-1.46,5.179l0.528,0.803l-0.907-0.401l-0.762,0.95l-0.085,1.099l1.121,0.593l-1.438,1.394
		l-0.721-0.549l-0.634,0.676l3.131,7.821l-1.311,1.459l2.705,1.099l-1.713,1.164l1.375,1.162l-3.554,10.316l-0.251,1.269
		l0.972,0.676l-1.205,1.036l0.508,2.579l-1.839,5.476l-0.826,0.506v3.213l-0.696,1.29l-0.253-0.824l-1.142,0.38l-0.741,2.093
		l-1.035-0.444l-1.418,2.219l2.559,1.396l-0.654,0.147l-0.189,2.41l0.844,1.077l-1.522,0.655l-0.04,0.889l-1.396-0.043l-0.696,2.41
		l-1.712-0.042l-1.755,1.607l-0.888,2.727l-3.953,0.529l-0.191,1.965l-0.634-0.613l-3.361,4.672l-0.085,1.437l1.84,2.219
		l-0.444,2.453l3.002,0.507l1.521-0.698l1.102,4.523l-2.877,3.996l-3.19,0.444l0.739,2.558l-2.006,4.249l3.043,3.192l-1.481,1.881
		l1.206,0.909l-0.234,1.099l1.25,1.987l-0.446,3.192l-0.804-0.106l-0.125,0.993l-2.408,0.127l-1.524,5.01l-2.367,0.571l-0.359,1.5
		l-1.901-0.571l-0.719,0.845l0.021,3.023l1.078,0.19l0.634,2.05l-0.719,0.973l0.782-0.381l-0.021,0.952l0.782-0.424l1.9,1.502
		l-1.056,0.4l1.27,2.579l0,0l-0.108,0.572l0,0l0.722,0.464l-2.306,3.849l0,0l0.063,0.423l0,0l-0.824,2.261l2.199,4.714l-2.496,2.558
		l-0.315,1.479l-3.024,0.93l-0.105,1.016l-0.823-0.658l0.528,1.207l0,0l-1.311,1.098l-2.241-0.611l-3.891,2.684l0,0l-0.675-0.231
		l0,0l-0.677-2.136l0,0l-0.021-0.234l0,0l-1.141-0.359l0,0l-1.142,0.064l0,0l-2.305,0.192l-2.6-1.227l-2.03-1.818l-0.063-1.311
		l-2.979,0.105l-1.986,3.255l-0.34,3.764l-4.079,2.304l-1.29-1.46l-2.812,1.058l0.551,3.956l2.643,0.779l1.755-0.528l-0.401,7.209
		l1.374,1.185l0.252,1.691l-3.552,1.437l-0.738,1.142l3.445,4.142l0.315,1.651l-3.337,1.923l-1.587,2.621l-1.334-0.086l-0.632,0.866
		l0.992,2.284l-2.493,1.523l-3.805,1.159l-2.938-1.774l-2.008,8.562l-1.755,0.823l-1.057,1.734l0.761,2.451l-0.93-0.272
		l-2.896,2.239l-4.164-0.127l-1.544,3.89l-3.086,1.248l-0.127,3.994l2.368,3.17l-4.292,2.537l-2.431-1.839l0.636-1.331l-0.722-2.074
		l0.509-1.605l-0.93-1.88l-0.677,0.593l-3.19-1.799l-4.8,0.169l-1.163,0.805l-1.374-0.296l-0.444,0.782l-1.014-0.698l0,0
		l-1.331-3.065l0,0l4.692-1.924l0.696-0.993l-0.358-1.459l-4.037-3.257l-5.603-0.273v-2.156l-1.711-1.056l-0.932-2.219l0,0
		l-0.36-0.911l0,0l-0.062-0.674l-1.141,0.97l0.02,3.764l-0.95,0.423l0,0l-1.037,0.907l0,0l-1.311-0.634l-1.035,0.423l0,0
		l-0.636-0.379l0,0l-2.704-0.38l0,0l0.614-4.017l-2.029,0.866l-2.009-1.354l-1.819,0.951l-8.517-9.027l-1.734,2.453l-0.508-1.837
		l0.528-1.205l1.29-0.107l-1.396-1.586l0,0l-0.339-0.212l0,0l-2.812-3.549l-1.542-0.613l0.062-0.805l0.467-0.677l0.506,0.467
		l2.306-4.059l2.979-1.671l-0.529-3.551l0.529-3.042l1.1-1.185l4.312,2.218l3.002-2.557l-1.016-1.352l1.586-5.455l-1.394-3.888
		l1.14-1.586l0.147-2.665l-1.013-2.62l-0.952-0.192l-2.747-3.592l0.719-3.615l0,0l-0.529-1.248l0,0l-1.818-1.606l0,0l-0.654-1.037
		l0,0l-8.16-8.454l-2.96-0.993l-2.705-2.58l0,0l-0.718,0.212l0,0l-2.812-2.938l-5.37,1.796l0,0l-1.564-1.902l-3.742-0.93
		l-1.668-7.991l1.162-3.318L552,287.824l2.22-1.29l1.352-5.686l3.721,1.374l-0.465,2.41l0.847,0.908l5.179-1.753l0.062-1.036
		l-0.974-0.274l0.105-2.854l-1.585-1.881l0.825-4.546l-1.605-2.642l0.105-1.521l3.93,0.062l1.586-2.684l0,0l0.487-0.296l0,0
		l0.782-0.043l0.909-1.775l2.917-0.169l-0.19-1.795l2.113-2.918l-1.923-0.908l0.253-1.311l-2.875-2.727l1.923-2.896l0.107-2.029
		l-2.136-3.932l-0.105-4.861l0,0L570.199,237.619z"/>
	<path id="ES-AS" fill="#DAE4E5" stroke="#FFFFFF" d="M340.339,108.696l0.698,1.332l2.854,0.93l-0.485,1.121l1.246,0.76l0.656,1.861
		l4.524,0.909l-0.36,1.035l-0.676,1.121l1.354,0.169l0.486-0.677l0.993,0.613l1.628-1.247l1.458,0.803l4.334-0.381l1.289,0.655
		l5.052-0.845l1.078,1.966l0.931-0.72l4.46,0.338l4.565,4.862l5.285-0.823l6.342,2.071l5.032-0.317l2.979,1.543l2.029-0.254
		l0.211,0.994l1.268-0.465l6.744,2.495l4.397,0.972l6.129,0.105l0,0l0.064,1.037l-1.585,1.902l1.246,3.445l-0.296,2.685l-1.5,0.761
		l-0.254-1.395l-3.044-1.057l-1.5,2.536l-5.539,0.845l0.57,1.776l-1.014,3.678l-2.325-0.402l-1.881,0.803l0,0l-0.297-0.148l0,0
		l-1.289,0.169l0,0l-1.754-3.467l-2.431-0.824l-3.044,2.051l-1.839,2.938l-1.417-0.846l-3.086,0.275l-1.522,6.172l-2.198-0.084
		l-0.444-0.888l-3.404,1.67l0,0l-0.169,0.379l0,0l-6.638,0.762l-1.099-1.226l-1.437-0.042l-0.889,0.655l-0.401,2.896l-5.094-0.422
		l-0.804,2.643l-8.138-1.036l-3.192-1.818l-2.156,1.206l-2.261,4.354l0.169,1.269l-2.453,0.528l-2.094,0.063l-1.12-1.374
		l-1.607,0.042l0.169-1.057l-1.521,0.085l-2.495-2.135l-0.994-3.572l-2.663,0.781l-3.467-1.585l-0.993,3.446l-2.263,0.93
		l-2.281-2.156l-2.178,0.042l-0.741,2.896l-2.134-0.55l-1.163-1.501l-0.634,0.718l-1.797-0.379l-0.232-1.099l-1.565-1.057
		l-0.824,1.395l-1.353,0.254l0.233,1.374l-1.058,0.254l-0.697,2.325l-0.803-0.338l-0.507,0.887l-1.48-0.781l0,0l-0.381,0.042l0,0
		l0.275,1.965l2.22,0.275l-0.022,1.818l-2.43,0.506l-0.741,1.079l-1.247-0.635l-1.86,1.163l-3.911-0.93l-4.397,0.211l-2.007,0.423
		l-2.157,2.748l-0.76-0.085l0.105-1.268l-2.938-1.226l0,0l-0.973-0.973l0.296-2.452l-1.987-2.389l-2.156-0.063l-2.685-3.635
		l-0.106,3.128l-0.866,0.042l-1.438-1.966l0.91-1.627l0.93,0.529l-0.064-2.072l1.564-1.987l1.417,0.952l1.142-1.332h1.311
		l2.368-2.453l0.401-1.607l-1.923-2.241l-1.67,0.403l0.105,0.739l-3.107,1.944l-1.057-0.168l-1.353-2.41l0.887-1.775l-0.316-1.227
		l-1.733-0.339l-0.529-1.204l-0.635,0.718l-2.345-2.367l-0.55-1.881l0.571-2.833l-2.263,0.127l-1.733-2.135l0.126-3.234
		l-0.528-0.951l-1.248,0.697l-1.036-0.635l0.254-1.438l0,0l-0.212-0.591l0,0l0.021-1.987l3.996,0.212l0.804-2.22l1.965-1.374l0,0
		l1.311-2.007l-0.592-0.782l0.656-1.712l1.479,0.127l-1.416-1.163l0.126-1.184l3.107,0.275l1.269-1.163l0.443-0.529l3.15,0.424
		l0.739,0.908l1.417-1.035l2.473,1.289l3.741-0.93l1.226,1.416l0.804-1.142l2.029,0.275l2.769-0.972l0.465,0.803l0.866-0.296
		l0.212,0.887l3.255-0.062l0.507,0.803l3.487-0.254l0.17-1.712l2.431,1.417l1.903-0.571l2.367,0.72l5.686-2.136l0.677-1.31
		l1.332,1.225l1.014,0.465l0.825,0.676l1.585-0.359l2.601,1.121l5.559-2.622l1.374,1.227l2.22-0.529l1.078-1.184l1.311-1.014v-1.374
		l1.967-0.021l1.267-0.993l0.064-1.501L340.339,108.696z"/>
	<path id="ES-CB" fill="#DAE4E5" stroke="#FFFFFF" d="M487.527,144.821l-1.269-4.27l2.305-1.078l0.993,0.549l-1.162,2.22
		l0.063,2.219l0,0L487.527,144.821z M470.15,120.068l0.043,0.888l2.072-0.571l0.655,1.311l1.268-0.232l0.824,1.67l4.058,0.761
		l0.403,1.65l-1.691,0.359l1.585,2.155l1.015-0.654l2.579,0.633l2.452-0.591l-0.105,1.521l1.247-0.74l4.313,1.016l1.965,2.599
		l2.305,0.846l0,0l-0.232,4.101l-1.924,0.253l-1.057,1.164l-0.888-1.966l-3.086,1.48l-0.91-0.825l-1.585,0.613l-0.528-0.634
		l-0.423,1.776l-2.516,0.613l-0.886,1.882l-2.939,0.802l0.464,1.501l0,0l0.381,0.593l0,0l0.973,5.918l0,0l-4.248,0.02l-4.694-1.5
		l-1.733,0.19l-0.487-1.437l-2.198-0.93l-1.923,2.938l0,0l-0.042,0.359l0,0l-1.184,1.775l-2.79,1.205l-0.698,1.585H456.2
		l-1.48-0.718l0.338,3.847l-2.431-0.02l-1.395,2.071l-2.029,1.078l-2.093,5.348l0.951,1.755l2.473-0.276l-0.147,1.206l3.761-4.354
		l2.114,2.091l-2.05,2.305l-2.558-1.014l0.993,1.775l-1.754-0.021l1.48,0.634l-0.866,1.162l0,0l-0.085,0.444l0,0l2.325,0.698
		l0.485-2.854l1.586,0.761l1.226,3.467l-0.359,2.727l-2.367,0.973l-1.733-1.396l-1.014,2.854l-1.184-0.445l-2.706,1.185
		l-0.254-0.803h-0.972l-0.339-4.862l-0.887,0.93l0.296,0.952l-0.973,0.485l0.274,0.889l-1.184,0.591l0.169,1.269l-2.029,0.339
		l-1.016-2.305l-2.876,0.148l-1.922-1.608l-0.084-0.887l1.437-1.29l1.29,0.401l0.592-1.902l-1.289-1.079l-2.854,2.071l-1.417-0.95
		l0.148-4.186l-0.845-0.465l-0.128-3.149l-6.235-1.375l-3.087-4.798l-3.593-2.134l-0.866,1.732l-2.453-0.549l-2.177,2.135
		l-2.705-1.29l-1.862,1.479l-2.557-0.718l-3.044,0.423l-0.296-2.706l-1.332-0.021l-0.021-1.5l-3.784-2.114l-1.079-1.86l0.93-2.494
		l-0.971-1.29l0.718-0.655l0,0l1.29-0.169l0,0l0.296,0.147l0,0l1.881-0.803l2.326,0.402l1.014-3.678l-0.57-1.776l5.538-0.823
		l1.5-2.538l3.044,1.058l0.254,1.396l1.501-0.762l0.296-2.685l-1.248-3.445l1.586-1.902l-0.063-1.014l0,0l2.367,0.359l3.001-0.74
		l2.072,0.593l2.622-1.163l0.93,1.268l2.452,0.085l6.046-1.036l3.636-1.396l1.734-1.543l1.563,0.38l0.444-0.931l0.719,0.91
		l0.804-1.247l2.346,0.571l1.776-2.453l6.151-0.655l1.522-1.269l1.564,0.254l-0.127,1.099l1.332,0.825l-2.241,0.507l-1.902,1.5
		l-0.021,0.846l1.374,0.487l0.295,0.654l0.253,0.572l1.333-0.847l-0.74-0.867l0.782-0.083l0.296-1.248l1.543-0.148l0.72-0.635
		l0.718-1.162l1.944-0.126l2.453-1.839l1.796,0.126L470.15,120.068z M440.029,174.184l0.085-0.105l0,0h0.042l0,0l0.761,0.401l0,0
		l0.232,1.648l-0.719,0.508l-0.571-1.734l0,0L440.029,174.184z M436.752,174.458l0.317,0.338l0,0l-0.063,0.359l0,0l-0.634,0.254l0,0
		l-0.402-0.55l0,0l-0.084-0.212l0,0l0.043-0.168l0,0l0.21-0.084l0,0L436.752,174.458z"/>
	<path id="ES-CL" fill="#DAE4E5" stroke="#FFFFFF" d="M507.355,191.094l0.718,0.867l-1.078-0.423l0,0L507.355,191.094z
		 M504.375,191.39l-0.401,0.211l0,0l0.062-0.359l0,0l0.149-0.233l0,0l-0.042-0.253l0,0l-0.022-0.085l0,0l0.572-0.062l0,0
		l-0.043,0.422l0,0L504.375,191.39z M513.802,177.396l0.169-0.106l0,0l5.286-0.614l5.051,2.22l2.326-0.401l0.803,1.543l1.755-0.952
		l-0.888,3.023l-0.845,0.993l-0.636-0.295l-0.507,1.458l1.839,2.199l3.13-1.204l0.315,2.937l-1.775,0.571l-0.358-0.825l-4.672,0.149
		l-1.332-1.924l-2.6-0.127l-0.804,0.931l-2.833-0.317l-1.015-2.495l-2.263-0.803l-2.6-2.409l1.733-3.255l0,0l0.338-0.994l0,0
		l0.212,0.359l0,0L513.802,177.396z M436.308,174.416l0.444,0.042l0,0l0.191,0.084l0,0l0,0l0,0l0.126,0.254l0,0l-0.063,0.359l0,0
		l-0.634,0.254l0,0l-0.402-0.55l0,0l-0.084-0.212l0,0l0.043-0.168l0,0l0.21-0.084l0,0L436.308,174.416z M440.578,174.311
		l0.359,0.169l0,0l0.234,1.648l-0.719,0.508l-0.572-1.734l0,0l0.254-0.803l0,0h0.043l0,0L440.578,174.311z M283.899,167.144
		l2.938,1.226l-0.105,1.269l0.76,0.084l2.157-2.727l2.008-0.423l4.417-0.211l3.932,0.931l1.859-1.163l1.249,0.635l0.74-1.079
		l2.431-0.507l0.021-1.819l-2.199-0.274l-0.274-1.966l0,0l0.381-0.021l0,0l1.479,0.782l0.508-0.867l0.803,0.338l0.698-2.325
		l1.057-0.233l-0.232-1.374l1.353-0.232l0.824-1.396l1.565,1.079l0.232,1.099l1.797,0.38l0.633-0.718l1.162,1.5l2.136,0.55
		l0.74-2.896l2.177-0.021l2.283,2.156l2.283-0.929l0.993-3.425l3.467,1.585l2.664-0.782l0.993,3.572l2.495,2.135l1.521-0.085
		l-0.168,1.058l1.605-0.043l1.142,1.375l2.092-0.064l2.452-0.528l-0.169-1.269l2.263-4.354l2.156-1.205l3.191,1.839l8.139,1.035
		l0.803-2.642l5.095,0.423l0.401-2.896l0.888-0.655l1.438,0.042l1.099,1.226l6.638-0.761l0,0l0.168-0.381l0,0l3.404-1.67
		l0.444,0.889l2.219,0.083l1.523-6.173l3.086-0.274l1.416,0.867l1.84-2.938l3.043-2.05l2.431,0.846l1.755,3.466l0,0l-0.719,0.655
		l0.972,1.29l-0.931,2.494l1.079,1.86l3.784,2.114l0.021,1.501l1.333,0.042l0.295,2.707l3.044-0.424l2.559,0.72l1.86-1.479
		l2.706,1.289l2.178-2.134l2.451,0.549l0.868-1.732l3.593,2.134l3.086,4.799l6.235,1.373l0.128,3.151l0.845,0.465l-0.147,4.186
		l1.416,0.973l2.875-2.072l1.29,1.078l-0.591,1.902l-1.289-0.401l-1.417,1.289l0.085,0.889l1.923,1.628l2.875-0.148l1.015,2.305
		l2.03-0.339l-0.17-1.247l1.184-0.592l-0.274-0.888l0.971-0.486l-0.296-0.951l0.888-0.93l0.338,4.862h0.973l0.253,0.803l2.705-1.184
		l1.184,0.443l1.015-2.854l1.733,1.396l2.368-0.972l0.359-2.727l-1.227-3.467l-1.563-0.761l-0.486,2.854l-2.326-0.698l0,0
		l0.085-0.443l0,0l0.867-1.163l-1.48-0.634l1.755,0.042l-0.972-1.775l2.558,1.015l2.051-2.304l-2.115-2.093l-3.762,4.354
		l0.147-1.205l-2.473,0.275l-0.951-1.755l2.093-5.349l2.028-1.078l1.396-2.071l2.43,0.021l-0.316-3.847l1.501,0.74h3.783
		l0.698-1.585l2.79-1.205l1.184-1.776l0,0l0.043-0.359l0,0l1.924-2.939l2.197,0.931l0.487,1.438l1.733-0.19l4.692,1.501l4.249-0.022
		l0,0l9.427-5.051l1.797,2.071l3.128-0.465l1.375,0.888l-2.241,3.848l1.649,1.12l0.613-0.424l0.423,0.972l-1.291,1.819l0.953,0.548
		l-0.043,2.96l-2.009,0.612l1.797,1.164l4.798,0.317l1.417,1.712l-0.275,0.846l3.55,2.495l-2.262,2.346l-4.164,0.697l-3.255-1.458
		l0.126-1.269l-4.544-1.204l-3.487,5.305l4.058,4.333l0.551-0.105l-0.888-0.867l1.732-2.367l1.967,0.973l2.218-2.749l0.592,1.627
		l-2.875,5.285l1.944,1.206l-1.331,2.494l5.643-0.613l0.38,2.029l1.459-0.105l0,0v0.275l0,0l2.093,2.6l2.875-0.295l1.606,1.098
		l0.297,1.84l0,0l-0.128,0.148l0,0l0.614,1.479l1.775,0.804l0,0l-1.437,1.353l-0.762-0.529l-0.803,0.635l-1.964-1.522l-2.115,0.274
		l-1.29-0.739l-0.781,0.972l-3.764-0.677l1.354,4.038l0,0l-0.867,0.212l0,0l-1.648,2.515l-1.692,0.908l0.55,0.719l2.009-0.401
		l0.931,0.738l-0.234,2.009l-1.1,1.184l2.812,3.255l-0.952,1.67l0.381,4.206l-1.458-2.008l0.231-1.522l-1.289-0.042l-0.233,2.367
		l1.184,0.043l1.227,1.924l-2.663,0.697l0.465,1.797l0,0l0.337,0.254l0,0l-0.655,0.972l0.994,5.222l-0.824,2.515l-1.437,1.227
		l5.496,8.581l5.539-0.167l1.247,3.762l0,0v0.613l0,0l1.839,1.776l1.755-1.648l2.537-0.508l0.888-5.009l0,0l0.146-0.529l0,0
		l1.016-1.184l1.269,0.486l0.93-0.55l1.627,1.649l-0.147,1.543l-2.707,3.954l0.657,1.796l2.389-0.444l1.731,1.395l2.812-0.74
		l2.496,0.825l1.901-4.354l1.883-1.353l0.105-3.445l1.626,0.549l1.629-0.655l0.973-1.607l6.911-0.634l2.22,1.057l0.805,3.276
		l1.901-1.078l6.172,0.338l-0.064,1.458l-1.837,1.057l3.043,4.715l-0.76,0.655l0.485,2.621l5.644,1.374l0,0l0.339,0.338l0,0
		l1.564,1.521l1.058-0.063l6.15-3.679l0,0l0.086,4.841l2.134,3.932l-0.105,2.051l-1.924,2.875l2.876,2.727l-0.254,1.311l1.921,0.93
		l-2.112,2.896l0.191,1.797l-2.896,0.17l-0.91,1.795l-0.782,0.042l0,0l-0.485,0.296l0,0l-1.565,2.685l-3.952-0.063l-0.105,1.521
		l1.585,2.643l-0.804,4.545l1.586,1.903l-0.104,2.854l0.972,0.275l-0.063,1.057l-5.181,1.733l-0.844-0.91l0.465-2.409l-3.74-1.375
		l-1.354,5.688l-2.219,1.31l0.379,1.543l-1.183,3.319l1.671,8.011l3.739,0.93l1.566,1.902l0,0l-0.636,2.537l0.93,2.706l-0.528,0.698
		l-4.395-3.806l-2.453,2.58l-3.001-1.015l-1.734,2.156l-1.711-0.254l-1.777,1.057l-1.922-2.199l-3.553,2.136l-0.76-1.121
		l-2.157-0.38l-0.803-2.833l-1.544-0.337l-0.465-2.156l-1.163-0.973l-2.156,1.712l-1.204-0.803l0.888-2.177l-2.432-0.486
		l1.629-1.036l0.21-1.923l-2.282,0.655l-0.949-1.796l-3.596-0.867l-0.507-1.67l-2.515,0.062l-0.931,1.438l-2.367-0.232l-2.707-1.29
		l-0.232-3.298l-2.156-0.804l-1.923,0.994l-0.612,1.628l-3.911,0.274l-2.473,1.141l-7.209-2.261l-2.685,0.824l-1.226,2.769
		l-1.036-1.331l-1.035,1.374l-1.883-0.252l-0.696,0.696l-3.34-0.359l-1.099-1.141l0.888,2.135l-0.253,2.431l-2.304-0.127
		l-1.247,2.368l-2.326,1.015l0,0l-0.507,0.486l0,0l-0.128,0.105l0,0l-0.654-0.21l0,0h-0.655l0,0l0,0l0,0l-2.876,0.379l-2.431,1.734
		l-2.6,3.995l-3.615,2.22l-2.325,3.973l-6.468,2.601l-1.67,2.917l-0.93,0.189l-2.366,10.569l-2.833,0.444l-2.431-0.888l-1.543,3.361
		l-3.678,4.504l0,0l-1.333-0.656l0,0l-0.845,0.23l0,0l-3.043,0.488l-1.269,0.995l0,0l0,0l0,0l-0.888-0.318l-1.628,1.078
		l-0.104,1.269l0,0l-0.805,0.804l2.496,0.698l0,0l0.698,1.858l-0.635,2.918L428.107,349l-0.339,1.141l0.677,5.221l-1.437,2.178
		l1.078,1.964l-5.75,0.316l-1.184,1.544l0.211,2.771l-1.267,0.698l0.358,1.605l-2.704,0.317l-1.438-2.179l-1.142,0.191l1.015,3.675
		l-2.262,2.603l0.507,2.602l-1.099,0.57l0,0l-3.658,1.415l-2.219-0.759l-0.382-3.151l-0.908-0.824l0.338-1.607l-2.346,0.656l0,0
		l-1.184,0.824l0,0l-2.557-1.058l-0.783,1.63l0.57,1.499l-3.761,2.642l0,0l-0.169,0.382l0,0l-2.705,1.86l-0.318,2.601l-3.974,1.775
		l0,0l-0.548,0.169l0,0l-0.656-3.679l-2.832,0.612l-1.206,1.967l-0.613-0.233l-2.368,2.643l-1.69,0.445l-1.797,0.253l-0.571-1.776
		l-2.896-0.252l0,0l-0.381-0.086l0,0l-2.198,0.233l0,0l-1.269-0.383l0,0l-0.804-0.461l0,0l-1.86-3.597l-0.106-4.037l1.543-3.465
		l-4.882,0.759l-2.453,3.235l-1.48,0.718h-3.044l0,0l-0.464-0.148l0,0l-0.697-0.444l0,0l-0.868-0.443l0,0l-1.67-0.358l-0.422-2.114
		l-1.649-0.315l-0.444-1.504l-1.902-1.626l-2.685-0.149l-1.543,1.017l-1.565-0.446l-0.613-0.801l1.037-1.902l-1.458-2.812
		l-4.841,2.98l-1.458,3.086l-3.298-1.057l0,0l-0.593-0.402l0,0l-1.563-1.119l0,0l-0.254-0.379l0,0l0.127-1.565l-5.031-1.247
		l1.269-0.616l-0.211-1.013l0.74-0.592l-0.656-0.319l1.036-0.38l-1.12-0.78l0,0l-0.274-0.107l0,0l-2.156-1.015l0.696-1.499
		l-1.648,0.441l-0.761-1.668l-4.185-2.198l-6.765,3.934l0,0l-0.803,0.823l0,0l-0.381,1.501l-2.812,0.293l-1.31,2.072l-1.396-0.083
		l-4.694,2.367l-0.972,1.628l0.338,2.198l-1.733,1.544l-4.418,0.442l-1.564,1.608l-1.48-2.028l-2.219,2.218l-1.628-0.718l0,0h-1.015
		l0,0l-0.211,0.549l-1.607-0.38l-1.838-1.565l0,0l0.232-2.326l3.996-2.45l0.613-2.557l-3.15-3.382l-0.656-2.981l2.938-4.735
		l-0.296-2.897l-2.388-1.395l2.769-6.891l-2.03-6.996l0.826-3.995l-0.571-2.813l1.458-0.274v-1.101l-0.465-1.691l-2.219-1.437
		l-0.635-3.679l-3.593-3.953l-0.613-1.965l0.952-0.697l3.149,0.867l2.959-0.718l3.001-4.884l-0.761-2.41l4.038-3.763l0.444-2.072
		l2.431-2.875l2.812,0.232l0.549-0.823l0.973,1.225l2.98-2.791l0.592,0.825l1.078-0.274l0.803-0.635l-0.529-1.099l2.368-0.697
		l1.817-3.636l2.178-0.867l-0.909-0.76l0.169-1.184l1.247-0.655l0.952,1.12l1.987-0.634l-0.91-1.818l2.114-1.755l-0.507-1.268
		l6.574-9.491l-0.782-1.755l-1.67-0.698l-3.572-4.058l-8.456-1.966l-0.803,1.247l-2.41,0.847l-2.853-2.241l0.084-2.939l-1.12-1.585
		l3.023-9.575l-3.171-1.121l1.437-3.678l-2.389-2.622l-1.839,1.987l-4.524,0.571l-2.98-0.698l-1.353-3.276l-1.585-0.444
		l-1.733,3.615l-6.553-0.042l-0.825-1.775l-1.374-0.423l0,0l-0.317-1.648l1.563-2.473l-0.782-2.136l-1.945,0.191l-1.352-1.839
		l1.69-0.825l0.91-2.896l2.049-0.571l0.486-3.34l2.494-1.332l0.866-1.902l2.41-0.931l2.664,1.501l0.127-1.184l0,0l-0.296-0.634l0,0
		l3.425-5.01l0.317-4.819l-1.902-0.592l-0.825-1.163l-2.261-0.359l-1.227-1.375l0,0l0.043-0.169l0,0l1.394-1.606l-0.401-1.945
		l0.867-1.099l-0.888-2.029l-1.797,0.506l-4.312-2.62l-1.755,0.252l-0.845,1.861l-3.615-0.994l0,0l-1.057-0.084l0,0l-1.164-0.063
		l0.953-1.67l-0.359-1.86l1.775-2.389l-0.803-0.973l0.085-2.557l2.431-1.185l-2.199-4.036l1.924-2.22l2.219-0.147l0.74-2.261
		l1.417,1.035l3.932-3.635l-0.106-1.121l1.565-1.67l-1.67-3.932l2.114-0.612l-0.381-1.924L283.899,167.144z"/>
	<path id="ES-CM" fill="#DAE4E5" stroke="#FFFFFF" d="M430.537,339.359l1.269-0.973l3.044-0.464l0,0l0.867-0.231l0,0l1.332,0.655
		l0,0l-0.803,1.649l0.761,3.275l-3.932,1.481l0,0l-0.951,0.081l0,0l-0.951-0.272l-0.465-1.651l-1.1,0.022l0,0l-2.495-0.677
		l0.804-0.783l0,0l3.573-0.21L430.537,339.359z M472.836,302.304h0.655l0,0l0.655,0.211l0,0l0.126-0.104l0,0l0.529-0.487l0,0
		l2.325-0.993l1.247-2.367l2.305,0.126l0.253-2.43l-0.889-2.136l1.12,1.142l3.34,0.36l0.698-0.698l1.902,0.253l1.036-1.374
		l1.036,1.353l1.224-2.769l2.686-0.825l7.208,2.263l2.473-1.142l3.912-0.275l0.612-1.627l1.924-0.994l2.156,0.803l0.232,3.297
		l2.705,1.29l2.367,0.233l0.932-1.438l2.515-0.063l0.508,1.669l3.594,0.889l0.95,1.797l2.285-0.655l-0.212,1.923l-1.629,1.037
		l2.432,0.486l-0.89,2.176l1.206,0.803l2.156-1.711l1.162,0.972l0.466,2.156l1.544,0.337l0.802,2.833l2.155,0.38l0.763,1.121
		l3.551-2.136l1.924,2.199l1.775-1.057l1.713,0.254l1.754-2.156l3.003,1.035l2.45-2.578l4.396,3.804l0.528-0.698l-0.929-2.705
		l0.634-2.536l0,0l5.369-1.776l2.812,2.938l0,0l0.719-0.211l0,0l2.706,2.579l2.958,0.993l8.16,8.479l0,0l0.655,1.013l0,0
		l1.839,1.606l0,0l0.528,1.247l0,0l-0.718,3.614l2.746,3.617l0.953,0.19l1.016,2.621l-0.149,2.664l-1.142,1.585l1.396,3.911
		l-1.585,5.433l1.014,1.353l-3.002,2.557l-4.312-2.218l-1.098,1.182l-0.508,3.067l0.527,3.53l-2.98,1.669l-2.303,4.059l-0.485-0.465
		l-0.487,0.675l-0.064,0.785l1.544,0.611l2.812,3.55l0,0l0.359,0.214l0,0l1.396,1.607l-1.291,0.103l-0.527,1.206l0.507,1.819
		l1.731-2.454l8.521,9.028l1.838-0.953l2.009,1.354l2.03-0.868l-0.635,4.018l0,0l-0.022,1.479l2.517,1.818l-0.592,0.571l2.579,5.75
		l5.623,0.718l0,0l0.106,0.213l0,0l1.521,0.485l4.757-1.204l0,0l1.331,3.064l0,0l-3.635,1.585l-0.381,1.227l0.824,1.48l0,0
		l-0.189,0.93l0,0l-0.973,7.082l-3.384,5.114l0.741,2.961l-0.931,1.437l-2.029,0.612l0,0l-1.543-0.739l0,0l-1.649-0.611
		l-1.964,1.667l-3.363,6.638l-3.296,2.008l1.015,0.191l0.211,3.466l-0.739,0.339l0.506,1.33l-0.569,1.482l-0.868,0.318l0.485,1.711
		l1.335,0.212l0,0l-0.424,0.507l0,0h1.268l-0.38,1.372h1.289l-0.551,0.677l0.804-0.442l0,0l0.148-0.128l0,0l0.402,1.288
		l-0.825,0.022l1.057,0.38l-0.105,1.014l0,0l-0.253,0.129l0,0l1.415-1.036l0,0l0.128,0.338l0,0l0.126,0.698l0.129-1.354l1.457,0.338
		l-0.613,0.656l1.416,0.105v0.931l0.993-0.083l1.777,1.626l0.484-0.613l0,0l0.38,0.107l0,0l1.988,0.738l0,0h0.339l0,0l1.183,0.149
		l0,0l0.339,0.169l0,0l1.924,0.739l0.677-0.697l2.621,1.437l-1.1,7.08l-4.206,7.655l-0.444,4.459l2.134,1.584l4.715,7.061
		l6.363-0.399l1.859-1.143l2.367,0.424l0.636,2.515l1.394,1.245l-0.675,2.751l0.739,2.345l-0.295,2.876l-1.903,0.888l2.643,5.6
		l-2.728,2.898l-3.679,0.062l0,0l-5.156-4.036l-0.212-2.008l-3.847-1.185l-2.896,0.908l0,0l-0.698,0.338l0,0l-5.368,4.397
		l-1.375-1.944l-1.078,0.381l-3.614,3.572l-0.211,4.925l-2.008,1.417l-0.572,1.987l0.995,3.825l0.104,7.862l-6.385,4.777
		l-4.563-0.04l-1.29-2.115l0,0l-0.021-0.297l0,0l0.549-1.098l-1.077-1.058l-0.952,0.803l-1.521-1.268l-1.46,0.127l-0.063,0.974
		l-1.416-0.276l0.657,0.973l-7.189,4.271l-4.207,1.183l-3.74-1.795l-1.035,0.781l0,0l-0.762,1.396l0,0l-2.008,2.832l-5.666,2.473
		l-3.127,6.952l-3.615,3.003l-0.572,2.98l0,0l-4.691-0.421l-5.264-2.791l0,0h-0.74l0,0l-1.585-0.929l6.151-7.464l-0.424-2.282
		l1.059-3.553l-0.318-1.52l-2.516-1.164l0.127-6.932l-5.156-1.312l0.23-5.581l-1.816-1.648l0,0h-0.528l0,0l-3.784,1.312
		l-5.455-2.687l-0.611,1.629l-0.423-0.361l-0.232,0.91l-2.241,1.078v0.719l-0.444-0.549l-1.331,0.718l-1.142,1.69l-1.332-1.202
		l-3.509-0.024l-1.585,1.332l-0.487,3.13l-3.677-5.054l-4.081,2.812l-8.032-1.352l-2.557-1.565l0,0l-0.318-0.126l0,0l-2.769,0.888
		l0,0l-0.231,0.654l0,0l0.084,1.438l-2.769,2.495l-2.537,0.633l-3.467-0.803l-0.444-2.367l-1.797-0.654l-0.802,0.148l-0.34,3.17
		l-1.543,0.801l-6.594-2.239l-0.57,0.74l-2.41-0.825l0,0l-1.056,0.338l0,0l-1.417,0.423l-0.402,1.672l-1.417,1.331l-3.403,0.424
		l-12.407-0.806l-7.694-1.521l-0.783,1.46l0.529,2.389l-1.036,0.274l-9.492-4.229l-5.053-5.941l-1.014,0.382l-0.718-1.141
		l-1.099-0.231l-0.465,0.591l-1.627-2.685l-2.495-1.883l-2.155-0.359l-0.254-1.416l-8.667-2.981l-1.078-5.176l-3.974,0.169
		l-3.32-0.91l-0.444-1.649l-2.092-0.908l0,0l3.319-0.909l3.15-9.026l1.119-1.649l3.804,0.298l0.931-3.954l-4.186-1.9l-0.973,0.252
		l-2.323-7.229l4.861,1.883l2.389-0.911l0,0l0.191-0.105l0,0l0.359-1.184l-0.995-0.699l0,0l-0.591-0.23l0,0l-1.099-2.073
		l1.965-4.479l0,0h0.402l0,0l1.437-2.56l3.997,0.426l5.199,2.048l-3.382-3.298l-0.339-2.536l-1.057-0.611l-1.626-5.054l3.064-0.613
		l0.127-2.686l2.028-4.395l-1.162-1.946l-2.812,2.072l0,0l-0.444,0.19l0,0l-1.712,1.672l-3.276,0.631l0,0l-0.127,0.149l0,0
		l-2.05,1.395l-4.629-1.775l-6.173-6.933l-1.691-0.38l-4.144-5.095l0,0l-0.972-0.867l0,0l-1.713-2.029l2.643-3.299l0,0l-0.021-0.695
		l0,0l1.226-4.671l-1.987-2.94l0.824-0.484l-0.444-3.046l-2.261,0.253l-2.685,3.363l-3.107-0.528l-0.232-5.095l1.543-2.6l-2.367-2.2
		l-4.672,1.079l2.39-7.885l-0.212-8.646l1.775-1.245l0,0l0.401,0.166l0,0l1.269,0.382l0,0l2.198-0.233l0,0l0.38,0.085l0,0
		l2.896,0.254l0.571,1.776l1.797-0.255l1.691-0.443l2.367-2.644l0.613,0.233l1.205-1.964l2.833-0.615l0.656,3.677l0,0l0.549-0.147
		l0,0l3.974-1.775l0.318-2.6l2.705-1.859l0,0l0.169-0.38l0,0l3.784-2.643l-0.57-1.503l0.781-1.627l2.559,1.057l0,0l1.184-0.825l0,0
		l2.346-0.653l-0.338,1.605l0.909,0.823l0.38,3.15l2.22,0.761l3.656-1.414l0,0l2.813,1.269l0.908-1.269l4.48-1.566l0.148-1.605
		l2.959-2.219l0.296-2.222l1.268,0.785l0.401,5.284l0.953-0.063l0.655,0.972l0.781-0.614l0.55,1.059l1.438-1.079l1.309-2.96
		l3.32-1.689l2.77,2.324l-0.084,1.374l2.451,0.275l1.734-1.754l2.79,1.245l-0.105,1.015l1.966,1.966l2.198-0.273l0.232,1.775
		l1.079-1.078l0.931,0.949h2.24l2.304,2.222l1.627-1.205l2.072,2.876l1.607,0.463l1.289-1.076l1.86,1.118l1.226-0.779l0.274,0.969
		l3.151,1.629l-0.824,4.019l-3.7,3.045l-0.929-0.318l-0.762,2.364l-1.29,0.616l0.296,0.634l0,0l0.465,0.146l0,0l-0.231,0.508
		l-1.333-0.59l0.317,1.057l-0.697,0.55l0.105-1.396l-1.458,1.414l-1.353-0.612l-1.374,1.861l-0.423-0.868l-1.099,0.21l-1.142,0.891
		l0.423,0.593l0,0l-0.043,0.296l0,0l0.444,0.992l3.51,1.33l2.411-2.408l0,0l0.401-0.233l0,0l0.74-1.479l2.008-1.078l0.74,0.466
		l4.081-1.459l-0.655-1.563l0,0l0.866-0.211l0,0l1.627-1.691l3.932-0.571l0.824-2.071l2.093,0.571l1.247-0.635l0.106,0.908
		l1.268-0.698l1.649,0.824l1.247-1.478l-0.104-1.501l2.536-0.465l1.733,2.115l1.586,0.398l0.529-0.697l3.592-0.21l0.804-1.671l0,0
		h0.147l0,0l1.079-0.676l0.359,1.967l2.283,0.231l2.029-0.761l1.859-2.539l-2.431-2.663l0.38-1.604l1.163,0.443l-0.994-2.368
		l0.424-2.833l-1.184-3.679l-0.761-0.822l-2.198,1.648l-1.269,2.24l-1.29-0.992l0.846-4.799l2.282-2.898l-0.655-1.33l1.269-2.769
		l-1.417-2.602l-2.474-0.21l-0.146-5.434l-1.818-1.901l-1.904,0.189l0,0l-0.316,0.17l0,0l-1.437-0.085l0.718-2.58l-2.684-1.923
		l0.528-1.226l-0.93-0.993l0.783-0.424l0,0l0.084-0.846l0,0l0.338-0.762l-1.353,1.165l-1.395-0.697l-0.402-2.411l-1.205-1.037
		l-0.676,1.651l-1.015-0.867l-1.035,0.465l0,0l-0.064-0.233l0,0l-1.353-0.868l1.861-3.001l-0.931-0.611l0.212-1.967l0,0v-0.233l0,0
		l-1.016-1.373l-2.684-0.318l2.453-4.123l-0.339-1.691l1.839-1.183l-1.1-1.944l0.993-0.021l1.566-6.111l1.162-1.035l-2.494-3.107
		l0.76-2.981l-3.656-0.888l-1.205-3.148l-1.712-0.994L472.836,302.304z"/>
	<path id="ES-CN" fill="#DAE4E5" stroke="#B6D6D8" stroke-width="2" d="M697.089,677.845l1.216,0.491l1.04,2.195l-1.668,2.077
		l-0.666,2.316l-1.587,0.763l-1.119,4.785l-1.688-0.609l-2.175-2.566l-5.059-0.648l-0.804-0.687l0.314-2.452l1.058-0.88l2.863,1.019
		l2.353-0.549l2.549-2.295l-0.235-1.312L697.089,677.845z M830.786,657.944l0.98,0.903l-0.332,1.979l-0.551-0.805l-0.628,0.451
		l0.98,2.393l-0.472,2.411l2.473,3l0.293,1.097l-0.883,1.452l1.354,1.961l-1.373,0.509l-0.489,2.139l0.471,1.939l-1.568,0.726
		l-0.707,2.432l-6.548,2.335l-1.097,1.803l-1.511,0.157l-3.176-1.354l-0.784,0.45l-6.001-5.097l-2.47-4.529l0.55-6.255l1.939-0.45
		l3.51-2.921l1.256-4.864l-0.647-0.94l1.392-0.254l0.844,0.704l1.567-0.823l1.941,1.668l3.981-0.646l3.215,1.725l1.548-0.688
		l-0.234-1.706L830.786,657.944z M731.853,655.847l0.744-0.157l0.884,1.04l2.566,0.039l0.647,1.216l3.45,1.646l0.823,1.452
		l0.119,2.176l-3.648,3.45l-1.608,0.667l-3.802-0.119l-2.627-2.019l-0.078-1.059l-1.471-1.334l0.195-3.253l1.275-2.727
		L731.853,655.847z M759.123,646.161l1.903-0.039l2.804-1.548l3.764,0.471l2.804-1.53l2.138-0.041l4.312-4.057l1.021-2.372
		l1.49-1.196l2.49-0.551l0.704-1.352l5.333,0.784l3.472-1.371l1.372,0.449l0.667,1.313l-0.295,1.668l-5.861,2.725l-0.901,1.901
		l-5.784,4.568v4.394l-3.432,6.174l-0.078,3.354l-6.413,7.411l-2.607-0.255l-2.567,1.53l-3.058-0.04l-0.53-2.549l-1.411-0.55
		l0.037-1.763l-2.253-2.08l-3.098-5.214l-0.217-3.471l-2.979-4.079l-1.492-0.567l0.393-1.176l4.509-1.923l1.295,1.001
		L759.123,646.161z M912.172,623.123l3.039,2.667l0.745,7.273l-1.116,5.353l-1.294,1.433l0.804,5.273l-2.274,4.216l-0.079,2.195
		l-1.077,2.118l-1.452,1.373l-2.256,0.057l-1.351,1.257l-11.038,2.567l-6.039,7.274l-7.666-2l-1.766,0.704l0.901-2.705l0.53,0.609
		l2.156-0.04l3.921-1.038l7.705-5.648l1.118-6.9l2.196-2.529l0.823-4.255l2.824-2.803l3.136-6.394l-0.236-1.47l1.609-3.627
		l-0.431-2.391L912.172,623.123z M697.853,617.084l2.805,1.471l2.608-0.783l1.686,0.314l1.451,4.116l1.41,1.804l-2.469,4
		l1.099,3.156l-0.512,3.234l-4.353,7.117l-1.451-1.216l-0.646-4.057l-2.43-3.393l-2.922-7.862l-1.411-1.901l0.098-1.628l2.039-2.607
		L697.853,617.084z M934.994,594.637l2.236,1.116l0.195,1.47l-0.45,1.825l-1.923,1.606l0.902,2.45l-0.979,1.941l0.059,2.274
		l-1.118,1.55l-2.725,1.43l-0.569,1.04l-2.626,0.217l-2.451,1.804l-4.941,0.744l-2.744,4.136l-0.746-1.214l-3.822,0.215
		l-0.471-1.901l2.783-2.567l-0.216-3.667l0.98-2.687l3.235-2.705l2.489-0.079l3.02-2.626l0.962,0.449l1.687-1.215l2.881,1.039
		l1.217-1.412l1.508-4.705l1.373-1.197L934.994,594.637z M932.74,590.753l1.861,1.628l-1.703,2.372l-2.1,0.333L932.74,590.753z"/>
	<path id="ES-CT" fill="#DAE4E5" stroke="#FFFFFF" d="M856.097,227.705l0.868,1.586l1.711,0.783l2.475,2.832l-0.866,1.819
		l0.021,3.001l-0.572-0.085l1.334,2.621l1.203,0.318l0.17,1.501l-0.889,0.613l-0.464,3.128l-1.5,1.057l-0.296,1.521l-1.479,0.444
		l-1.121,1.585l-1.714-0.252l-3.338,5.115l-3.891,1.67l-2.41,3.212l-6.805,2.114l-1.502,1.141l-0.803,1.967l-14.017,6.024
		l-8.538,5.644l-6.259,2.642l-4.31,5.666l-0.826,0.528l-1.184,2.938l-1.522,2.685l-1.776,1.416l-5.348,1.692l-5.031,0.253
		l-3.571,1.902l-3.024,0.043l-4.164,1.332l-13.357,3.065l-6.574,3.572l-5.58,0.38l-3.066,1.945l-0.063-0.613l-2.05,0.76
		l-2.113,3.403l-2.578-1.5l-4.397,0.782l-3.722,1.796l-7.207,7.146l-3.996,6.11l-2.305,1.52l-0.592,1.754l-2.345,1.439l1.752,2.686
		l2.96,0.103l-2.283-1.711l1.605-0.085l3.595,4.438l3.784,0.953l-2.873,3.085l-5.139,2.706l-4.733,6.067l-2.855,0.444l-0.549-1.27
		l-0.085-1.204l2.283,1.522l0.698-0.488l-1.078-0.718l3.721-0.591l1.816-3.278l-2.958-0.421l-1.776,1.142l-3.552,0.337l-0.484,0.426
		l-3.13,3.676l-1.417,3.384l0,0l-4.354-1.863l0.274-2.305l-2.367-1.836l-3.573-0.445l-3.361-1.565l-0.844-1.183l1.162-3.445l0,0
		l-0.424-0.169l0,0l-0.169-0.19l0,0l-0.569-0.569l0,0l-1.334,0.169l0,0h-0.314l0,0l-0.658-2.391l-1.627,0.636l-1.585-0.741l0,0
		l-0.528-1.227l0.824,0.678l0.107-1.014l3.001-0.909l0.316-1.481l2.517-2.558l-2.198-4.692l0.823-2.283l0,0l-0.062-0.423l0,0
		l2.303-3.846l-0.696-0.467l0,0l0.085-0.569l0,0l-1.27-2.558l1.056-0.403l-1.88-1.521l-0.782,0.422l0.021-0.95l-0.782,0.402
		l0.72-0.995l-0.636-2.029l-1.077-0.211v-3.023l0.718-0.845l1.903,0.549l0.359-1.48l2.368-0.57l1.522-5.01l2.41-0.127l0.126-0.994
		l0.824,0.106l0.443-3.192l-1.247-1.987l0.233-1.099l-1.205-0.908l1.479-1.903l-3.045-3.17l2.009-4.249l-0.718-2.538l3.19-0.464
		l2.876-3.974l-1.101-4.545l-1.521,0.698l-2.98-0.507l0.443-2.452l-1.839-2.221l0.085-1.436l3.34-4.672l0.634,0.634l0.191-1.965
		l3.953-0.528l0.888-2.707l1.755-1.628l1.732,0.064l0.697-2.432l1.396,0.064l0.043-0.887l1.521-0.656l-0.825-1.099l0.191-2.411
		l0.655-0.147l-2.558-1.396l1.415-2.219l1.036,0.444l0.74-2.093l1.141-0.38l0.274,0.824l0.698-1.311l0.021-3.192l0.805-0.506
		l1.838-5.476l-0.506-2.6l1.203-1.015l-0.973-0.677l0.255-1.268l3.551-10.336l-1.352-1.163l1.712-1.163l-2.705-1.1l1.311-1.458
		l-3.13-7.821l0.613-0.677l0.718,0.571l1.46-1.395l-1.121-0.592l0.085-1.12l0.762-0.952l0.907,0.402l-0.549-0.803l1.48-5.179
		l-3.553-0.888l-0.569-2.832l-1.29-1.733l0,0l-0.443-0.296l0,0l-0.234-0.529l0,0h0.825l0.359-1.353l-1.077-3.191l-1.206-0.423
		l1.417-1.585l-1.246-0.592l1.457-1.712l-0.655-2.6l2.877-1.819l3.889,1.967l1.5-0.274l3.107,1.077l4.037,2.918l1.966-1.291
		l1.374,1.501l3.571,0.443l1.903-0.592l2.854,2.643l0.274,2.051l2.052,1.543l3.529-1.5l1.312,0.992l5.918-0.316l-0.317,1.247
		l2.093,1.078l0.041,1.586l1.46,1.099l0.338,2.325l1.396,1.711l-0.952,1.628l0.993,1.206l-1.712,2.324l2.071-0.275l1.037,2.283
		l-2.792,2.114l1.248,0.655l0.422,2.938l5.877,0.401l0.678-1.902l1.014,0.634l1.1-1.416l3.382,0.02l0.804-2.875l1.881,1.057
		l1.228-0.888l2.239,1.142l2.239-0.318l2.052,0.698l2.41,2.557l3.086-0.295l0.254,1.775l1.035,0.613l0.401,3.108l3.045,2.642
		l3.974-1.099l0.466-1.184l1.353-0.508l0.486-2.007l1.754-1.057l2.643,0.613l3.191-1.734l2.113,1.205l1.332-0.275l2.053,1.628
		l4.628,0.909l0.084,1.374l2.728,2.749l3.404,0.528l0.738-1.564l1.311-0.359l5.475,1.374l0.149-1.438l-1.27-2.219l1.036,0.042
		l0.148-1.289l2.514-1.291l2.242-0.401l1.312,1.057l2.812-2.114l0.718-1.522l1.142,0.359l0.739-1.014l2.622,0.845l1.689-2.007
		l1.142,1.289l4.187-0.613l2.664,3.72l1.965-0.93l2.198,0.74l0.571,0.867l-1.016,1.859l0.149,0.973l0.443,1.543l1.373,0.676
		l0.422,1.248l1.946-1.206l1.331,1.627l0.951-0.781l1.122,1.142l2.069,0.444l-2.029,1.225l0.722,1.458l-1.291-0.147l0.612,1.607
		l-0.507,0.951l-1.457,0.021l0.549,1.184l-2.029-1.036l-0.55,1.501l-2.198-1.1l-0.613-1.437l-1.883,1.29l-1.311,3.297
		L856.097,227.705z"/>
	<path id="ES-EX" fill="#DAE4E5" stroke="#FFFFFF" d="M281.468,370.073l1.839,1.586l1.606,0.359l0.211-0.529l0,0h1.037l0,0
		l1.627,0.698l2.22-2.218l1.5,2.028l1.543-1.63l4.44-0.441l1.732-1.523l-0.337-2.219l0.993-1.628l4.672-2.365l1.417,0.081
		l1.31-2.069l2.812-0.296l0.381-1.504l0,0l0.803-0.823l0,0l6.765-3.953l4.164,2.198l0.761,1.69l1.649-0.44l-0.698,1.498l2.156,1.016
		l0,0l0.254,0.105l0,0l1.142,0.782l-1.036,0.38l0.656,0.339l-0.761,0.592l0.232,1.013l-1.268,0.593l5.031,1.269l-0.126,1.565l0,0
		l0.253,0.379l0,0l1.565,1.119l0,0l0.591,0.402l0,0l3.319,1.057l1.437-3.064l4.863-2.981l1.458,2.811l-1.037,1.903l0.613,0.804
		l1.565,0.443l1.521-1.016l2.685,0.148l1.903,1.627l0.444,1.503l1.648,0.316l0.423,2.113l1.67,0.361l0,0l0.866,0.441l0,0
		l0.698,0.446l0,0l0.443,0.146l0,0l3.065-0.021l1.479-0.718l2.474-3.235l4.882-0.759l-1.543,3.465l0.106,4.037l1.86,3.597l0,0
		l-1.924,1.182l0.233,8.646l-2.39,7.861l4.671-1.057l2.389,2.222l-1.543,2.578l0.232,5.093l3.106,0.527l2.685-3.36l2.262-0.252
		l0.444,3.022l-0.825,0.487l1.987,2.938l-1.226,4.672l0,0l0.021,0.718l0,0l-2.642,3.3l1.712,2.027l0,0l0.972,0.865l0,0l4.144,5.096
		l1.67,0.38l6.172,6.935l4.651,1.798l2.049-1.396l0,0l0.127-0.147l0,0l3.297-0.635l1.691-1.67l0,0l0.465-0.19l0,0l2.79-2.072
		l1.184,1.944l-2.028,4.398l-0.128,2.683l-3.064,0.636l1.628,5.052l1.057,0.613l0.338,2.557l3.381,3.298l-5.199-2.048l-3.997-0.426
		l-1.437,2.539l0,0h-0.381l0,0l-1.965,4.5l1.099,2.073l0,0l0.592,0.23l0,0l0.993,0.699l-0.359,1.163l0,0l-0.19,0.106l0,0
		l-2.388,0.909l-4.841-1.883l2.325,7.229l0.974-0.252l4.185,1.9l-0.931,3.956l-3.804-0.277l-1.101,1.628l-3.148,9.028l-3.32,0.907
		l0,0l-2.959,1.628l-4.968-0.761l0.994,2.833l0,0l-0.084,0.169l0,0l-0.995,0.126l0.022,1.12l-0.698-0.568l-0.232,0.738l-0.465-0.806
		l-0.317,1.334l-0.507-0.549l-1.86,2.346l-2.05,1.035l-1.099,1.354l0.19,1.078l-3.594-0.382l-1.29,2.178l0.465,1.057l-0.994-0.548
		l-0.825,1.414l0,0l0.233,0.55l0,0l-3.911,2.642l-0.274,1.523h-2.03l-1.522,0.971l-2.135,3.489l-0.063,1.186l1.565,1.497
		l-0.932,2.707l2.749,4.799l-0.084,4.229l0,0l-0.211,0.126l0,0l-0.741,1.395l0.317,1.606l-2.177,0.931l-0.38,1.353l-3.002-0.485
		l-4.101,4.101l-1.627-0.487l-0.401-2.938l2.621-1.669l-0.571-1.119l0.654-0.36l0.551,0.761l-0.085-1.544l-2.388-1.119l-1.67,1.185
		l-1.458-0.361l-1.036,0.803l-2.98,0.212l-1.502,1.185l-0.168,1.67l-2.622,1.968l-0.169,1.226l1.206,1.519l-1.5,1.544l-1.036,3.764
		l-5.624-0.191l-3.762,0.975l-3.763,3.191l-1.183-1.564l-2.178,0.21l-0.761-0.865l-2.959-0.528l-1.311-1.331l0,0l-0.296-0.107l0,0
		l-1.543-1.33l-0.591-2.432l-2.622-0.677l-2.156,0.211l0.508,0.655l-1.543,1.248l0.338,1.268l-0.677,0.445l-4.101-1.586l0,0h-0.676
		l0,0l-1.396,0.422l-0.253-2.832l0,0l-0.909-1.098l0,0l-1.458-1.545l-1.184,0.569l-4.101-0.719l-1.521,0.637l-1.332-0.571
		l-0.064-0.91l-2.219,0.022l0.908-4.821l-2.896,0.087l-4.905-2.2l0,0l-0.317-1.014l-1.184,0.125l-0.908,0.996l-0.508-0.529
		l-1.84,0.509l-0.972,1.478l-2.177-0.211l-0.952,1.078l-3.064-4.228l-0.931-3.468l-0.973-0.273l-5.813-8.183l-0.422-2.026
		l-2.093-1.438l-1.057,0.272l2.156-2.769l-1.5-0.232l1.099-4.712l3.425-5.879l-1.627-1.077l0.718-6.258l2.875-1.627l4.63-4.967
		l1.923-0.255l1.819-2.686l1.626-0.759l0.38-1.142l-1.057-2.071l5.517-8.646l-0.529-2.156l-1.543-2.917l-2.557-1.693l-4.291,1.291
		l-1.755-0.654l-0.529-0.995l0.74-3.593l-4.692-1.692l-1.479-1.457l-0.465-2.876l0.93-2.009l-4.291-4.207l-0.93-3.339l1.353-2.557
		l0.276-3.425l-3.023-2.049l-0.952,0.463l-0.93-0.677l-0.529-2.937l-2.261-0.339l-2.136-3.172l-1.817-0.866l-1.585-4.968
		l-0.846-0.591l4.841,0.169l6.955,1.586l4.84-1.946l5.94,1.015l1.31-0.76l3.361,0.399l2.959-0.972l2.304-7.567l-0.528-2.957
		l1.86-0.868l2.517-2.938l0.168-4.523l0.951-0.824l0.275-3.341l1.205-2.388l-4.376-7.252l-3.467-0.698l-1.753-5.115l1.078-3.001
		l2.622-0.823l0.739-1.501l2.432,0.254L281.468,370.073z"/>
	<path id="ES-GA" fill="#DAE4E5" stroke="#FFFFFF" d="M163.304,207.751l-1.396,3.128l-0.042-2.049l0.783-1.333L163.304,207.751z
		 M165.946,193.905l0.274,0.739l0.783-0.21l0.253,1.564l-0.909,0.168l0.232,1.417l-0.571,0.084l-0.444-0.698l0.106-0.528l0.613-1.31
		l-1.311-0.825L165.946,193.905z M220.483,102.038l1.333-2.283l0.718,0.486l1.332-0.868l0.529,0.804l-0.698,2.282l1.206,1.987
		l-1.416-0.93l-0.085,2.642l-0.782,0.254l1.099,0.973l-1.924,0.084l1.438,0.825l1.69-1.1l-0.93-1.924l1.882-0.359l0.528,1.099
		l1.015-0.359l-1.311-1.184l1.057-0.508l-0.105-0.739l5.115-1.945l2.092-2.071L234.161,98l1.522,1.353l-2.199,3.044l1.142,0.464
		l0.486-1.31l2.092-0.508l0.486,2.453l1.247,0.337l-0.422,3.044l0.718,1.755l0.359-2.093l1.079-0.74l-0.465-1.479l1.543,0.125
		l0.084-1.606l1.839-0.508l0.571,1.057l2.643-0.062l-0.508,1.269l6.955,2.917l1.121,3.128l2.41,2.6l0.232,0.381l2.515,1.479
		l-0.613,1.184l0.359,0.338l0.825-1.014l4.249,1.247l2.917-0.634l3.974,0.465l0.359,1.564l-0.93,1.352l-0.19,3.721l0,0l-1.966,1.374
		l-0.803,2.22l-3.995-0.212l-0.042,1.987l0,0l0.105,0.275l0,0l-0.252,1.438l1.035,0.634l1.246-0.697l0.529,0.952l-0.126,3.234
		l1.733,2.135l2.283-0.127l-0.571,2.854l0.549,1.88l2.348,2.368l0.634-0.698l0.528,1.206l1.754,0.339l0.317,1.225l-0.888,1.776
		l1.353,2.409l1.057,0.169l3.107-1.944l-0.105-0.74l1.67-0.402l1.923,2.241l-0.402,1.628l-2.346,2.452h-1.311l-1.141,1.331
		l-1.417-0.951l-1.563,1.987l0.062,2.071l-0.93-0.506l-0.909,1.648l1.438,1.966l0.867-0.042l0.106-3.128l2.684,3.636l2.157,0.063
		l1.987,2.388l-0.296,2.453l0.972,0.973l0,0l-0.972,0.656l0.381,1.923l-2.114,0.613l1.69,3.932l-1.563,1.69l0.127,1.121
		l-3.933,3.657l-1.416-1.036l-0.74,2.262l-2.199,0.147l-1.922,2.22l2.219,4.038l-2.431,1.184l-0.085,2.558l0.803,0.972l-1.775,2.389
		l0.359,1.86l-0.953,1.67l1.164,0.064l0,0l1.057,0.084l0,0l3.615,0.993l0.845-1.859l1.755-0.253l4.312,2.622l1.797-0.509l0.888,2.03
		l-0.845,1.1l0.401,1.945l-1.396,1.606l0,0l-0.042,0.169l0,0l1.226,1.374l2.262,0.359l0.845,1.163l1.903,0.591l-0.317,4.819
		l-3.423,5.01l0,0l0.296,0.635l0,0l-0.127,1.184l-2.664-1.502l-2.41,0.93l-0.866,1.903l-2.495,1.332l-0.486,3.34l-2.051,0.571
		l-0.908,2.896l-1.692,0.825l1.375,1.839l1.944-0.19l0.783,2.135l-1.544,2.472l0.317,1.65l0,0l-1.479,1.775l-3.53,0.106l-1.1-1.903
		l-1.775-0.993l-3.425,0.465l-0.613,2.959l0.74,1.796l-1.206,2.938l-6.701,2.812l-2.388,0.169l-0.571-0.804l-3.318,3.298
		l-1.48-4.037l-2.495-0.72l-1.987,2.348l-4.883,0.823l0.656-2.917l0.972-0.866l-4.291-0.296l-2.431-1.86l-2.113,1.141l-1.206-0.465
		l-1.796,1.184l-2.601,0.296l-2.494,2.219l-0.719-0.825l0.338-4.649l-1.014-0.381l-1.078,3.742l-3.255,0.401l-2.072,3.213
		l-2.389,1.099l-4.144,0.591l-2.134-0.739l-0.339-4.334l-1.797,0.232l-0.866-2.895l3.107-5.455l1.902-1.839l2.368-0.782l0.232-2.493
		l-1.69-2.475l-3.996,0.889l-0.866-6.66l-1.48,1.607l-1.332-0.444l-0.634,1.311l-3.488,1.458l-0.783,1.479l-1.838-0.444
		l-1.057,1.058l-2.41,0.338l-1.1-0.761l-4.439,0.211l-0.296,1.269l-1.142,0.635l-4.967,0.422l-1.417,1.522l-0.486,2.134
		l-4.629,2.896l-0.613,2.262l-3.719,1.776l-2.854,3.615l-0.592-1.037l-0.465-7.44l0.718-2.114l-1.416-8.561l1.226,0.042l1.648-1.353
		l0.952,1.227l0.593-0.296l0.294-1.838l-1.754-1.269l1.585-0.022l0.423-2.388l2.135-1.374l0.909-2.071l0.508,0.126l0.697,0.38
		l4.63-4.524l2.832-0.189l-0.867-1.67l0.91-2.642l-1.227-0.761l-0.232,2.092l-1.375,0.889l0.084,1.838l-3.043,1.184l-0.317-1.015
		l-0.782,0.149l-0.359,1.183l-1.585,1.036l-1.035-0.402l-0.55,1.289l-1.205-0.993l-0.972,0.613l-1.438-0.74l-0.444,1.142
		l-0.549-0.254l0.993-4.566l1.438,2.389l0.824-0.022l-0.168-2.642l-1.057-1.944h2.029l0.909,0.846l1.839-0.93l1.691-3.467
		l4.207-3.276l-1.733,0.528l-0.507-1.458l-4.777,4.037l-2.305-1.015l-1.395,1.291l-2.431-2.39l0.528-1.585l-0.781-1.691
		l-1.522-0.402l-0.824,0.888l-0.993-0.994l0.359-1.268l2.769-0.106l-0.126-0.972l1.162-0.591l0.909,2.241l-0.952,0.845l0.17,1.078
		l1.585-1.142l1.396,1.037l-0.825-2.558l1.332-0.909l-0.719-0.993l-0.422-0.994l-0.592-2.431l0.296-0.867l0.212-1.057l1.987-0.317
		l1.691-1.691l-0.718-1.036l1.331-2.558l-0.824-0.444l-1.987,1.29l-1.014-0.698l0.528-1.543l-1.605-1.67l0.02,2.029l-0.655-0.337
		l-0.591,1.479l1.332,1.1l-1.184,0.486l0.064,1.544l-1.754-0.318l0.783-1.712l-1.501-0.486l-2.135,2.432l1.015,1.648l-1.818,0.147
		l-0.613,1.164l-1.48,0.317l-0.063,2.368l-3.108,1.394l0.55-3.148l-1.269-1.438l-1.036,0.761l-0.973-0.782l2.854-4.566l1.057-5.876
		h0.803l1.375-2.41l1.796-0.402l1.882-3.108l0.867-0.359l0.592,0.043l0.761-1.966l-1.016-1.437l-0.21,2.536l-0.952,0.402l-0.38-0.74
		l-1.712,2.156l-1.078-1.121l-0.063,1.163l-1.944-0.233l-0.212-1.648l-1.29,1.184l-1.29-0.085l0.867,1.5l-2.368,2.389l-0.613-1.226
		l-1.035,0.064l-1.015-2.959l-0.93-0.508l2.473-1.945l-0.211-1.522l-1.204-0.19l-1.142-2.261l1.247-2.727l-1.902-0.318l-1.945-3.573
		l0.634,3.235l-1.543-0.106l-0.676-1.902l-0.782,0.042l-0.042,1.121l-1.797,0.761l-0.212,2.854l-0.697-0.74l0.254-1.523
		l-1.332-0.908l0.254-1.416l1.691-2.601l-0.043-2.304l0.782,0.38l0.38-0.655l-1.669-0.465l-1.249-3.593l1.333,0.846l1.013-0.487
		l0.064-3.191l2.05,0.338l0.106-2.135l2.072,1.965l1.269-2.558l-0.148-2.303l-1.057,2.241l-1.185-0.401l-0.591-2.58l0.868,0.55
		l1.077-0.909l0.338-2.051l1.057,0.72l0.401-1.036l0.867,0.401l0.295-0.591l2.834,1.311l2.24-0.931l1.69-3.127l0.888,1.289
		l0.952-0.972l2.029,0.127l0.444-0.466l-0.846-2.325l-1.396,0.106l-0.867-1.079l1.966-1.5l1.649,0.952l0.168-0.931l1.015,0.063
		l-0.169-2.261l2.073,0.738l0.21-0.802l1.459,0.253l0.338-2.03l3.128,3.234l4.523,1.036l5.708-2.494l2.938,0.909l1.29-0.359
		l1.374-0.952l0.845-2.473l1.058,0.486l1.204-0.591l1.164-1.819l1.606,1.058l0.423-1.586l1.015,1.734l-1.141,0.402l1.099,0.696
		l-0.021,0.974l2.008-0.402l0.655-2.474l-0.973-0.211l0.296-1.226l2.474-0.74l0.697,1.647l1.796,0.192l0.931,1.394l-0.233,1.121
		l2.431,1.881l-0.19-1.121l-0.444-0.972l0.613-0.803l-0.656-2.326l0.867-1.31l1.882-0.127l0.063-0.656l-1.374-0.444l-1.121,0.656
		l-0.803-0.867l-1.67,0.846l-1.204-1.396l-1.396-0.825l-0.465-0.676l2.304-0.697l0.274,0.655l0.697-0.887l1.5,0.825l1.565-0.296
		l1.163-0.994l0.591-0.401l0.486-1.458l-4.016,1.987l0.063-0.74l-0.972,0.233l-1.142,0.529l-1.585,0.422l-1.206-0.379l-1.269,0.929
		l-0.486-0.486l1.67-2.579l-0.507-1.755l1.839-1.247l-1.67-2.072l0.739-0.655l1.036,1.078l1.967-0.105l3.952-3.488l0.253-1.585
		l1.967,0.296l0.781-1.396l1.734-0.443l1.035-2.072l0.381,2.304l0.887-0.486l0.93-0.423l-0.063-0.888l-1.184,0.042l0.783-3.55
		l1.69-0.72l1.882,0.698l2.769-1.881l0.084-1.015L220.483,102.038z"/>
	<path id="ES-IB" fill="#DAE4E5" stroke="#B6D6D8" stroke-width="2" d="M759.264,482.849l1.014,1.668l0.909-0.21l0.337,1.883
		l2.157,1.816l0.782,0.358l2.239-1.396l0.932,1.693l-0.677,1.268l-2.812-0.107l-2.136-1.816l-2.262-0.528l-3.635,3.233l-0.275-5.748
		l0.93-1.165l0.527,0.509l1.25-0.656l0.379-2.578L759.264,482.849z M764.802,455.622l1.268,1.774l2.686,0.212l0.315,0.844
		l-1.058,0.299l-0.189,0.928l1.903,2.602l-2.093,0.908l-0.233,1.903l-2.684,0.444l-0.189,2.028l-0.637,0.211l-0.527,0.445
		l-1.922,2.494l-1.143-0.339l-1.1,1.058l-1.014-0.041l-0.951,1.985l0.169,3.298l-1.247-0.784l-0.782,0.867l-1.544-2.916
		l-1.396,1.057l-0.105-0.762l-1.141,0.339v-0.993l-1.521-0.255l-1.375,1.715l-1.373-1.146l-0.633-2.303l1.311-2.704l-1.206-1.416
		l0.803-1.186l0.909,0.616l3.529-0.467l-1.268-1.481l0.803-1.224l-0.274-1.651l2.77-1.605l0.995-1.521l0.971,0.866l0.74-1.27
		l1.649,0.129l0.423-1.058l0.908,0.825l2.684-2.156l0.592,0.864l0.572-1.118L764.802,455.622z M846.375,452.176l1.291,0.443
		l-1.102,0.806l0.064,1.519l-2.114-0.04l-0.255-2.516l0.72,0.486l1.183,0.443L846.375,452.176z M861.235,393.112l-0.571,1.165
		l-2.728,1.544l-1.353-0.276l-1.185,2.093l-1.078-0.907l-0.696,0.781l0.189,1.753l1.249,1.396l4.817-1.69l0.444,1.521l-1.057,1.523
		l-3.172,0.444l-0.04,2.261l1.099,1.987l1.607,1.479l4.86,2.073l4.334-2.283l1.099-2.2l4.947,3.319l1.522-0.128l-0.359,1.842
		l1.5,0.549l-1.331,0.738l-0.043,3.638l-0.825-0.044l-0.274,1.63l-1.669-0.17l-0.782,1.119l-0.465,2.367l1.036,0.782l-1.459,0.298
		l-0.612,1.796l-1.607,1.247l-3.045,3.594l-1.078,5.284l-1.987,3.846l-2.662,0.867l-0.953,1.839l-1.415-0.253l-4.292,4.524
		l-1.287,0.251l-2.115-3.274l-1.585-0.443l0.21-1.648l-1.774-1.799L845,437.422l-0.93,0.929l-1.713-1.016l-2.747-0.146l-0.381,0.823
		l-1.27-0.804l-1.118,0.318l-2.665-3.275l0.298-2.602l-1.439-2.56l1.523-2.577l-4.524-3.783l-2.05,0.105l-0.613,0.825l-0.973-0.169
		l-0.908,1.542l-2.939,0.527l0.443,0.933l-0.782,0.464l-0.611,3.529l-1.861-1.1l-0.823,0.487l0.169-1.86l-1.312-1.057l1.375-0.888
		l-1.585-1.418l-1.883,1.036l0.212-1.058h-0.973l-1.035,1.247l0.021-0.99l-1.457,0.125l0.528-0.889l-1.48-1.52l0.569-3.003
		l6.088-3.551l3.849-3.699l1.564,0.084l1.775-1.226l1.924-2.961l2.494-1.228l0.337-1.455l0.719-0.488l0.678,0.636l0.359-1.479
		l4.354-2.157l0.192-1.163l3.868-0.402l0.506-1.014l4.692-2.156l0.847-1.248l1.882,0.867l3.191-1.586l1.311-0.21l-0.063,0.973
		l1.881-1.162l1.521,0.274l2.622-2.071l0.867-0.086l-0.38,0.72L861.235,393.112z M916.217,401.337l-7.589-4.986l-4.355-1.672
		l-3.426,1.185l-4.354,0.042l0.569-5.919l-2.027,0.233l-0.4-1.63l1.795-2.323l2.559-0.486l1.798-0.128l1.331,1.037l0.697-1.269
		l2.6,0.888l3.045-1.079l1.226,1.015l2.03-1.248l-0.403-1.521l0.992,0.233l-0.358,1.965l0.633,1.121l1.924-1.67l2.053,0.465
		l-0.676,1.943l1.205,0.932l0.759-0.762l0.698,1.438l0.719,1.204l2.029,0.295l0.656,0.805l-0.656,1.332l0.846,0.359l-0.254,0.971
		l0.867-0.357l0.296,2.895l1.289,1.035l0.126,1.354l0.973,0.297l-1.162,0.846l-0.211,2.474l-1.799,1.731l-3.698-1.184
		L916.217,401.337z"/>
	<path id="ES-MD" fill="#DAE4E5" stroke="#FFFFFF" d="M430.537,339.359l0.952,1.839l-3.573,0.212l0,0l0.105-1.27l1.649-1.076
		L430.537,339.359z M472.836,302.304l-0.084,1.226l1.712,1.015l1.204,3.15l3.658,0.887l-0.761,2.98l2.493,3.107l-1.162,1.036
		l-1.563,6.108l-0.994,0.023l1.099,1.945l-1.839,1.182l0.339,1.69l-2.454,4.123l2.685,0.315l1.014,1.396l0,0v0.233l0,0l-0.211,1.967
		l0.931,0.611l-1.859,3.001l1.373,0.868l0,0l0.065,0.233l0,0l1.056-0.465l1.014,0.867l0.676-1.651l1.205,1.037l0.403,2.411
		l1.394,0.697l1.354-1.165l-0.316,0.762l0,0l-0.085,0.846l0,0l-0.783,0.424l0.931,0.993l-0.507,1.226l2.684,1.923l-0.718,2.58
		l1.437,0.085l0,0l0.339-0.148l0,0l1.902-0.191l1.817,1.902l0.149,5.432l2.473,0.211l1.438,2.601l-1.269,2.77l0.655,1.332
		l-2.282,2.896l-0.846,4.796l1.31,0.996l1.269-2.221l2.199-1.628l0.76,0.825l1.184,3.679l-0.422,2.853l0.992,2.366l-1.16-0.443
		l-0.382,1.608l2.431,2.663l-1.859,2.535l-2.03,0.762l-2.262-0.233l-0.36-1.965l-1.077,0.677l0,0h-0.147l0,0l-0.803,1.669
		l-3.594,0.212l-0.528,0.697l-1.585-0.402l-1.735-2.114l-2.536,0.467l0.106,1.502l-1.247,1.5l-1.628-0.826l-1.269,0.698
		l-0.105-0.888l-1.226,0.636l-2.093-0.572l-0.824,2.071l-3.934,0.571l-1.627,1.691l0,0l-0.845,0.209l0,0l0.654,1.565l-4.058,1.46
		l-0.718-0.465l-2.009,1.078l-0.74,1.478l0,0l-0.379,0.235l0,0l-2.411,2.43l-3.488-1.331l-0.444-0.994l0,0l0.042-0.296l0,0
		l-0.422-0.593l1.142-0.888l1.099-0.21l0.422,0.866l1.396-1.861l1.353,0.614l1.458-1.417l-0.105,1.396l0.697-0.551l-0.317-1.058
		l1.332,0.593l0.234-0.509l0,0l-0.465-0.147l0,0l-0.297-0.633l1.29-0.614l0.761-2.365l0.93,0.315l3.721-3.045l0.824-4.015
		l-3.149-1.629l-0.275-0.971l-1.227,0.781l-1.861-1.119l-1.289,1.077l-1.606-0.467l-2.072-2.874l-1.628,1.205l-2.283-2.22h-2.241
		l-0.93-0.949l-1.078,1.076l-0.232-1.773l-2.199,0.271l-1.964-1.966l0.105-1.013l-2.79-1.249l-1.734,1.754l-2.452-0.271l0.083-1.376
		l-2.767-2.324l-3.32,1.689l-1.31,2.96l-1.437,1.078l-0.55-1.057l-0.782,0.614l-0.655-0.975l-0.952,0.064l-0.38-5.284l-1.268-0.783
		l-0.296,2.223l-2.959,2.216l-0.149,1.608l-4.48,1.562l-0.909,1.269l-2.812-1.269l0,0l1.099-0.569l-0.507-2.602l2.282-2.599
		l-1.014-3.677l1.142-0.191l1.438,2.177l2.727-0.317l-0.359-1.606l1.268-0.698l-0.21-2.768l1.184-1.544l5.748-0.316l-1.078-1.968
		l1.437-2.176l-0.675-5.222l0.336-1.141l1.84-1.057l0.635-2.894l-0.699-1.862l0,0l1.1-0.02l0.464,1.669l0.952,0.274l0,0l0.951-0.084
		l0,0l3.932-1.48l-0.76-3.277l0.802-1.649l0,0l3.678-4.499l1.543-3.364l2.432,0.888l2.832-0.444l2.369-10.569l0.93-0.19l1.669-2.917
		l6.469-2.599l2.324-3.975l3.615-2.22l2.6-3.995l2.431-1.734L472.836,302.304z"/>
	<path id="ES-MC" fill="#DAE4E5" stroke="#FFFFFF" d="M541.832,535.694l0.571-2.98l3.615-3.001l3.127-6.957l5.664-2.473l2.009-2.832
		l0,0l0.762-1.396l0,0l1.058-0.781l3.74,1.797l4.207-1.186l7.188-4.269l-0.634-0.973l1.416,0.295l0.062-0.97l1.461-0.128
		l1.521,1.267l0.952-0.803l1.077,1.058l-0.549,1.121l0,0l0.02,0.297l0,0l1.311,2.114l4.567,0.041l6.386-4.776l-0.108-7.865
		l-0.993-3.825l0.572-1.988l2.006-1.416l0.233-4.925l3.636-3.571l1.078-0.38l1.374,1.943l5.368-4.396l0,0l0.699-0.339l0,0
		l2.896-0.907l3.848,1.182l0.211,2.01l5.156,4.037l0,0l1.459,6.044l-1.375,3.699l0.678,1.945l-4.544,4.291l0.845,0.443l-0.4,6.194
		l6.129,0.698l1.27,3.211l-1.27,6.026l-2.832,4.65l0.359,3.275l6.743,12.832l4.163,4.439l2.749,1.395l1.205-0.17l0,0l0.804,4.123
		l-2.073-2.052l-1.118,2.98l-2.348,2.032l-0.932,2.07l3.51,4.65l3.594,1.924l1.247-1.671l0.888,1.481l0.846-0.087l-1.903,2.305
		l-3.507,0.846l-2.157,1.459l-1.437-0.721l-1.818,0.488l-2.43,1.774l-2.476-0.484l-0.252-0.571l-0.487-0.571l-0.803-0.358
		l-1.162-0.298l-0.867,0.931l-2.896-0.803l-2.093,1.142l-0.973,1.203l0.932,1.292l-3.192-0.507l-0.316-1.334l-1.861-1.374
		l-2.41-0.189l-0.655,1.374l-4.017-0.359l-4.269,4.019l-3.382,1.477l-1.564,4.63l-1.884-0.613l-2.449,1.945l-1.945,0.317
		l-1.839,1.86l0,0l-6.236-4.904l-4.333-0.782l0.085,1.333l-2.073-1.523l-8.624-13.95l0,0l-0.379-0.403l0,0l-0.635-3.465l0.993-1.945
		l-0.782-3.488l0.782-4.841l1.205-1.67l-0.424-0.549l0,0l-0.358,0.021l0,0l-1.036-0.444l-0.931,0.846l-2.347-1.08l-1.269,0.741
		l-2.261-1.986l-2.77,0.866l-4.628-3.592l-2.644-4.715L541.832,535.694z"/>
	<path id="ES-NC" fill="#DAE4E5" stroke="#FFFFFF" d="M581.256,136.007l1.711,0.381l-0.379,1.88l1.29,2.452l1.837,0.19l1.141-2.284
		l-0.358-0.761l2.812-0.444l2.98,1.777l2.877-0.107l1.71,1.628l0.021,4.925l-1.143,0.909l-0.738,3.933l-3.382,3.086l1.902,3.298
		l4.968,1.394l0.549-5.199l1.416-1.459l2.812-0.401l-2.242,3.848l2.665,2.008l2.812-0.676l4.016,2.199l0.127,1.268l1.606-1.247
		l1.924,1.86l3.974,0.634l0.888,1.374l3.043,1.67l2.178-0.803l0.572,0.698l5.011,0.295l3.126-1.332l1.396,1.775l-0.381,0.867
		l0.739,1.162l0,0l-3.319-0.148l-1.985,1.501l-0.17,2.664l-2.112,1.669l-0.234,3.721l0.718,0.972l-0.993,1.86l-2.05,0.169
		l-0.02,1.353l-1.291-0.021l-2.663,3.129l-3.255,0.232l-0.804,0.74l-0.022,3.423l-6.467-0.084l-0.255,2.875l-1.267-0.021
		l1.203,0.952l-2.515,1.67l-0.085,2.261l0,0h-0.296l0,0l-1.204,0.528l-2.029-1.12l-1.354,2.621l0.721,3.762l-3.742,3.953
		l-1.037,3.552l1.396,0.571l0.295,1.269l-3.994,4.841l0.424,1.394l-1.461,4.165l1.416,3.044l-0.399,4.207l1.858,1.542l0.824,2.581
		l1.778,0.042l0,0l0.59-0.063l0,0l0.338,2.325l-1.964,1.965l-2.517,4.651l0.212,1.035l-1.629,1.902l-5.305-0.316l0,0l-0.678,0.635
		l0,0l-1.098,0.337l0,0l-1.396-0.274l0,0l-5.537-3.868l-3.595,0.655l-3.022-2.939l-3.952,0.064l-0.593-1.164l0,0L569.693,238
		l-2.602-2.092l-0.401-2.157l0.761-2.071l3.934-5.221l2.345,1.12l1.438-0.973l2.346,1.375l0.952-0.55l1.205-0.845l-1.12-1.649
		l1.162-1.501h-1.268l-0.847-1.585l-5.601-1.227l-0.339-1.542l-1.734-0.826l-0.189,0.697l-1.035-0.189l0.127-2.791l-2.6-0.93
		l-0.232-2.093l-0.741,0.444l-0.612-0.992l-1.288,0.02l-0.299-1.416l-1.479-0.803l-1.268-0.465l-2.916,1.987l-1.121-0.253
		l0.527-1.691l-2.155-2.389l0.36-1.585l-2.474,0.127l-0.973,0.825l-0.888-0.825l-1.691,0.189l0.085-0.591l-1.586-0.55l0.127-0.782
		l-1.987-0.38l-0.381-0.803l0,0l-0.379-0.762l0,0l-0.613-0.168l-0.043,0.803l-1.69-0.867l0,0l-0.487,0.232l0,0l0.213,0.889
		l-0.783,0.19l-0.402-1.015l-2.704-0.656l-1.249-1.289l0,0l-0.062-1.628l1.755-0.55l-0.233-6.278l-1.5-0.613l-1.691,2.959
		l-0.612-1.522l-1.585,0.063l-0.509-2.283l0.974,0.254l1.775-2.622l2.07-1.226l1.841,0.465l0.633,1.037l-0.527,0.697l5.114-1.374
		l0.19-1.247l-0.254-0.762l-0.992,0.423l-0.739-3.995l0.399-1.225l3.151-0.74l-1.037-3.003l2.728-4.228l-0.55-3.55l0,0l-0.465-0.677
		l0,0l0.676,0.021l0.085-2.261l1.584-2.008l1.671,1.121l3.066-0.381l1.331-0.635l0.739-2.007l3.003-0.528l0.611-1.374l-0.78-2.6
		l1.162-1.29l0,0l0.146-0.718l0,0l0.317-1.289l3.742-1.924l2.579-2.981l-1.016-1.374l0.359-5.622l1.839,1.31l0.339-1.818
		l0.846,1.521l0.676-0.908l0,0l0.487-0.105l0,0l2.706-1.65l0.105-2.41l0,0l0.634-0.718l0,0l0.126-0.147l0,0l0.867,0.084l0,0
		l1.902-1.057l0,0l2.155-1.057L581.256,136.007z"/>
	<path id="ES-PV" fill="#DAE4E5" stroke="#FFFFFF" d="M516.297,125.311l1.902-0.782l0.677,2.114l2.727,1.839l2.6-0.782l1.649,1.924
		l0.951-0.232l0.993,0.993l1.227-0.676l0.738,1.331l2.284-0.253l2.77,3.214l6.088,2.917l4.143,0.275l3.148-1.269l1.27,0.571
		l0.929,0.888l1.903,0.592l7.273-2.728l2.261,0.422l-0.105-0.782l1.818-0.994l2.619,0.127l3.892-3.382l3.34-1.269l0.485,2.6
		l-1.46,0.889l2.812,0.591l1.205,1.057l0.339,2.453l0,0l-1.902,1.057l0,0l-0.867-0.084l0,0l-0.126,0.126l0,0l-0.634,0.718l0,0
		l-0.105,2.431l-2.706,1.648l0,0l-0.487,0.106l0,0l-0.676,0.888l-0.846-1.523l-0.339,1.819l-1.815-1.29l-0.36,5.623l1.014,1.374
		l-2.577,2.96l-3.744,1.923l-0.295,1.29l0,0l-0.149,0.718l0,0l-1.161,1.269l0.781,2.621l-0.612,1.374l-2.981,0.528l-0.738,1.987
		l-1.332,0.635l-3.064,0.381l-1.691-1.121l-1.585,2.008l-0.085,2.262l-0.697-0.021l0,0l0.465,0.676l0,0l0.549,3.551l-2.727,4.228
		l1.035,3.001l-3.15,0.741l-0.399,1.225l0.739,4.017l0.992-0.444l0.276,0.762l-0.191,1.247l-5.116,1.374l0.552-0.697l-0.656-1.037
		l-1.819-0.465l-2.07,1.206l-1.774,2.642l-0.973-0.254l0.507,2.304l1.586-0.063l0.611,1.521l1.692-2.958l1.501,0.592l0.231,6.299
		l-1.755,0.549l0.044,1.627l0,0l-1.565-0.549l-1.627,0.803l-2.157-0.316l0.275-2.284l-1.606,1.861l0.38,0.929l-2.22-0.803
		l-1.436,1.67l-0.593-2.368l-2.389,1.543l-0.57-1.543l-1.269-0.507l0.063-1.269l-1.628,0.718l0,0l0.761-1.839l0,0l0.572-4.248
		l-3.319-2.094l-1.396-0.021l-0.866,3.276l-1.332,1.185l-0.698-0.295l-0.211,1.013l-1.1-1.119l0,0l-0.167-0.846l0,0l1.184-0.74
		l0.085-1.627l-1.334,0.253l-0.041-1.605l-0.867-0.698l0,0l-1.775-0.804l-0.614-1.479l0,0l0.148-0.148l0,0l-0.295-1.838l-1.608-1.1
		l-2.874,0.295l-2.093-2.601l0,0v-0.274l0,0l-1.458,0.106l-0.381-2.03l-5.643,0.613l1.33-2.473l-1.944-1.205l2.875-5.285
		l-0.592-1.627l-2.22,2.747l-1.965-0.95l-1.734,2.366l0.888,0.889l-0.55,0.105l-4.058-4.333l3.488-5.306l4.544,1.205l-0.126,1.269
		l3.255,1.458l4.165-0.698l2.261-2.346l-3.55-2.494l0.274-0.846l-1.417-1.69L495.603,160l-1.797-1.164l2.009-0.612l0.041-2.938
		l-0.951-0.55l1.311-1.818l-0.593-1.014l-0.613,0.423l-1.648-1.121l2.241-3.847l-1.375-0.887l-3.129,0.464l-1.796-2.071
		l-9.427,5.052l0,0l-0.974-5.919l0,0l-0.38-0.591l0,0l-0.465-1.501l2.938-0.803l0.888-1.881l2.516-0.613l0.424-1.775l0.529,0.634
		l1.584-0.613l0.91,0.825l3.086-1.481l0.908,1.967l1.057-1.162l1.923-0.253l0.233-4.101l0,0l1.48-0.127l0.676,0.908l0.401-1.564
		h0.678l2.917,1.924l0.825-0.592l-0.635,0.571l1.375,1.057l0.359-1.797l-1.31-2.007l1.859-0.698l1.966-2.368l1.354,0.021
		l-0.022-1.839l7.907,0.443L516.297,125.311z M487.527,144.821l-1.269-4.27l2.305-1.078l0.993,0.549l-1.162,2.22l0.063,2.219l0,0
		L487.527,144.821z M513.274,176.593l0.146,0.043l0,0l0.212,0.359l0,0l0.338,0.296l0,0l5.286-0.614l5.051,2.22l2.326-0.401
		l0.803,1.543l1.755-0.952l-0.888,3.023l-0.845,0.993l-0.636-0.295l-0.507,1.458l1.839,2.199l3.13-1.204l0.315,2.937l-1.775,0.571
		l-0.358-0.825l-4.672,0.149l-1.332-1.924l-2.6-0.127l-0.804,0.931l-2.833-0.317l-1.015-2.495l-2.263-0.803l-2.6-2.409l1.733-3.255
		l0,0L513.274,176.593z"/>
	<path id="ES-RI" fill="#DAE4E5" stroke="#FFFFFF" d="M569.565,240.749l-6.152,3.677l-1.057,0.063l-1.564-1.521l0,0l-0.336-0.338
		l0,0l-5.645-1.374l-0.486-2.622l0.761-0.655l-3.044-4.713l1.839-1.057l0.064-1.459l-6.173-0.337l-1.903,1.077l-0.781-3.275
		l-2.221-1.058l-6.912,0.634l-0.973,1.607l-1.606,0.654l-1.606-0.549l-0.104,3.445l-1.884,1.353l-1.881,4.355l-2.493-0.825
		l-2.811,0.74l-1.733-1.396l-2.39,0.465l-0.634-1.796l2.705-3.954l0.148-1.543l-1.628-1.648l-0.931,0.55l-1.268-0.486l-1.016,1.184
		l0,0l-0.125,0.529l0,0l-0.889,5.01l-2.536,0.506l-1.755,1.67l-1.818-1.775l0,0v-0.613l0,0l-1.246-3.762l-5.519,0.169l-5.496-8.561
		l1.438-1.227l0.825-2.516l-0.994-5.22l0.654-0.952l0,0l-0.338-0.254l0,0l-0.464-1.796l2.663-0.697l-1.227-1.924l-1.182-0.021
		l0.231-2.368l1.29,0.043l-0.232,1.521l1.458,2.008l-0.38-4.207l0.953-1.67l-2.791-3.254l1.098-1.185l0.232-2.007l-0.93-0.74
		l-2.008,0.401l-0.55-0.698l1.692-0.908l1.647-2.516l0,0l0.867-0.212l0,0l-1.331-4.038l3.762,0.676l0.783-0.973l1.289,0.74
		l2.114-0.274l1.966,1.522l0.803-0.635l0.783,0.529l1.437-1.354l0,0l0.867,0.698l0.043,1.607l1.332-0.254l-0.085,1.628l-1.183,0.74
		l0,0l0.167,0.866l0,0l1.101,1.121l0.232-1.015l0.718,0.296l1.332-1.184l0.866-3.278l1.396,0.022l3.319,2.092l-0.571,4.25l0,0
		l-0.761,1.838l0,0l1.628-0.697l-0.063,1.269l1.268,0.506l0.571,1.563l2.409-1.542l0.593,2.388l1.437-1.67l2.219,0.803l-0.38-0.93
		l1.606-1.86l-0.252,2.282l2.155,0.317l1.626-0.803l1.565,0.569l0,0l1.269,1.291l2.705,0.655l0.403,1.036l0.781-0.19l-0.212-0.888
		l0,0l0.486-0.233l0,0l1.69,0.868l0.043-0.783l0.592,0.169l0,0l0.401,0.762l0,0l0.359,0.824l1.988,0.359l-0.127,0.804l1.585,0.528
		l-0.084,0.592l1.689-0.169l0.888,0.824l0.975-0.824l2.473-0.127l-0.359,1.585l2.136,2.39l-0.509,1.69l1.122,0.254l2.916-1.988
		l1.288,0.465l1.48,0.803l0.274,1.396l1.311-0.021l0.613,1.015l0.74-0.444l0.231,2.092l2.622,0.93l-0.126,2.812l1.035,0.19
		l0.191-0.719l1.732,0.825l0.338,1.543l5.58,1.226l0.847,1.585l1.267-0.021l-1.162,1.501l1.121,1.649l-1.205,0.845l-0.952,0.549
		l-2.345-1.374l-1.438,0.972l-2.367-1.12l-3.911,5.243l-0.781,2.05l0.401,2.178l2.6,2.092l0.507-0.359l0,0L569.565,240.749z
		 M503.909,191.538l0.106-0.295l0,0l0.147-0.233l0,0l-0.043-0.253l0,0l-0.021-0.085l0,0l0.569-0.062l0,0l-0.04,0.422l0,0
		l-0.275,0.338l0,0l-0.403,0.212l0,0L503.909,191.538z M506.995,191.453l0.36-0.338l0,0l0.718,0.867l-1.078-0.423l0,0V191.453z"/>
	<path id="ES-VC" fill="#DAE4E5" stroke="#FFFFFF" d="M592.966,379.439l2.704,0.38l0,0l0.658,0.379l0,0l1.013-0.423l1.311,0.654l0,0
		l1.037-0.908l0,0l0.95-0.422l-0.02-3.762l1.162-0.973l0.062,0.678l0,0l0.36,0.907l0,0l0.909,2.22l1.711,1.058l0.021,2.156
		l5.581,0.273l4.058,3.257l0.359,1.458l-0.697,1.015l-4.692,1.924l0,0l-4.757,1.204l-1.521-0.485l0,0l-0.106-0.213l0,0l-5.621-0.718
		l-2.581-5.75l0.593-0.571l-2.515-1.818L592.966,379.439z M610.765,392.333l1.014,0.698l0.467-0.782l1.373,0.296l1.162-0.805
		l4.8-0.146l3.19,1.795l0.678-0.592l0.929,1.881l-0.506,1.605l0.718,2.072l-0.634,1.331l2.43,1.841l4.293-2.535l-2.39-3.193
		l0.127-3.974l3.086-1.248l1.544-3.91l4.164,0.147l2.896-2.24l0.93,0.274l-0.761-2.451l1.057-1.734l1.755-0.824l2.028-8.583
		l2.938,1.774l3.827-1.159l2.493-1.504l-0.992-2.282l0.634-0.845l1.331,0.064l1.564-2.622l3.341-1.924l-0.319-1.67l-3.445-4.142
		l0.74-1.142l3.573-1.417l-0.255-1.69l-1.374-1.186l0.403-7.208l-1.756,0.527l-2.621-0.78l-0.549-3.955l2.811-1.057l1.291,1.46
		l4.079-2.305l0.338-3.743l1.965-3.253l2.981-0.107l0.064,1.314l2.049,1.816l2.6,1.226l2.306-0.188l0,0l1.142-0.064l0,0l1.143,0.381
		l0,0l0.02,0.231l0,0l0.676,2.114l0,0l0.676,0.254l0,0l3.89-2.686l2.242,0.593l1.311-1.079l0,0l1.586,0.74l1.626-0.634l0.656,2.388
		l0,0h0.317l0,0l1.331-0.169l0,0l0.571,0.572l0,0l0.17,0.189l0,0l0.42,0.169l0,0l-1.161,3.446l0.867,1.183l3.359,1.564l3.595,0.444
		l2.367,1.84l-0.274,2.304l4.354,1.861l0,0l-2.238,4.27l-3.256,4.987l-0.509,3.213l-4.756,6.13l-2.24,1.713l-1.205,3.341
		l-4.163,2.662l-2.791,6.979l-5.604,3.676l-3.147,8.752l-3.404,4.121l-1.036,0.085l-5.621,9.302l-1.733,5.938l-2.961,3.319
		l-3.296,7.229l0.04,5.138l-0.951,0.442l1.777,7.758l5.136,10.738l-1.29,0.908l0.128,2.307l4.438,10.972l7.971,8.75l7.461,2.155
		l5.094,3.045l-0.844,0.823l0.465,1.439l1.098,1.014l0.804-0.316l0.571,2.048l-2.96,1.164l-1.881,2.916l-1.185-0.442l-1.796,1.016
		l-1.417,1.985l-1.437,0.297l-1.101,1.184l-1.858-0.36l-1.521,0.909l-1.988,2.918l0.74,1.184l-2.686,2.812l-3.106-0.825
		l-1.247,1.437l-6.554,2.073l-5.072,3.34l-1.649,2.832l0.021,3.784l-2.453-0.719l-1.965,1.394l-1.289,0.614l-0.889,3.805
		l0.612,5.688l-0.844,1.014l-4.038,0.085l-1.246,1.268l-1.586,5.201l-0.254,7.187l-1.163,1.881l-1.882,0.636l-1.247,4.037
		l-1.775,0.991l-0.654,3.638l0,0l-1.206,0.169l-2.747-1.395l-4.166-4.439l-6.742-12.832l-0.358-3.278l2.832-4.647l1.268-6.024
		l-1.268-3.214l-6.13-0.698l0.401-6.192l-0.846-0.444l4.545-4.291l-0.656-1.945l1.374-3.699l-1.457-6.025l0,0l3.677-0.062
		l2.728-2.896l-2.643-5.601l1.903-0.89l0.295-2.876l-0.738-2.344l0.675-2.748l-1.394-1.25l-0.636-2.514l-2.367-0.424l-1.861,1.143
		l-6.361,0.402l-4.713-7.062l-2.137-1.585l0.443-4.459l4.229-7.653l1.1-7.082l-2.621-1.437l-0.678,0.697l-1.922-0.738l0,0
		l-0.318-0.169l0,0l-1.183-0.149l0,0h-0.317l0,0l-1.988-0.738l0,0l-0.379-0.107l0,0l-0.486,0.614l-1.776-1.629l-0.993,0.085v-0.929
		l-1.416-0.107l0.613-0.655l-1.459-0.338l-0.106,1.373l-0.126-0.696l0,0l-0.128-0.339l0,0l-1.415,1.035l0,0l0.253-0.125l0,0
		l0.105-1.015l-1.057-0.379l0.846-0.023l-0.402-1.29l0,0l-0.146,0.128l0,0l-0.804,0.444l0.55-0.675h-1.292l0.384-1.376h-1.271l0,0
		l0.423-0.508l0,0l-1.33-0.19l-0.488-1.714l0.867-0.314l0.571-1.46l-0.508-1.309l0.739-0.339l-0.211-3.468l-1.016-0.189l3.32-2.009
		l3.36-6.638l1.966-1.648l1.648,0.613l0,0l1.544,0.738l0,0l2.03-0.609l0.929-1.439l-0.739-2.958l3.382-5.116l0.994-7.082l0,0
		l0.189-0.908l0,0l-0.825-1.479l0.401-1.227L610.765,392.333z"/>
	<rect x="656.213" y="570.5" opacity="0.3" fill="#DAE4E5" width="313.287" height="140"/>
</g>
<g id="Capa_3" class="peninsula">
	<g>
		<g>
			<path fill="none" stroke="#B6D6D8" stroke-width="2" stroke-miterlimit="10" d="M718.348,344.072 M865.848,214.842l2.029-1.225
				l-2.069-0.444l-1.122-1.142l-0.951,0.781l-1.331-1.627l-1.946,1.206l-0.422-1.248l-1.373-0.676l-0.443-1.543l-0.149-0.973
				l1.016-1.859l-0.571-0.867l-2.198-0.74l-1.965,0.93l-2.664-3.72l-4.187,0.613l-1.142-1.289l-1.689,2.007l-2.622-0.845
				l-0.739,1.014l-1.142-0.359l-0.718,1.522l-2.812,2.114l-1.312-1.057l-2.242,0.401l-2.514,1.291l-0.148,1.289l-1.036-0.042
				l1.27,2.219l-0.149,1.438l-5.475-1.374l-1.311,0.359l-0.738,1.564l-3.404-0.528l-2.728-2.749l-0.084-1.374L812.138,207
				l-2.053-1.628l-1.332,0.275l-2.113-1.205l-3.191,1.734l-2.643-0.613l-1.754,1.057l-0.486,2.007l-1.353,0.508l-0.466,1.184
				l-3.974,1.099l-3.045-2.642l-0.401-3.108l-1.035-0.613l-0.254-1.775l-3.086,0.295l-2.41-2.557l-2.052-0.698l-2.239,0.318
				l-2.239-1.142l-1.228,0.888l-1.881-1.057l-0.804,2.875l-3.382-0.02l-1.1,1.416l-1.014-0.634l-0.678,1.902l-5.877-0.401
				l-0.422-2.938l-1.248-0.655l2.792-2.114l-1.037-2.283l-2.071,0.275l1.712-2.324l-0.993-1.206l0.952-1.628l-1.396-1.711
				L758,187.553l-1.46-1.099l-0.041-1.586l-2.093-1.078l0.317-1.247l-5.918,0.316l-1.312-0.992l-3.529,1.5l-2.052-1.543
				l-0.274-2.051l-2.854-2.643l-1.903,0.592l-3.571-0.443l-1.374-1.501l-1.966,1.291l-4.037-2.918l-3.107-1.077l-1.5,0.274
				l-3.889-1.967l-2.877,1.819l0.655,2.6l-1.457,1.712l1.246,0.592l-1.417,1.585l1.206,0.423l1.077,3.191l-0.359,1.353h-0.825
				l-0.295-0.127l-3.677-1.12l-0.592,0.823l-3.404-0.613l-0.614,0.888l-2.197-0.654l-3.256,0.718l-3.592-2.601l-2.008,1.523
				l-0.255,1.67l-1.521,0.76l-1.755-1.543l-0.234-1.755l-4.797-1.649l-0.826,1.1l-2.791,0.973l-2.07-0.318l-1.564,1.438l-2.05-0.401
				l-0.359,0.93l-1.374,0.337l-2.663-0.781l-0.403-1.754l-2.134-0.232l-3.127-6.047l-1.565,0.867l-2.917-1.69l-0.275-1.121
				l-0.866,0.169l-3.15-2.241l-0.718,1.184l-1.248-0.232l-2.112,2.812l-1.481-0.486l-1.818,0.972l-3.55-2.558l-1.29,1.289
				l-0.127,1.375l-0.908,0.042l-0.486,1.184l-0.889-0.338l-0.063-1.924l-1.901,0.021l-0.085-1.966l-3.149-2.283l-1.183-1.88
				l-1.057,0.465l-2.032-1.375l0.487-1.796l-0.739-1.162l0.381-0.867l-1.396-1.775l-3.126,1.332l-5.011-0.295l-0.572-0.698
				l-2.178,0.803l-3.043-1.67l-0.888-1.374l-3.974-0.634l-1.924-1.86l-1.606,1.247l-0.127-1.268l-4.016-2.199l-2.812,0.676
				l-2.665-2.008l2.242-3.848l-2.812,0.401l-1.416,1.459l-0.549,5.199l-4.968-1.394l-1.902-3.298l3.382-3.086l0.738-3.933
				l1.143-0.909l-0.021-4.925l-1.71-1.628l-2.877,0.107l-2.98-1.777l-2.812,0.444l0.358,0.761l-1.141,2.284l-1.837-0.19l-1.29-2.452
				l0.379-1.88l-1.711-0.381l-2.327-0.062l-2.155,1.057v-0.042l-0.339-2.453l-1.205-1.057l-2.812-0.591l1.46-0.889l-0.485-2.6
				l-3.34,1.269l-3.892,3.382l-2.619-0.127l-1.818,0.994l0.105,0.782l-2.261-0.422l-7.273,2.728l-1.903-0.592l-0.929-0.888
				l-1.27-0.571l-3.148,1.269l-4.143-0.275l-6.088-2.917l-2.77-3.214l-2.284,0.253l-0.738-1.331l-1.227,0.676l-0.993-0.993
				l-0.951,0.232l-1.649-1.924l-2.6,0.782l-2.727-1.839l-0.677-2.114l-1.902,0.782l-1.416,1.269l-7.906-0.443l0.022,1.839
				l-1.354-0.021l-1.966,2.368l-1.859,0.698l1.31,2.007l-0.359,1.797l-1.375-1.057l0.635-0.571l-0.825,0.592l-2.917-1.924h-0.678
				l-0.401,1.564l-0.676-0.908l-1.48,0.127l0,0.011l-2.22-0.815l-1.965-2.599l-4.313-1.016l-1.247,0.74l0.105-1.521l-2.452,0.591
				l-2.579-0.633l-1.015,0.654l-1.585-2.155l1.691-0.359l-0.403-1.65l-4.058-0.761l-0.824-1.67l-1.268,0.232l-0.655-1.311
				l-2.072,0.571l-0.043-0.888l-1.543,1.29l-1.796-0.126l-2.453,1.839l-1.944,0.126l-0.718,1.162l-0.72,0.635l-1.543,0.148
				l-0.296,1.248l-0.782,0.083l0.74,0.867l-1.333,0.847l-0.253-0.572l-0.295-0.654l-1.374-0.487l0.021-0.846l1.902-1.5l2.241-0.507
				l-1.332-0.825l0.127-1.099l-1.564-0.254l-1.522,1.269l-6.151,0.655l-1.776,2.453l-2.346-0.571l-0.804,1.247l-0.719-0.91
				l-0.444,0.931l-1.563-0.38l-1.734,1.543l-3.636,1.396l-6.046,1.036l-2.452-0.085l-0.93-1.268l-2.622,1.163l-2.072-0.593
				l-3.001,0.74l-2.367-0.359l-0.212-0.085l-6.129-0.105l-4.397-0.972l-6.744-2.495l-1.268,0.465l-0.211-0.994l-2.029,0.254
				l-2.979-1.543l-5.032,0.317l-6.342-2.071l-5.285,0.823l-4.565-4.862l-4.46-0.338l-0.931,0.72l-1.078-1.966l-5.052,0.845
				l-1.289-0.655l-4.334,0.381l-1.458-0.803l-1.628,1.247l-0.993-0.613l-0.486,0.677l-1.354-0.169l0.676-1.121l0.36-1.035
				l-4.524-0.909l-0.656-1.861l-1.246-0.76l0.485-1.121l-2.854-0.93l-0.698-1.332l-0.845,0.127l-0.064,1.501l-1.267,0.993
				l-1.967,0.021v1.374l-1.311,1.014l-1.078,1.184l-2.22,0.529l-1.374-1.227l-5.559,2.622l-2.601-1.121l-1.585,0.359l-0.825-0.676
				l-1.014-0.465l-1.332-1.225l-0.677,1.31l-5.686,2.136l-2.367-0.72l-1.903,0.571l-2.431-1.417l-0.17,1.712l-3.487,0.254
				l-0.507-0.803l-3.255,0.062l-0.212-0.887l-0.866,0.296l-0.465-0.803l-2.769,0.972l-2.029-0.275l-0.804,1.142l-1.226-1.416
				l-3.741,0.93l-2.473-1.289l-1.417,1.035l-0.739-0.908l-3.15-0.424l-0.443,0.529l-1.269,1.163l-3.107-0.275l-0.782,0.085
				l-3.974-0.465l-2.917,0.634l-4.249-1.247l-0.825,1.014l-0.359-0.338l0.613-1.184l-2.515-1.479l-0.232-0.381l-2.41-2.6
				l-1.121-3.128l-6.955-2.917l0.508-1.269l-2.643,0.062l-0.571-1.057l-1.839,0.508l-0.084,1.606l-1.543-0.125l0.465,1.479
				l-1.079,0.74l-0.359,2.093l-0.718-1.755l0.422-3.044l-1.247-0.337l-0.486-2.453l-2.092,0.508l-0.486,1.31l-1.142-0.464
				l2.199-3.044l-1.522-1.353l0.105,1.205l-2.092,2.071l-5.115,1.945l0.105,0.739l-1.057,0.508l1.311,1.184l-1.015,0.359
				l-0.528-1.099L224,105.176l0.93,1.924l-1.69,1.1l-1.438-0.825l1.924-0.084l-1.099-0.973l0.782-0.254l0.085-2.642l1.416,0.93
				l-1.206-1.987l0.698-2.282l-0.529-0.804l-1.332,0.868l-0.718-0.486l-1.333,2.283l-0.887,0.295l-0.084,1.015l-2.769,1.881
				l-1.882-0.698l-1.69,0.72l-0.783,3.55l1.184-0.042l0.063,0.888l-0.93,0.423l-0.887,0.486l-0.381-2.304l-1.035,2.072l-1.734,0.443
				l-0.781,1.396l-1.967-0.296l-0.253,1.585l-3.952,3.488l-1.967,0.105l-1.036-1.078l-0.739,0.655l1.67,2.072l-1.839,1.247
				l0.507,1.755l-1.67,2.579l0.486,0.486l1.269-0.929l1.206,0.379l1.585-0.422l1.142-0.529l0.972-0.233l-0.063,0.74l4.016-1.987
				l-0.486,1.458l-0.591,0.401l-1.163,0.994l-1.565,0.296l-1.5-0.825l-0.697,0.887l-0.274-0.655l-2.304,0.697l0.465,0.676
				l1.396,0.825l1.204,1.396l1.67-0.846l0.803,0.867l1.121-0.656l1.374,0.444l-0.063,0.656l-1.882,0.127l-0.867,1.31l0.656,2.326
				l-0.613,0.803l0.444,0.972l0.19,1.121l-2.431-1.881l0.233-1.121l-0.931-1.394l-1.796-0.192l-0.697-1.647l-2.474,0.74
				l-0.296,1.226l0.973,0.211l-0.655,2.474l-2.008,0.402l0.021-0.974l-1.099-0.696l1.141-0.402l-1.015-1.734l-0.423,1.586
				l-1.606-1.058l-1.164,1.819l-1.204,0.591l-1.058-0.486l-0.845,2.473l-1.374,0.952l-1.29,0.359l-2.938-0.909l-5.708,2.494
				l-4.523-1.036l-3.128-3.234l-0.338,2.03l-1.459-0.253l-0.21,0.802l-2.073-0.738l0.169,2.261l-1.015-0.063l-0.168,0.931
				l-1.649-0.952l-1.966,1.5l0.867,1.079l1.396-0.106l0.846,2.325l-0.444,0.466l-2.029-0.127l-0.952,0.972l-0.888-1.289l-1.69,3.127
				l-2.24,0.931l-2.834-1.311l-0.295,0.591l-0.867-0.401l-0.401,1.036l-1.057-0.72l-0.338,2.051l-1.077,0.909l-0.868-0.55
				l0.591,2.58l1.185,0.401l1.057-2.241l0.148,2.303l-1.269,2.558l-2.072-1.965l-0.106,2.135l-2.05-0.338l-0.064,3.191l-1.013,0.487
				l-1.333-0.846l1.249,3.593l1.669,0.465l-0.38,0.655l-0.782-0.38l0.043,2.304l-1.691,2.601l-0.254,1.416l1.332,0.908l-0.254,1.523
				l0.697,0.74l0.212-2.854l1.797-0.761l0.042-1.121l0.782-0.042l0.676,1.902l1.543,0.106l-0.634-3.235l1.945,3.573l1.902,0.318
				l-1.247,2.727l1.142,2.261l1.204,0.19l0.211,1.522l-2.473,1.945l0.93,0.508l1.015,2.959l1.035-0.064l0.613,1.226l2.368-2.389
				l-0.867-1.5l1.29,0.085l1.29-1.184l0.212,1.648l1.944,0.233l0.063-1.163l1.078,1.121l1.712-2.156l0.38,0.74l0.952-0.402
				l0.21-2.536l1.016,1.437l-0.761,1.966l-0.592-0.043l-0.867,0.359l-1.882,3.108L159.845,181l-1.375,2.41h-0.803l-1.057,5.876
				l-2.854,4.566l0.973,0.782l1.036-0.761l1.269,1.438l-0.55,3.148l3.108-1.394l0.063-2.368l1.48-0.317l0.613-1.164l1.818-0.147
				l-1.015-1.648l2.135-2.432l1.501,0.486l-0.783,1.712l1.754,0.318l-0.064-1.544l1.184-0.486l-1.332-1.1l0.591-1.479l0.655,0.337
				l-0.02-2.029l1.605,1.67l-0.528,1.543l1.014,0.698l1.987-1.29l0.824,0.444l-1.331,2.558l0.718,1.036l-1.691,1.691l-1.987,0.317
				l-0.212,1.057l-0.296,0.867l0.592,2.431l0.422,0.994l0.719,0.993l-1.332,0.909l0.825,2.558l-1.396-1.037l-1.585,1.142
				l-0.17-1.078l0.952-0.845l-0.909-2.241l-1.162,0.591l0.126,0.972l-2.769,0.106l-0.359,1.268l0.993,0.994l0.824-0.888l1.522,0.402
				l0.781,1.691l-0.528,1.585l2.431,2.39l1.395-1.291l2.305,1.015l4.777-4.037l0.507,1.458l1.733-0.528l-4.207,3.276l-1.691,3.467
				l-1.839,0.93l-0.909-0.846H168.3l1.057,1.944l0.168,2.642l-0.824,0.022l-1.438-2.389l-0.993,4.566l0.549,0.254l0.444-1.142
				l1.438,0.74l0.972-0.613l1.205,0.993l0.55-1.289l1.035,0.402l1.585-1.036l0.359-1.183l0.782-0.149l0.317,1.015l3.043-1.184
				l-0.084-1.838l1.375-0.889l0.232-2.092l1.227,0.761l-0.91,2.642l0.867,1.67l-2.832,0.189l-4.63,4.524l-0.697-0.38l-0.508-0.126
				l-0.909,2.071l-2.135,1.374l-0.423,2.388l-1.585,0.022l1.754,1.269l-0.294,1.838l-0.593,0.296l-0.952-1.227l-1.648,1.353
				l-1.226-0.042l1.416,8.561l-0.718,2.114l0.465,7.44l0.592,1.037l2.854-3.615l3.719-1.776l0.613-2.262l4.629-2.896l0.486-2.134
				l1.417-1.522l4.967-0.422l1.142-0.635l0.296-1.269l4.439-0.211l1.1,0.761l2.41-0.338l1.057-1.058l1.838,0.444l0.783-1.479
				l3.488-1.458l0.634-1.311l1.332,0.444l1.48-1.607l0.866,6.66l3.996-0.889l1.69,2.475l-0.232,2.493l-2.368,0.782l-1.902,1.839
				l-3.107,5.455l0.866,2.895l1.797-0.232l0.339,4.334l2.134,0.739l4.144-0.591l2.389-1.099l2.072-3.213l3.255-0.401l1.078-3.742
				l1.014,0.381l-0.338,4.649l0.719,0.825l2.494-2.219l2.601-0.296l1.796-1.184l1.206,0.465l2.113-1.141l2.431,1.86l4.291,0.296
				l-0.972,0.866l-0.656,2.917l4.883-0.823l1.987-2.348l2.495,0.72l1.48,4.037l3.318-3.298l0.571,0.804l2.388-0.169l6.701-2.812
				l1.206-2.938l-0.74-1.796l0.613-2.959l3.425-0.465l1.775,0.993l1.1,1.903l3.53-0.106l1.449-1.738l1.32,0.407l0.825,1.775
				l6.553,0.042l1.733-3.615l1.585,0.444l1.353,3.276l2.98,0.698l4.524-0.571l1.839-1.987l2.389,2.622l-1.437,3.678l3.171,1.121
				l-3.023,9.575l1.12,1.585l-0.084,2.939l2.853,2.241l2.41-0.847l0.803-1.247l8.456,1.966l3.572,4.058l1.67,0.698l0.782,1.755
				l-6.574,9.491l0.507,1.268l-2.114,1.755l0.91,1.818l-1.987,0.634l-0.952-1.12l-1.247,0.655l-0.169,1.184l0.909,0.76l-2.178,0.867
				l-1.817,3.636l-2.368,0.697l0.529,1.099l-0.803,0.635l-1.078,0.274l-0.592-0.825l-2.98,2.791l-0.973-1.225l-0.549,0.823
				l-2.812-0.232l-2.431,2.875l-0.444,2.072l-4.038,3.763l0.761,2.41l-3.001,4.884l-2.959,0.718l-3.149-0.867l-0.952,0.697
				l0.613,1.965l3.593,3.953l0.635,3.679l2.219,1.437l0.465,1.691v1.101l-1.458,0.274l0.571,2.813l-0.826,3.995l2.03,6.996
				l-2.769,6.891l2.388,1.395l0.296,2.897l-2.938,4.735l0.656,2.981l3.15,3.382l-0.613,2.557l-3.996,2.45l-0.296,2.326l-2.536,1.037
				l-2.432-0.254l-0.739,1.501l-2.622,0.823l-1.078,3.001l1.753,5.115l3.467,0.698l4.376,7.255l-1.205,2.387l-0.275,3.342
				l-0.951,0.824l-0.168,4.523l-2.517,2.938l-1.86,0.869l0.528,2.957l-2.304,7.566l-2.959,0.973l-3.361-0.4l-1.31,0.76l-5.94-1.014
				l-4.84,1.945l-6.955-1.586l-4.841-0.168l0.846,0.59l1.585,4.969l1.817,0.865l2.136,3.172l2.261,0.34l0.529,2.936l0.93,0.678
				l0.952-0.463l3.023,2.049l-0.276,3.424l-1.353,2.557l0.93,3.34l4.291,4.207l-0.93,2.008l0.465,2.877l1.479,1.457l4.692,1.691
				l-0.74,3.594l0.529,0.994l1.755,0.654l4.291-1.291l2.557,1.693l1.543,2.918l0.529,2.156l-5.517,8.645l1.057,2.072l-0.38,1.141
				l-1.626,0.76l-1.819,2.686l-1.923,0.254l-4.63,4.967l-2.875,1.627l-0.718,6.258l1.627,1.078l-3.425,5.879l-1.099,4.711l1.5,0.232
				l-2.156,2.77l1.057-0.273l2.093,1.438l0.422,2.027l5.813,8.182l0.973,0.273l0.931,3.469l3.064,4.227l0.952-1.078l2.177,0.211
				l0.972-1.477l1.84-0.51l0.508,0.529l0.908-0.996l1.184-0.125l0.317,1.014l-1.775,2.559l-0.063,1.078l0.803,0.441l-1.987,3.619
				l-1.204,5.895l-3.108,0.277l-2.326-1.775l-1.416,1.014l-0.254,1.881l-4.164,0.02l-3.277,1.482l0.191,4.016l-1.5,2.135
				l-1.121,4.059l-5.37,5.455l-1.585,0.484l-1.945,7.904l-2.875,3.129l-0.211,3.256l-0.888,0.424l0.698,2.219l1.141,0.127
				l0.445,1.775l1.204,0.783l-0.359,1.248l1.394,3.656l-1.057,0.676l1.29,1.395l-0.064,5.73l1.184,2.641l-0.676,1.691l1.035,1.416
				l0.635,3.51l2.05,0.803l2.093-1.67l15.579-1.205l5.687,2.602l0.718,0.043l0.973-1.059l3.995,3.148l5.876,2.707l13.444,8.943
				l4.736,5.643l2.727,6.574l2.346,1.373l-4.904,3.91l2.79,7.441l2.093,1.354l1.818,0.359l0.845-0.508l-0.591,0.357l1.29-0.379
				l1.945,2.684l2.114-0.104l0.528,0.971l-0.486,1.945l-1.564,2.748l-0.422,0.297l-1.1-2.115l0.127-0.213l-0.739-0.211l0.147,0.719
				l4.165,9.197l2.114,1.922l2.134,4.988l2.199,0.824l3.91,7.316l6.85-0.17l3.255,2.725l3.635,4.758l1.099-0.697l3.213,1.965
				l2.093-0.441l2.452,1.311l2.071,2.98l6.977-3.363l1.246,0.277l1.944-1.461l-0.972-5.029l1.269-2.473l2.261-0.232l1.226,1.543
				l1.48,0.084l1.31-5.326l3.911-5.582l1.627-4.736l2.431-2.811l1.291,0.064l4.27-2.518l4.313-0.609l5.41-3.301l3.404-0.041
				l6.277,1.543l6.004-1.629l1.903-3.846l4.059-1.459l1.268-1.289l5.664-8.475l-0.083,0.822l1.226-1.121l3.848,0.807l8.371-0.236
				l4.46-0.654l2.092-1.732l6.448,1.586l7.018-2.01l3.869,1.754l1.014-0.57l1.184,1.291l0.804-0.973l2.177,0.23l1.163-1.227
				l3.171,0.191l2.662,2.092l1.904-0.25l2.41,1.52l3.466,0.234l3.171-1.459l1.522-1.711l4.883-1.123l15.833,1.184l3.065-1.016
				l4.249,4.102l2.007-0.738l2.474,1.711l4.037-0.127l3.043-1.205l1.437-1.543l3.553-6.828l4.755-1.373l0.932,0.676l-0.739-0.76
				l2.854,1.902l3.444-2.199l2.812,0.508l3.13,2.473l4.628,5.686l3.637-0.969l0.93-2.135l2.601-1.08l0.021-1.354l1.649-1.754
				l2.261-1.078l-0.232-2.939l0.74-0.992l1.33-0.275l1.524-2.662h1.922l0.614-0.889l-0.276-2.898l2.961-5.727l2.832-11.266
				l5.264-5.709l1.86-3.465l2.831-1.482l-0.307-0.24l1.767-1.787l1.945-0.318l2.449-1.945l1.884,0.613l1.564-4.629l3.382-1.477
				l4.269-4.02l4.017,0.359l0.655-1.373l2.41,0.189l1.861,1.373l0.316,1.334l3.192,0.508l-0.932-1.293l0.973-1.203l2.093-1.141
				l2.896,0.803l0.867-0.932l1.162,0.299l0.803,0.357l0.487,0.572l0.252,0.57l2.476,0.484l2.43-1.773l1.818-0.488l1.437,0.721
				l2.157-1.459l3.507-0.846l1.903-2.305l-0.846,0.086l-0.888-1.48l-1.247,1.67l-3.594-1.924l-3.51-4.65l0.932-2.07l2.348-2.031
				l1.118-2.98l2.073,2.051l-0.786-4.03l0.046-0.007l0.654-3.637l1.775-0.992l1.247-4.037l1.882-0.635l1.163-1.881l0.254-7.188
				l1.586-5.201l1.246-1.268l4.038-0.084l0.844-1.014l-0.612-5.688l0.889-3.805l1.289-0.615l1.965-1.393l2.453,0.719l-0.021-3.785
				l1.649-2.832l5.072-3.34l6.554-2.072l1.247-1.438l3.106,0.826l2.686-2.812l-0.74-1.184l1.988-2.918l1.521-0.908l1.858,0.359
				l1.101-1.184l1.437-0.297l1.417-1.984l1.796-1.016l1.185,0.441l1.881-2.916l2.96-1.164l-0.571-2.047l-0.804,0.316l-1.098-1.014
				l-0.465-1.439l0.844-0.824l-5.094-3.045l-7.461-2.154l-7.971-8.75l-4.438-10.973l-0.128-2.307l1.29-0.908l-5.136-10.738
				l-1.777-7.758l0.951-0.441l-0.04-5.139l3.296-7.229l2.961-3.32l1.733-5.938l5.621-9.303l1.036-0.084l3.404-4.121l3.147-8.752
				l5.604-3.677l2.791-6.98l4.163-2.662l1.205-3.341l2.24-1.713l4.756-6.13l0.509-3.213l3.256-4.987l2.229-4.252l0.009,0.004
				l1.417-3.384l3.13-3.676l0.484-0.426l3.552-0.337l1.776-1.142l2.958,0.421l0.782-0.485l5.139-2.706l2.873-3.085l-3.784-0.953
				l-3.595-4.438l-1.605,0.085l2.283,1.711l-2.96-0.103l-1.752-2.686l2.345-1.439l0.592-1.754l2.305-1.52l3.996-6.11l7.207-7.146
				l3.722-1.796l4.397-0.782l2.578,1.5l2.113-3.403l2.05-0.76l0.063,0.613l3.066-1.945l5.58-0.38l6.574-3.572l13.357-3.065
				l4.164-1.332l3.024-0.043l3.571-1.902l5.031-0.253l5.348-1.692l1.776-1.416l1.522-2.685l1.184-2.938l0.826-0.528l4.31-5.666
				l6.259-2.642l8.538-5.644l14.017-6.024l0.803-1.967l1.502-1.141l6.805-2.114l2.41-3.212l3.891-1.67l3.338-5.115l1.714,0.252
				l1.121-1.585l1.479-0.444l0.296-1.521l1.5-1.057l0.464-3.128l0.889-0.613l-0.17-1.501l-1.203-0.318l-1.334-2.621l0.572,0.085
				l-0.021-3.001l0.866-1.819l-2.475-2.832l-1.711-0.783l-0.868-1.586l-0.212-5.178l1.311-3.297l1.883-1.29l0.613,1.437l2.198,1.1
				l0.55-1.501l2.029,1.036l-0.549-1.184l1.457-0.021l0.507-0.951l-0.612-1.607l1.291,0.147L865.848,214.842z M510.554,237.566
				 M510.639,237.693 M720.492,190.863l0.284,0.071 M161.874,208.734l0.042,2.049l1.396-3.128l-0.655-0.254L161.874,208.734z
				 M167.012,194.338l-0.783,0.21l-0.274-0.739l-0.972,0.402l1.311,0.825l-0.613,1.31l-0.106,0.528l0.444,0.698l0.571-0.084
				l-0.232-1.417l0.909-0.168L167.012,194.338z"/>
		</g>
	</g>
</g>
<circle class="map_pointer" data-product="ternera-gallega" xmlns="http://www.w3.org/2000/svg" cx="169.984" cy="160.487" r="5px" stroke="0" fill="#c4b8b5"/>
<circle class="map_pointer" data-product="queso-cabrales" xmlns="http://www.w3.org/2000/svg" cx="400.1" cy="136" r="5px" stroke="0" fill="#c4b8b5"/>
<circle class="map_pointer" data-product="ternera-de-navarra" xmlns="http://www.w3.org/2000/svg" cx="582.1" cy="180" r="5px" stroke="0" fill="#c4b8b5"/>
<circle class="map_pointer" data-product="peras-de-rincon-de-soto" xmlns="http://www.w3.org/2000/svg" cx="565.1" cy="223" r="5px" stroke="0" fill="#c4b8b5"/>
<circle class="map_pointer" data-product="carne-de-avila" xmlns="http://www.w3.org/2000/svg" cx="401.1" cy="335.2" r="5px" stroke="0" fill="#c4b8b5"/>
<circle class="map_pointer" data-product="pimenton-de-la-vera" xmlns="http://www.w3.org/2000/svg" cx="351.1" cy="389.2" r="5px" stroke="0" fill="#c4b8b5"/>
<circle class="map_pointer" data-product="torta-del-casar" xmlns="http://www.w3.org/2000/svg" cx="305.1" cy="432.2" r="5px" stroke="0" fill="#c4b8b5"/>
<circle class="map_pointer" data-product="ternera-de-extremadura" xmlns="http://www.w3.org/2000/svg" cx="306.1" cy="468.2" r="5px" stroke="0" fill="#c4b8b5"/>
<circle class="map_pointer" data-product="los-pedroches" xmlns="http://www.w3.org/2000/svg" cx="400.1" cy="502.2" r="5px" stroke="0" fill="#c4b8b5"/>
<circle class="map_pointer" data-product="queso-manchego" xmlns="http://www.w3.org/2000/svg" cx="536.1" cy="442.2" r="5px" stroke="0" fill="#c4b8b5"/>
<circle class="map_pointer" data-product="citricos-valencianos" xmlns="http://www.w3.org/2000/svg" cx="649.1" cy="429.2" r="5px" stroke="0" fill="#c4b8b5"/>
<circle class="map_pointer" data-product="sobrasada-de-mallorca" xmlns="http://www.w3.org/2000/svg" cx="835.1" cy="420.2" r="5px" stroke="0" fill="#c4b8b5"/>
<circle class="map_pointer" data-product="queso-de-mahon" xmlns="http://www.w3.org/2000/svg" cx="919.1" cy="396.2" r="5px" stroke="0" fill="#c4b8b5"/>
<circle class="map_pointer" data-product="platano-de-canarias" xmlns="http://www.w3.org/2000/svg" cx="768.1" cy="655.3" r="5px" stroke="0" fill="#c4b8b5"></circle>
<circle class="map_pointer" data-product="jabugo" xmlns="http://www.w3.org/2000/svg" cx="289.1" cy="544.2" r="5px" stroke="0" fill="#c4b8b5"/>
<circle class="map_pointer" data-product="uva-vinalopo" xmlns="http://www.w3.org/2000/svg" cx="637.1" cy="486.2" r="5px" stroke="0" fill="#c4b8b5"/>
<circle class="map_pointer" data-product="turron-de-jijona" xmlns="http://www.w3.org/2000/svg" cx="646.7" cy="501.2" r="5px" stroke="0" fill="#c4b8b5"/>
<circle class="map_pointer" data-product="aceite-de-magina" xmlns="http://www.w3.org/2000/svg" cx="478.7" cy="561.2" r="5px" stroke="0" fill="#c4b8b5"/>
<circle class="map_pointer" data-product="priego-de-cordoba" xmlns="http://www.w3.org/2000/svg" cx="457.7" cy="576.2" r="5px" stroke="0" fill="#c4b8b5"/>
<circle class="map_pointer" data-product="vinagre-de-jerez" xmlns="http://www.w3.org/2000/svg" cx="324.7" cy="631.2" r="5px" stroke="0" fill="#c4b8b5"/>

</svg>
