<?xml version="1.0" encoding="utf-8"?>
<!-- Generator: Adobe Illustrator 16.0.0, SVG Export Plug-In . SVG Version: 6.00 Build 0)  -->
<!DOCTYPE svg PUBLIC "-//W3C//DTD SVG 1.1//EN" "http://www.w3.org/Graphics/SVG/1.1/DTD/svg11.dtd">
<svg version="1.1" id="Capa_1" xmlns="http://www.w3.org/2000/svg" xmlns:xlink="http://www.w3.org/1999/xlink" x="0px" y="0px"
	 width="54.717px" height="97.489px" viewBox="0 0 54.717 97.489" enable-background="new 0 0 54.717 97.489" xml:space="preserve">
<g>
	<path fill-rule="evenodd" clip-rule="evenodd" fill="#61604D" d="M13.855,46.227c0.251-6.612,1.589-11.684,4.006-15.208
		c2.419-3.527,5.78-5.305,10.078-5.342c4.182,0.052,7.425,1.859,9.732,5.429c2.305,3.568,3.469,8.609,3.5,15.121
		c-0.032,6.942-1.255,12.334-3.676,16.168c-2.415,3.836-5.835,5.78-10.255,5.837c-4.265-0.042-7.565-1.822-9.905-5.336
		c-2.343-3.517-3.529-8.51-3.564-14.977C13.763,47.391,13.789,46.829,13.855,46.227 M0,47.306c0.044,5.093,1.227,9.6,3.548,13.517
		c2.332,3.917,5.525,6.994,9.6,9.228c4.067,2.232,8.742,3.371,14.02,3.417c5.328-0.048,10.062-1.234,14.188-3.557
		c4.126-2.323,7.373-5.52,9.742-9.588c2.373-4.069,3.576-8.743,3.62-14.022c-0.037-5.117-1.188-9.618-3.45-13.513
		c-2.262-3.892-5.377-6.937-9.366-9.136c-3.982-2.197-8.589-3.318-13.813-3.357c-5.437,0.046-10.252,1.238-14.465,3.564
		c-4.208,2.331-7.521,5.518-9.933,9.566C1.277,37.477,0.05,42.1,0,47.306"/>
	<path fill-rule="evenodd" clip-rule="evenodd" fill="#BD2E18" d="M47.882,1.845L44.328,0c-0.733,2.158-1.743,3.871-3.018,5.137
		c-1.275,1.27-2.635,1.922-4.082,1.952c-1.358-0.048-2.765-0.488-4.213-1.333c-1.443-0.839-2.883-1.814-4.314-2.921
		c-1.401-1.05-2.676-1.785-3.818-2.212C23.743,0.194,22.651-0.013,21.602,0c-2.874,0.059-5.482,1.188-7.813,3.405
		c-2.339,2.214-4.233,5.195-5.684,8.94l3.55,1.842c0.741-2.154,1.745-3.867,3.02-5.144c1.277-1.275,2.637-1.927,4.085-1.955
		c1.358,0.041,2.765,0.489,4.208,1.334c1.447,0.844,2.888,1.824,4.315,2.934c1.404,1.046,2.677,1.782,3.819,2.212
		c1.137,0.428,2.234,0.632,3.286,0.619c2.87-0.055,5.475-1.186,7.812-3.4C44.537,8.574,46.427,5.592,47.882,1.845"/>
	<polygon fill-rule="evenodd" clip-rule="evenodd" fill="#BD2E18" points="1.049,97.368 4.614,97.368 4.614,96.64 2.049,96.64 
		2.049,94.738 3.939,94.738 3.939,93.986 2.049,93.986 2.049,92.086 4.624,92.086 4.624,91.364 1.049,91.364 	"/>
	<path fill-rule="evenodd" clip-rule="evenodd" fill="#BD2E18" d="M11.971,97.488c0.392,0.004,0.757-0.044,1.083-0.146
		c0.333-0.102,0.599-0.281,0.793-0.528c0.201-0.25,0.307-0.597,0.312-1.041c-0.011-0.484-0.151-0.857-0.423-1.118
		c-0.268-0.259-0.578-0.466-0.931-0.619c-0.351-0.159-0.661-0.316-0.93-0.488c-0.268-0.163-0.406-0.397-0.425-0.697
		c0.007-0.233,0.072-0.41,0.194-0.538c0.121-0.122,0.277-0.209,0.464-0.253c0.19-0.048,0.382-0.066,0.583-0.064
		c0.224,0,0.451,0.021,0.678,0.061c0.231,0.035,0.46,0.091,0.673,0.159v-0.765c-0.248-0.078-0.505-0.135-0.776-0.17
		c-0.271-0.033-0.534-0.048-0.798-0.048c-0.36,0-0.696,0.055-1.007,0.177c-0.312,0.12-0.567,0.305-0.762,0.562
		c-0.194,0.248-0.293,0.567-0.299,0.961c0.011,0.459,0.155,0.818,0.425,1.077c0.271,0.262,0.584,0.473,0.937,0.643
		c0.356,0.163,0.67,0.329,0.94,0.491c0.268,0.167,0.41,0.383,0.423,0.645c-0.005,0.264-0.072,0.473-0.199,0.612
		c-0.139,0.144-0.305,0.242-0.506,0.294c-0.211,0.053-0.427,0.077-0.656,0.077c-0.241,0-0.474-0.024-0.712-0.07
		c-0.23-0.044-0.462-0.111-0.686-0.194v0.735c0.251,0.114,0.514,0.187,0.782,0.212C11.416,97.484,11.691,97.492,11.971,97.488"/>
	<path fill-rule="evenodd" clip-rule="evenodd" fill="#BD2E18" d="M21.581,92.064c0.334,0.003,0.597,0.092,0.769,0.268
		c0.174,0.179,0.266,0.44,0.266,0.774c0,0.336-0.086,0.61-0.258,0.83c-0.172,0.216-0.433,0.331-0.776,0.336h-0.457v-2.208H21.581z
		 M21.125,94.973h0.457c0.39,0,0.743-0.074,1.057-0.216c0.314-0.148,0.563-0.364,0.75-0.642c0.185-0.282,0.279-0.626,0.287-1.035
		c-0.007-0.388-0.107-0.708-0.311-0.963c-0.2-0.251-0.46-0.443-0.776-0.565c-0.314-0.127-0.654-0.188-1.007-0.188h-1.456v6.004h1
		V94.973z"/>
	<path fill-rule="evenodd" clip-rule="evenodd" fill="#BD2E18" d="M31.384,92.739h0.009c0.005,0.017,0.005,0.081,0.009,0.194
		c0.009,0.114,0.015,0.196,0.029,0.244l0.666,2.071h-1.423l0.684-2.071c0.013-0.048,0.019-0.129,0.022-0.244
		C31.384,92.82,31.384,92.756,31.384,92.739 M32.718,97.368h1.053l-2-6.004h-0.728l-2.016,6.004h0.989l0.433-1.351h1.853
		L32.718,97.368z"/>
	<path fill-rule="evenodd" clip-rule="evenodd" fill="#BD2E18" d="M43.096,97.368h0.763v-6.004h-0.896v3.977
		c0,0.055,0.007,0.116,0.007,0.192c0.006,0.072,0.013,0.129,0.022,0.177h-0.009c-0.013-0.054-0.03-0.112-0.044-0.181
		c-0.009-0.067-0.035-0.126-0.064-0.176l-2.661-3.99h-0.734v6.004h0.898v-3.936c0-0.044-0.007-0.1-0.017-0.175
		c-0.007-0.07-0.015-0.129-0.03-0.174h0.015c0.009,0.059,0.024,0.116,0.05,0.181c0.024,0.063,0.046,0.122,0.076,0.168L43.096,97.368
		z M43.029,90.211v-0.599c-0.095,0.081-0.214,0.157-0.358,0.242c-0.141,0.083-0.27,0.129-0.388,0.135
		c-0.207-0.009-0.412-0.059-0.608-0.148c-0.202-0.08-0.403-0.127-0.614-0.14c-0.137,0.005-0.273,0.072-0.419,0.19
		c-0.148,0.115-0.264,0.229-0.347,0.334v0.565c0.092-0.076,0.207-0.149,0.34-0.231c0.137-0.081,0.266-0.125,0.384-0.135
		c0.196,0.009,0.407,0.065,0.613,0.149c0.211,0.091,0.421,0.139,0.632,0.15c0.133-0.009,0.273-0.07,0.414-0.181
		C42.824,90.431,42.938,90.316,43.029,90.211"/>
	<path fill-rule="evenodd" clip-rule="evenodd" fill="#BD2E18" d="M51.921,92.739h0.011c0,0.017,0,0.081,0.011,0.194
		c0.004,0.114,0.011,0.196,0.022,0.244l0.666,2.071h-1.421l0.686-2.071c0.013-0.048,0.022-0.129,0.022-0.244
		C51.921,92.82,51.921,92.756,51.921,92.739 M53.251,97.368h1.053l-1.996-6.004h-0.73l-2.012,6.004h0.987l0.429-1.351h1.859
		L53.251,97.368z"/>
	<path fill-rule="evenodd" clip-rule="evenodd" fill="#61604D" d="M2.402,82.951c0.326,0.007,0.584,0.12,0.772,0.333
		c0.19,0.211,0.326,0.469,0.409,0.771c0.08,0.297,0.12,0.583,0.12,0.854c0,0.26-0.03,0.526-0.098,0.8
		c-0.076,0.277-0.2,0.506-0.373,0.699c-0.172,0.19-0.419,0.287-0.735,0.294c-0.32-0.007-0.575-0.104-0.772-0.302
		c-0.194-0.197-0.336-0.436-0.425-0.724c-0.085-0.282-0.129-0.563-0.129-0.84c0-0.261,0.035-0.534,0.108-0.824
		c0.074-0.292,0.202-0.536,0.383-0.739C1.838,83.065,2.084,82.958,2.402,82.951 M2.448,87.167c0.46-0.004,0.83-0.113,1.112-0.314
		c0.279-0.209,0.484-0.488,0.614-0.828c0.127-0.347,0.187-0.726,0.187-1.151c0-0.404-0.07-0.785-0.209-1.146
		c-0.138-0.366-0.353-0.66-0.643-0.889c-0.286-0.233-0.652-0.349-1.098-0.356c-0.439,0.007-0.8,0.127-1.083,0.362
		c-0.279,0.231-0.488,0.532-0.626,0.893c-0.133,0.364-0.203,0.745-0.2,1.144c0,0.408,0.068,0.781,0.214,1.125
		c0.141,0.348,0.351,0.623,0.64,0.835C1.645,87.053,2.01,87.16,2.448,87.167"/>
	<path fill-rule="evenodd" clip-rule="evenodd" fill="#61604D" d="M12.756,83.021c0.275,0,0.479,0.066,0.608,0.207
		c0.125,0.135,0.187,0.336,0.187,0.606c0,0.271-0.061,0.475-0.194,0.619c-0.125,0.139-0.331,0.211-0.6,0.211h-0.508v-1.643H12.756z
		 M14.613,87.149l0.202-0.351c-0.089-0.013-0.163-0.035-0.22-0.062c-0.046-0.026-0.09-0.07-0.133-0.133l-1.025-1.56
		c0.168-0.044,0.313-0.129,0.43-0.257c0.12-0.127,0.209-0.277,0.27-0.442c0.059-0.168,0.089-0.334,0.089-0.5
		c-0.009-0.429-0.15-0.749-0.411-0.959c-0.264-0.209-0.591-0.311-0.99-0.309h-1.187v4.501h0.61v-1.966h0.625l1.005,1.754
		c0.066,0.112,0.148,0.188,0.253,0.234c0.1,0.05,0.216,0.072,0.334,0.068c0.022,0,0.044-0.004,0.076-0.009
		C14.57,87.156,14.591,87.152,14.613,87.149L14.613,87.149z"/>
	<rect x="21.938" y="82.576" fill-rule="evenodd" clip-rule="evenodd" fill="#61604D" width="0.613" height="4.501"/>
	<path fill-rule="evenodd" clip-rule="evenodd" fill="#61604D" d="M31.881,87.173c0.241,0.004,0.475-0.009,0.719-0.039
		c0.237-0.033,0.47-0.092,0.693-0.19v-2.363h-1.604v0.53h0.992v1.486c-0.096,0.033-0.188,0.05-0.294,0.061
		c-0.098,0.015-0.201,0.022-0.297,0.022c-0.358-0.004-0.654-0.093-0.891-0.266c-0.233-0.17-0.405-0.399-0.521-0.678
		c-0.11-0.281-0.17-0.587-0.17-0.92c-0.002-0.333,0.046-0.64,0.139-0.913c0.094-0.279,0.253-0.503,0.468-0.667
		c0.22-0.168,0.51-0.257,0.881-0.259c0.167,0.002,0.331,0.017,0.488,0.044c0.161,0.027,0.321,0.062,0.477,0.105v-0.516
		c-0.177-0.037-0.36-0.068-0.545-0.092c-0.188-0.024-0.373-0.035-0.563-0.035c-0.462,0.005-0.839,0.116-1.133,0.336
		c-0.293,0.216-0.512,0.501-0.652,0.859c-0.139,0.357-0.208,0.745-0.208,1.168c0,0.416,0.079,0.798,0.229,1.146
		c0.155,0.352,0.38,0.638,0.68,0.85C31.064,87.055,31.436,87.167,31.881,87.173"/>
	<polygon fill-rule="evenodd" clip-rule="evenodd" fill="#61604D" points="40.747,87.073 43.328,87.073 43.328,86.609 
		41.362,86.619 41.362,85.021 42.796,85.021 42.796,84.545 41.362,84.553 41.362,83.043 43.31,83.043 43.31,82.576 40.747,82.576 	
		"/>
	<path fill-rule="evenodd" clip-rule="evenodd" fill="#61604D" d="M53.46,87.073h0.456v-4.498h-0.584v3.226
		c0,0.031,0.008,0.066,0.008,0.102c0.007,0.036,0.015,0.067,0.022,0.104h-0.015c-0.007-0.027-0.007-0.066-0.022-0.112
		c-0.011-0.048-0.024-0.083-0.037-0.105l-2.114-3.213h-0.457v4.498h0.591v-3.25c0-0.026-0.009-0.057-0.022-0.105
		c-0.013-0.048-0.028-0.082-0.031-0.111h0.011c0.008,0.03,0.021,0.06,0.026,0.1c0.011,0.037,0.022,0.07,0.033,0.09L53.46,87.073z"/>
</g>
</svg>
