<?xml version="1.0" encoding="utf-8"?>
<!-- Generator: Adobe Illustrator 16.0.0, SVG Export Plug-In . SVG Version: 6.00 Build 0)  -->
<!DOCTYPE svg PUBLIC "-//W3C//DTD SVG 1.1//EN" "http://www.w3.org/Graphics/SVG/1.1/DTD/svg11.dtd">
<svg version="1.1" id="Capa_1" xmlns="http://www.w3.org/2000/svg" xmlns:xlink="http://www.w3.org/1999/xlink" x="0px" y="0px"
	 width="107.045px" height="107.144px" viewBox="321.679 222.856 107.045 107.144"
	 enable-background="new 321.679 222.856 107.045 107.144" xml:space="preserve">
<g>
	<g>
		<g>
			<polyline fill="#E6243D" points="378.976,228.595 383.578,223.521 386.41,229.776 391.744,225.479 393.56,232.107 
				399.505,228.694 400.261,235.529 406.671,233.088 406.341,239.949 413.051,238.549 411.667,245.274 418.508,244.94 
				416.085,251.372 422.898,252.108 419.497,258.078 426.109,259.875 421.816,265.236 428.082,268.048 422.998,272.676 
				428.724,276.425 422.994,280.207 428.082,284.813 421.816,287.637 426.109,292.982 419.484,294.799 422.892,300.749 
				416.073,301.505 418.506,307.91 411.65,307.596 413.051,314.31 406.334,312.918 406.671,319.77 400.244,317.344 399.505,324.16 
				393.539,320.757 391.744,327.378 386.387,323.083 383.578,329.335 378.958,324.257 375.203,330 371.438,324.257 366.829,329.335 
				364.007,323.083 358.661,327.378 356.847,320.753 350.901,324.16 350.149,317.33 343.737,319.77 344.061,312.908 337.353,314.31 
				338.744,307.578 331.899,307.91 334.328,301.489 327.508,300.746 330.909,294.786 324.297,292.982 328.586,287.615 
				322.335,284.813 327.41,280.187 321.679,276.425 327.41,272.653 322.335,268.048 328.59,265.218 324.297,259.873 
				330.921,258.056 327.508,252.108 334.332,251.348 331.899,244.94 338.753,245.256 337.353,238.545 344.079,239.938 
				343.737,233.088 350.163,235.514 350.901,228.693 356.869,232.094 358.661,225.475 364.019,229.775 366.834,223.521 
				371.455,228.589 375.203,222.856 378.976,228.595 			"/>
		</g>
		<path fill="#FFDC2E" d="M328.388,276.425c0-25.876,20.959-46.852,46.814-46.852s46.815,20.976,46.815,46.852
			c0,25.875-20.958,46.854-46.815,46.854C349.348,323.279,328.388,302.301,328.388,276.425"/>
		<path fill="#FFDC2E" d="M328.388,276.425c0-25.876,20.959-46.852,46.814-46.852s46.815,20.976,46.815,46.852
			c0,25.875-20.958,46.854-46.815,46.854C349.348,323.279,328.388,302.301,328.388,276.425"/>
		<path fill="#E6243D" d="M343.309,276.409c0-17.625,14.271-31.903,31.875-31.903c17.599,0,31.865,14.278,31.865,31.903
			c0,17.61-14.267,31.888-31.865,31.888C357.58,308.296,343.309,294.019,343.309,276.409"/>
		<path fill="#E6243D" d="M343.309,276.409c0-17.625,14.271-31.903,31.875-31.903c17.599,0,31.865,14.278,31.865,31.903
			c0,17.61-14.267,31.888-31.865,31.888C357.58,308.296,343.309,294.019,343.309,276.409"/>
		<polyline fill="#FFDC2E" points="399.105,261.559 398.129,258.733 397.178,261.559 394.125,261.565 396.603,263.31 
			395.652,266.137 398.129,264.388 400.592,266.137 399.688,263.324 402.12,261.565 399.105,261.559 		"/>
		<polyline fill="#FFDC2E" points="389.293,252.281 388.312,249.455 387.373,252.281 384.316,252.285 386.789,254.038 
			385.844,256.857 388.312,255.107 390.781,256.857 389.873,254.041 392.306,252.285 389.293,252.281 		"/>
		<polyline fill="#FFDC2E" points="376.002,248.617 375.03,245.79 374.077,248.617 371.027,248.617 373.507,250.37 372.552,253.195 
			375.03,251.451 377.489,253.195 376.585,250.377 379.019,248.617 376.002,248.617 		"/>
		<polyline fill="#FFDC2E" points="362.869,252.281 361.894,249.455 360.947,252.285 357.891,252.285 360.371,254.038 
			359.425,256.865 361.9,255.112 364.366,256.865 363.458,254.041 365.893,252.285 362.869,252.281 		"/>
		<polyline fill="#FFDC2E" points="353.07,261.559 352.087,258.733 351.144,261.559 348.091,261.565 350.562,263.31 
			349.621,266.137 352.087,264.388 354.554,266.137 353.654,263.324 356.087,261.565 353.07,261.559 		"/>
		<polyline fill="#FFDC2E" points="349.433,275.586 348.447,272.756 347.508,275.586 344.453,275.586 346.924,277.338 
			345.978,280.167 348.456,278.421 350.922,280.167 350.007,277.352 352.442,275.586 349.433,275.586 		"/>
		<polyline fill="#FFDC2E" points="353.603,288.377 352.622,285.549 351.678,288.381 348.634,288.381 351.104,290.138 
			350.152,292.958 352.627,291.21 355.091,292.958 354.188,290.143 356.622,288.381 353.603,288.377 		"/>
		<polyline fill="#FFDC2E" points="362.339,297.661 361.356,294.831 360.409,297.661 357.357,297.661 359.831,299.415 
			358.881,302.238 361.356,300.486 363.823,302.238 362.919,299.421 365.356,297.661 362.339,297.661 		"/>
		<polyline fill="#FFDC2E" points="376.002,302.44 375.03,299.614 374.077,302.44 371.027,302.44 373.507,304.194 372.552,307.024 
			375.03,305.269 377.489,307.024 376.585,304.205 379.019,302.44 376.002,302.44 		"/>
		<polyline fill="#FFDC2E" points="389.678,297.661 388.695,294.831 387.755,297.661 384.697,297.661 387.175,299.415 
			386.222,302.238 388.695,300.486 391.162,302.238 390.259,299.421 392.692,297.661 389.678,297.661 		"/>
		<polyline fill="#FFDC2E" points="398.405,288.377 397.423,285.559 396.48,288.381 393.43,288.381 395.912,290.138 
			394.955,292.958 397.43,291.21 399.891,292.958 398.993,290.143 401.425,288.381 398.405,288.377 		"/>
		<polyline fill="#FFDC2E" points="402.901,275.527 401.909,272.702 400.97,275.533 397.915,275.533 400.393,277.282 
			399.445,280.108 401.922,278.354 404.384,280.108 403.483,277.292 405.912,275.533 402.901,275.527 		"/>
		<path fill="#FFDC2E" d="M386.162,293.29c-5.538-5.816-17.042-10.969-30.688-13.025l-0.062-0.349
			c-0.139-0.829-0.234-1.65-0.284-2.469c14.137,2.025,26.954,7.382,33.238,14.183C387.679,292.23,386.941,292.78,386.162,293.29"/>
		<path fill="#FFDC2E" d="M377.725,296.386c-2.574-4.37-10.384-8.657-20.347-10.666c-0.504-0.963-0.922-1.973-1.271-3.023
			c11.438,1.975,21.512,6.97,24.411,13.127c-0.596,0.158-1.204,0.3-1.824,0.408C378.368,296.289,378.043,296.336,377.725,296.386"/>
		<path fill="#FFDC2E" d="M358.971,288.288c5.369,1.436,9.929,3.989,11.43,7.677C365.812,294.827,361.748,292.099,358.971,288.288"
			/>
		<path fill="#FFDC2E" d="M375.565,277.177c6.898-1.894,13.868-2.619,19.693-2.093c0.044,0.708,0.057,1.402,0.026,2.092
			c-4.691-0.461-10.351-0.074-16.292,1.271c1.021,0.398,2.011,0.815,2.98,1.242c4.856-0.747,9.482-0.646,12.998,0.384
			c-0.128,0.685-0.289,1.361-0.479,2.025c-2.374-0.717-5.49-0.984-8.974-0.738c2.736,1.389,5.242,2.881,7.45,4.474
			c-0.427,0.81-0.91,1.576-1.438,2.316c-8.312-6.027-21.458-10.981-36.381-13.055c0.053-0.915,0.18-1.81,0.364-2.687
			c4.682,0.655,9.262,1.595,13.598,2.776c8.581-2.986,17.506-4.517,25.337-4.559c0.197,0.664,0.375,1.36,0.504,2.053
			c-6.742-0.031-14.512,1.101-22.352,3.526C373.607,276.51,374.589,276.837,375.565,277.177"/>
		<polyline fill="#FFDC2E" points="399.105,261.559 398.129,258.733 397.178,261.559 394.125,261.565 396.603,263.31 
			395.652,266.137 398.129,264.388 400.592,266.137 399.688,263.324 402.12,261.565 399.105,261.559 		"/>
		<polyline fill="#FFDC2E" points="389.293,252.281 388.312,249.455 387.373,252.281 384.316,252.285 386.789,254.038 
			385.844,256.857 388.312,255.107 390.781,256.857 389.873,254.041 392.306,252.285 389.293,252.281 		"/>
		<polyline fill="#FFDC2E" points="376.002,248.617 375.03,245.79 374.077,248.617 371.027,248.617 373.507,250.37 372.552,253.195 
			375.03,251.451 377.489,253.195 376.585,250.377 379.019,248.617 376.002,248.617 		"/>
		<polyline fill="#FFDC2E" points="362.869,252.281 361.894,249.455 360.947,252.285 357.891,252.285 360.371,254.038 
			359.425,256.865 361.9,255.112 364.366,256.865 363.458,254.041 365.893,252.285 362.869,252.281 		"/>
		<polyline fill="#FFDC2E" points="353.07,261.559 352.087,258.733 351.144,261.559 348.091,261.565 350.562,263.31 
			349.621,266.137 352.087,264.388 354.554,266.137 353.654,263.324 356.087,261.565 353.07,261.559 		"/>
		<polyline fill="#FFDC2E" points="349.433,275.586 348.447,272.756 347.508,275.586 344.453,275.586 346.924,277.338 
			345.978,280.167 348.456,278.421 350.922,280.167 350.007,277.352 352.442,275.586 349.433,275.586 		"/>
		<polyline fill="#FFDC2E" points="353.603,288.377 352.622,285.549 351.678,288.381 348.634,288.381 351.104,290.138 
			350.152,292.958 352.627,291.21 355.091,292.958 354.188,290.143 356.622,288.381 353.603,288.377 		"/>
		<polyline fill="#FFDC2E" points="362.339,297.661 361.356,294.831 360.409,297.661 357.357,297.661 359.831,299.415 
			358.881,302.238 361.356,300.486 363.823,302.238 362.919,299.421 365.356,297.661 362.339,297.661 		"/>
		<polyline fill="#FFDC2E" points="376.002,302.44 375.03,299.614 374.077,302.44 371.027,302.44 373.507,304.194 372.552,307.024 
			375.03,305.269 377.489,307.024 376.585,304.205 379.019,302.44 376.002,302.44 		"/>
		<polyline fill="#FFDC2E" points="389.678,297.661 388.695,294.831 387.755,297.661 384.697,297.661 387.175,299.415 
			386.222,302.238 388.695,300.486 391.162,302.238 390.259,299.421 392.692,297.661 389.678,297.661 		"/>
		<polyline fill="#FFDC2E" points="398.405,288.377 397.423,285.559 396.48,288.381 393.43,288.381 395.912,290.138 
			394.955,292.958 397.43,291.21 399.891,292.958 398.993,290.143 401.425,288.381 398.405,288.377 		"/>
		<polyline fill="#FFDC2E" points="402.901,275.527 401.909,272.702 400.97,275.533 397.915,275.533 400.393,277.282 
			399.445,280.108 401.922,278.354 404.384,280.108 403.483,277.292 405.912,275.533 402.901,275.527 		"/>
		<path fill="#FFDC2E" d="M386.162,293.29c-5.538-5.816-17.042-10.969-30.688-13.025l-0.062-0.349
			c-0.139-0.829-0.234-1.65-0.284-2.469c14.137,2.025,26.954,7.382,33.238,14.183C387.679,292.23,386.941,292.78,386.162,293.29"/>
		<path fill="#FFDC2E" d="M377.725,296.386c-2.574-4.37-10.384-8.657-20.347-10.666c-0.504-0.963-0.922-1.973-1.271-3.023
			c11.438,1.975,21.512,6.97,24.411,13.127c-0.596,0.158-1.204,0.3-1.824,0.408C378.368,296.289,378.043,296.336,377.725,296.386"/>
		<path fill="#FFDC2E" d="M358.971,288.288c5.369,1.436,9.929,3.989,11.43,7.677C365.812,294.827,361.748,292.099,358.971,288.288"
			/>
		<path fill="#FFDC2E" d="M375.565,277.177c6.898-1.894,13.868-2.619,19.693-2.093c0.044,0.708,0.057,1.402,0.026,2.092
			c-4.691-0.461-10.351-0.074-16.292,1.271c1.021,0.398,2.011,0.815,2.98,1.242c4.856-0.747,9.482-0.646,12.998,0.384
			c-0.128,0.685-0.289,1.361-0.479,2.025c-2.374-0.717-5.49-0.984-8.974-0.738c2.736,1.389,5.242,2.881,7.45,4.474
			c-0.427,0.81-0.91,1.576-1.438,2.316c-8.312-6.027-21.458-10.981-36.381-13.055c0.053-0.915,0.18-1.81,0.364-2.687
			c4.682,0.655,9.262,1.595,13.598,2.776c8.581-2.986,17.506-4.517,25.337-4.559c0.197,0.664,0.375,1.36,0.504,2.053
			c-6.742-0.031-14.512,1.101-22.352,3.526C373.607,276.51,374.589,276.837,375.565,277.177"/>
		
			<text transform="matrix(-0.8885 -0.4589 0.4589 -0.8885 360.0615 309.3003)" fill="#E6243D" font-family="'TimesNewRomanPSMT'" font-size="9.3299"> </text>
		
			<text transform="matrix(-0.8519 -0.5238 0.5238 -0.8519 358.0249 308.2705)" fill="#E6243D" font-family="'TimesNewRomanPSMT'" font-size="9.3304">•</text>
		
			<text transform="matrix(-0.8105 -0.5857 0.5857 -0.8105 354.875 306.2495)" fill="#E6243D" font-family="'TimesNewRomanPSMT'" font-size="9.3297"> </text>
		
			<text transform="matrix(-0.7337 -0.6794 0.6794 -0.7337 353.0942 305.144)" fill="#E6243D" font-family="'TimesNewRomanPSMT'" font-size="9.3293">D</text>
		
			<text transform="matrix(-0.6097 -0.7926 0.7926 -0.6097 348.7051 300.9341)" fill="#E6243D" font-family="'TimesNewRomanPSMT'" font-size="9.3302">E</text>
		
			<text transform="matrix(-0.4645 -0.8856 0.8856 -0.4645 344.8335 296.1587)" fill="#E6243D" font-family="'TimesNewRomanPSMT'" font-size="9.33">N</text>
		
			<text transform="matrix(-0.2891 -0.9573 0.9573 -0.2891 341.7866 290.2544)" fill="#E6243D" font-family="'TimesNewRomanPSMT'" font-size="9.33">O</text>
		
			<text transform="matrix(-0.0815 -0.9967 0.9967 -0.0815 339.2812 283.4253)" fill="#E6243D" font-family="'TimesNewRomanPSMT'" font-size="9.3297">M</text>
		
			<text transform="matrix(0.069 -0.9976 0.9976 0.069 338.5308 274.9443)" fill="#E6243D" font-family="'TimesNewRomanPSMT'" font-size="9.3295">I</text>
		
			<text transform="matrix(0.2001 -0.9798 0.9798 0.2001 338.9263 272.0405)" fill="#E6243D" font-family="'TimesNewRomanPSMT'" font-size="9.3297">N</text>
		
			<text transform="matrix(0.3797 -0.9251 0.9251 0.3797 340.2349 265.4077)" fill="#E6243D" font-family="'TimesNewRomanPSMT'" font-size="9.3297">A</text>
		
			<text transform="matrix(0.5432 -0.8396 0.8396 0.5432 343.0903 259.3398)" fill="#E6243D" font-family="'TimesNewRomanPSMT'" font-size="9.3298">C</text>
		
			<text transform="matrix(0.6483 -0.7614 0.7614 0.6483 346.8677 254.4399)" fill="#E6243D" font-family="'TimesNewRomanPSMT'" font-size="9.33">I</text>
		
			<text transform="matrix(0.7466 -0.6653 0.6653 0.7466 348.1909 251.4834)" fill="#E6243D" font-family="'TimesNewRomanPSMT'" font-size="9.3297">Ó</text>
		
			<text transform="matrix(0.8561 -0.5168 0.5168 0.8561 353.2612 247.0303)" fill="#E6243D" font-family="'TimesNewRomanPSMT'" font-size="9.3297">N</text>
		
			<text transform="matrix(0.9136 -0.4065 0.4065 0.9136 359.2202 243.7451)" fill="#E6243D" font-family="'TimesNewRomanPSMT'" font-size="9.3293"> </text>
		
			<text transform="matrix(0.9567 -0.2909 0.2909 0.9567 361.6235 242.9531)" fill="#E6243D" font-family="'TimesNewRomanPSMT'" font-size="9.3295">D</text>
		
			<text transform="matrix(0.9924 -0.1234 0.1234 0.9924 367.7827 240.7383)" fill="#E6243D" font-family="'TimesNewRomanPSMT'" font-size="9.3301">E</text>
		
			<text transform="matrix(0.9999 -0.0158 0.0158 0.9999 373.9565 240.5942)" fill="#E6243D" font-family="'TimesNewRomanPSMT'" font-size="9.3301"> </text>
		
			<text transform="matrix(0.9937 0.112 -0.112 0.9937 375.6045 239.8115)" fill="#E6243D" font-family="'TimesNewRomanPSMT'" font-size="9.3296">O</text>
		
			<text transform="matrix(0.9584 0.2854 -0.2854 0.9584 382.5415 240.793)" fill="#E6243D" font-family="'TimesNewRomanPSMT'" font-size="9.3298">R</text>
		
			<text transform="matrix(0.9148 0.4038 -0.4038 0.9148 388.7495 242.9185)" fill="#E6243D" font-family="'TimesNewRomanPSMT'" font-size="9.3296">I</text>
		
			<text transform="matrix(0.853 0.5219 -0.5219 0.853 391.8159 244.2314)" fill="#E6243D" font-family="'TimesNewRomanPSMT'" font-size="9.3301">G</text>
		
			<text transform="matrix(0.7522 0.6589 -0.6589 0.7522 397.0996 247.3604)" fill="#E6243D" font-family="'TimesNewRomanPSMT'" font-size="9.3298">E</text>
		
			<text transform="matrix(0.6271 0.7789 -0.7789 0.6271 401.7173 251.377)" fill="#E6243D" font-family="'TimesNewRomanPSMT'" font-size="9.33">N</text>
		
			<text transform="matrix(0.5222 0.8528 -0.8528 0.5222 405.5356 256.4189)" fill="#E6243D" font-family="'TimesNewRomanPSMT'" font-size="9.3297"> </text>
		
			<text transform="matrix(0.4281 0.9037 -0.9037 0.4281 406.7319 258.2764)" fill="#E6243D" font-family="'TimesNewRomanPSMT'" font-size="9.3297">P</text>
		
			<text transform="matrix(0.2769 0.9609 -0.9609 0.2769 409.0112 262.9795)" fill="#E6243D" font-family="'TimesNewRomanPSMT'" font-size="9.3297">R</text>
		
			<text transform="matrix(0.1031 0.9947 -0.9947 0.1031 411.3042 269.5186)" fill="#E6243D" font-family="'TimesNewRomanPSMT'" font-size="9.33">O</text>
		
			<text transform="matrix(-0.0584 0.9983 -0.9983 -0.0584 411.3237 275.5757)" fill="#E6243D" font-family="'TimesNewRomanPSMT'" font-size="9.3296">T</text>
		
			<text transform="matrix(-0.2123 0.9772 -0.9772 -0.2123 411.1724 281.4814)" fill="#E6243D" font-family="'TimesNewRomanPSMT'" font-size="9.3298">E</text>
		
			<text transform="matrix(-0.38 0.925 -0.925 -0.38 410.3003 287.3882)" fill="#E6243D" font-family="'TimesNewRomanPSMT'" font-size="9.33">G</text>
		
			<text transform="matrix(-0.5056 0.8628 -0.8628 -0.5056 407.063 293.0195)" fill="#E6243D" font-family="'TimesNewRomanPSMT'" font-size="9.3296">I</text>
		
			<text transform="matrix(-0.6195 0.785 -0.785 -0.6195 405.5552 295.7305)" fill="#E6243D" font-family="'TimesNewRomanPSMT'" font-size="9.3295">D</text>
		
			<text transform="matrix(-0.7537 0.6573 -0.6573 -0.7537 402.062 301.7373)" fill="#E6243D" font-family="'TimesNewRomanPSMT'" font-size="9.3306">A</text>
		
			<text transform="matrix(-0.8204 0.5718 -0.5718 -0.8204 397.144 305.5776)" fill="#E6243D" font-family="'TimesNewRomanPSMT'" font-size="9.33"> </text>
		
			<text transform="matrix(-0.8609 0.5088 -0.5088 -0.8609 394.7036 306.3892)" fill="#E6243D" font-family="'TimesNewRomanPSMT'" font-size="9.3295">•</text>
	</g>
</g>
</svg>
