<?xml version="1.0" encoding="utf-8"?>
<!-- Generator: Adobe Illustrator 16.0.0, SVG Export Plug-In . SVG Version: 6.00 Build 0)  -->
<!DOCTYPE svg PUBLIC "-//W3C//DTD SVG 1.1//EN" "http://www.w3.org/Graphics/SVG/1.1/DTD/svg11.dtd">
<svg version="1.1" id="Capa_1" xmlns="http://www.w3.org/2000/svg" xmlns:xlink="http://www.w3.org/1999/xlink" x="0px" y="0px"
	 width="489.138px" height="489.126px" viewBox="0 0 489.138 489.126" enable-background="new 0 0 489.138 489.126"
	 xml:space="preserve">
<g>
	<g>
		<g>
			<g>
				<polygon fill="#004A99" points="365.143,453.403 337.474,439.354 330.988,469.692 305.862,451.486 294.705,480.438 
					272.738,458.531 257.188,485.379 238.916,460.303 219.362,484.388 205.238,456.763 182.154,477.492 172.521,447.995 
					146.482,464.861 141.587,434.224 113.229,446.807 113.181,415.778 83.209,423.77 88.017,393.117 57.159,396.322 66.706,366.802 
					35.725,365.136 49.77,337.469 19.435,330.982 37.637,305.858 8.688,294.698 30.593,272.734 3.747,257.184 28.822,238.913 
					4.737,219.358 32.361,205.237 11.634,182.15 41.127,172.52 24.266,146.479 54.901,141.586 42.322,113.227 73.346,113.182 
					65.358,83.208 96.009,88.019 92.808,57.159 122.323,66.708 123.993,35.725 151.657,49.771 158.147,19.436 183.27,37.639 
					194.432,8.688 216.395,30.595 231.949,3.748 250.215,28.823 269.775,4.738 283.893,32.362 306.984,11.635 316.61,41.129 
					342.656,24.266 347.544,54.902 375.909,42.322 375.95,73.348 405.929,65.357 401.114,96.009 431.976,92.807 422.424,122.323 
					453.412,123.991 439.361,151.656 469.702,158.145 451.496,183.269 480.45,194.428 458.539,216.392 485.39,231.944 
					460.31,250.213 484.4,269.771 456.772,283.889 477.503,306.977 448.004,316.606 464.871,342.646 434.231,347.539 
					446.816,375.901 415.786,375.943 423.779,405.92 393.124,401.106 396.33,431.969 366.809,422.419 				"/>
				<polygon fill="none" stroke="#004A99" stroke-width="4.0961" stroke-miterlimit="3.8637" points="365.143,453.403 
					337.474,439.354 330.988,469.692 305.862,451.486 294.705,480.438 272.738,458.531 257.188,485.379 238.916,460.303 
					219.362,484.388 205.238,456.763 182.154,477.492 172.521,447.995 146.482,464.861 141.587,434.224 113.229,446.807 
					113.181,415.778 83.209,423.77 88.017,393.117 57.159,396.322 66.706,366.802 35.725,365.136 49.77,337.469 19.435,330.982 
					37.637,305.858 8.688,294.698 30.593,272.734 3.747,257.184 28.822,238.913 4.737,219.358 32.361,205.237 11.634,182.15 
					41.127,172.52 24.266,146.479 54.901,141.586 42.322,113.227 73.346,113.182 65.358,83.208 96.009,88.019 92.808,57.159 
					122.323,66.708 123.993,35.725 151.657,49.771 158.147,19.436 183.27,37.639 194.432,8.688 216.395,30.595 231.949,3.748 
					250.215,28.823 269.775,4.738 283.893,32.362 306.984,11.635 316.61,41.129 342.656,24.266 347.544,54.902 375.909,42.322 
					375.95,73.348 405.929,65.357 401.114,96.009 431.976,92.807 422.424,122.323 453.412,123.991 439.361,151.656 469.702,158.145 
					451.496,183.269 480.45,194.428 458.539,216.392 485.39,231.944 460.31,250.213 484.4,269.771 456.772,283.889 477.503,306.977 
					448.004,316.606 464.871,342.646 434.231,347.539 446.816,375.901 415.786,375.943 423.779,405.92 393.124,401.106 
					396.33,431.969 366.809,422.419 				"/>
			</g>
		</g>
		<g>
			<g>
				<circle fill="#FFDD00" cx="246.25" cy="243.608" r="213.567"/>
				<path fill="#FFDD00" d="M246.25,243.608"/>
			</g>
			<g>
				<circle fill="none" stroke="#004A99" stroke-width="5.0616" stroke-miterlimit="3.8637" cx="246.25" cy="243.608" r="213.567"/>
				<path fill="none" stroke="#004A99" stroke-width="5.0616" stroke-miterlimit="3.8637" d="M246.25,243.608"/>
			</g>
		</g>
		<g>
			<circle fill-rule="evenodd" clip-rule="evenodd" fill="#004A99" cx="246.252" cy="243.608" r="143.714"/>
			
				<circle fill-rule="evenodd" clip-rule="evenodd" fill="none" stroke="#004A99" stroke-width="4.4291" stroke-miterlimit="3.8637" cx="246.252" cy="243.608" r="143.714"/>
		</g>
		<g>
			<g>
				<g>
					<polygon fill="#FFDD00" points="246.35,342.114 236.44,371.803 262.383,353.454 230.318,353.454 256.259,371.803 					"/>
				</g>
				<g>
					<polygon fill="#FFDD00" points="306.45,326.289 296.542,355.978 322.483,337.632 290.417,337.63 316.357,355.979 					"/>
				</g>
				<g>
					<polygon fill="#FFDD00" points="349.357,281.622 339.448,311.311 365.389,292.96 333.324,292.96 359.265,311.311 					"/>
				</g>
				<g>
					<polygon fill="#FFDD00" points="363.055,225.976 353.143,255.667 379.086,237.317 347.021,237.317 372.962,255.667 					"/>
				</g>
				<g>
					<polygon fill="#FFDD00" points="350.089,166.24 340.176,195.929 366.12,177.579 334.054,177.579 359.996,195.929 					"/>
				</g>
				<g>
					<polygon fill="#FFDD00" points="302.179,122.495 292.269,152.184 318.21,133.834 286.147,133.834 312.086,152.184 					"/>
				</g>
				<g>
					<polygon fill="#FFDD00" points="243.755,112.363 233.846,142.051 259.789,123.704 227.722,123.703 253.664,142.054 					"/>
				</g>
				<g>
					<polygon fill="#FFDD00" points="185.681,123.758 175.771,153.445 201.714,135.097 169.647,135.097 195.588,153.446 					"/>
				</g>
				<g>
					<polygon fill="#FFDD00" points="138.721,168.426 128.809,198.114 154.753,179.765 122.688,179.765 148.628,198.114 					"/>
				</g>
				<g>
					<polygon fill="#FFDD00" points="127.051,228.503 117.14,258.19 143.081,239.843 111.016,239.842 136.958,258.19 					"/>
				</g>
				<g>
					<polygon fill="#FFDD00" points="142.042,283.808 132.134,313.498 158.076,295.149 126.01,295.149 151.951,313.498 					"/>
				</g>
				<g>
					<polygon fill="#FFDD00" points="185.9,327.554 175.99,357.242 201.933,338.893 169.867,338.893 195.808,357.242 					"/>
				</g>
			</g>
		</g>
		<g>
			<g>
				<path fill-rule="evenodd" clip-rule="evenodd" fill="#004A99" d="M140.974,380.512c0.209,1.542-0.161,2.94-1.106,4.195
					c-0.937,1.243-2.171,1.974-3.705,2.189c-1.542,0.207-2.936-0.159-4.179-1.096c-1.244-0.938-1.968-2.168-2.174-3.692
					c-0.205-1.524,0.162-2.911,1.099-4.152c0.945-1.256,2.188-1.995,3.728-2.221c1.54-0.227,2.922,0.124,4.145,1.043
					C140.036,377.725,140.768,378.968,140.974,380.512z"/>
			</g>
			<g>
				<path fill-rule="evenodd" clip-rule="evenodd" fill="#004A99" d="M128.645,358.444c-1.163-1.117-2.037-1.732-2.624-1.846
					c-0.595-0.103-1.462,0.357-2.601,1.383l-13.073,11.77c-1.081,0.973-1.614,1.775-1.602,2.405
					c0.002,0.637,0.515,1.581,1.533,2.827l-0.545,0.492l-7.83-8.695l0.546-0.491c1.133,1.142,2.018,1.75,2.652,1.819
					c0.625,0.079,1.478-0.37,2.559-1.342l13.072-11.771c1.139-1.025,1.688-1.839,1.646-2.443c-0.05-0.595-0.571-1.528-1.562-2.803
					l0.532-0.478l7.83,8.694L128.645,358.444z"/>
			</g>
			<g>
				<path fill-rule="evenodd" clip-rule="evenodd" fill="#004A99" d="M119.403,348.222c-1.117-1.204-2.041-1.823-2.773-1.852
					c-0.742-0.021-1.945,0.595-3.611,1.85l-13.925,10.493l-0.184,0.817c-0.195,0.872-0.232,1.521-0.107,1.941
					c0.106,0.421,0.393,0.962,0.861,1.624l-0.586,0.441l-4.08-5.411l6.037-23.626l-10.564,7.959
					c-1.737,1.311-2.674,2.419-2.812,3.328c-0.083,0.596,0.262,1.514,1.034,2.751l-0.586,0.442l-5.59-7.416l0.586-0.442
					c1.03,1.108,1.927,1.69,2.692,1.743c0.765,0.052,1.975-0.546,3.629-1.793l16.624-12.526l0.407,0.539l-6.79,27.021l12.306-9.272
					c1.728-1.302,2.664-2.401,2.808-3.302c0.092-0.585-0.231-1.494-0.968-2.729l0.571-0.43l5.589,7.418L119.403,348.222z"/>
			</g>
			<g>
				<path fill-rule="evenodd" clip-rule="evenodd" fill="#004A99" d="M97.782,316.5c0.045-0.378-0.151-1.015-0.585-1.904
					c-1.355-2.778-3.019-4.794-4.993-6.051c-3.032-1.93-6.589-1.897-10.674,0.094c-3.645,1.776-5.833,4.247-6.566,7.412
					c-0.626,2.713-0.157,5.67,1.406,8.874c0.39,0.799,0.742,1.301,1.057,1.506c0.308,0.191,0.758,0.146,1.348-0.143l18.067-8.812
					C97.419,317.193,97.733,316.868,97.782,316.5z M102.224,323.185c-0.771-1.228-1.414-1.96-1.93-2.194
					c-0.527-0.229-1.462-0.017-2.804,0.638l-15.811,7.71c-1.295,0.633-2.036,1.23-2.22,1.793s0,1.524,0.55,2.89l-0.659,0.322
					l-4.672-9.581c-1.575-3.229-2.374-6.218-2.399-8.969c-0.055-4.958,2.376-8.637,7.293-11.034c1.77-0.863,3.631-1.319,5.583-1.371
					c1.947-0.062,3.826,0.37,5.636,1.291c1.146,0.587,2.14,1.291,2.984,2.11c1.558,1.49,2.981,3.56,4.274,6.208l4.816,9.876
					L102.224,323.185z"/>
			</g>
			<g>
				<path fill-rule="evenodd" clip-rule="evenodd" fill="#004A99" d="M89.959,295.435c-0.502-1.533-0.985-2.488-1.45-2.863
					c-0.478-0.371-1.459-0.371-2.946-0.002l-17.068,4.257c-1.411,0.352-2.26,0.81-2.544,1.37c-0.297,0.564-0.288,1.638,0.026,3.217
					l-0.712,0.177l-2.831-11.353l0.712-0.177c0.464,1.542,0.96,2.493,1.488,2.853c0.515,0.362,1.479,0.367,2.89,0.016l17.068-4.255
					c1.486-0.371,2.354-0.833,2.6-1.386c0.234-0.549,0.213-1.618-0.063-3.208l0.693-0.174l2.831,11.354L89.959,295.435z"/>
			</g>
			<g>
				<path fill-rule="evenodd" clip-rule="evenodd" fill="#004A99" d="M58.146,267.81c0.184-1.554,0.263-2.421,0.234-2.598
					c-0.058-0.368-0.216-0.704-0.471-1.001s-0.609-0.478-1.062-0.535l-0.13-0.819l8.716-1.754l0.141,0.898
					c-1.659,0.796-2.956,1.699-3.891,2.707c-1.755,1.921-2.418,4.235-1.989,6.942c0.433,2.734,1.868,4.801,4.305,6.2
					c2.436,1.388,5.548,1.78,9.336,1.179c3.484-0.552,6.125-1.9,7.921-4.049c1.782-2.159,2.452-4.637,2.009-7.435
					c-0.32-2.022-1.097-3.809-2.334-5.357c-0.701-0.894-1.697-1.836-2.989-2.831l0.609-0.84c1.23,0.692,2.361,1.614,3.391,2.768
					c1.745,1.964,2.819,4.224,3.225,6.781c0.664,4.194-0.148,7.738-2.441,10.631c-2.119,2.667-5.034,4.297-8.747,4.884
					c-3.802,0.602-7.183-0.094-10.145-2.088c-3.109-2.101-4.985-5.18-5.627-9.236C57.982,270.846,57.962,269.364,58.146,267.81z"/>
			</g>
			<g>
				<path fill-rule="evenodd" clip-rule="evenodd" fill="#004A99" d="M72.765,236.674l-11.115,4l10.639,5.083L72.765,236.674z
					 M82.015,254.252l-0.713-0.039c-0.063-1.02-0.409-1.8-1.038-2.334c-0.628-0.548-2.363-1.518-5.204-2.903l-18.947-9.249
					l0.041-0.772l22.902-8.661c1.526-0.577,2.478-1.049,2.858-1.416c0.368-0.38,0.641-1.029,0.818-1.949l0.713,0.038l-0.527,10.046
					l-0.713-0.037c-0.042-1.163-0.125-1.914-0.25-2.256c-0.136-0.341-0.494-0.528-1.072-0.559c-0.193-0.01-0.537,0.037-1.032,0.14
					c-0.495,0.104-1.019,0.255-1.571,0.459l-3.884,1.439l-0.542,10.336c2.53,1.165,4.079,1.865,4.646,2.1
					c0.556,0.224,1,0.342,1.335,0.359c0.668,0.035,1.146-0.209,1.431-0.735c0.171-0.326,0.32-0.951,0.446-1.872l0.713,0.037
					L82.015,254.252z"/>
			</g>
			<g>
				<path fill-rule="evenodd" clip-rule="evenodd" fill="#004A99" d="M60.919,202.603c0.655-1.42,0.997-2.22,1.025-2.398
					c0.059-0.368,0.012-0.734-0.14-1.097c-0.15-0.363-0.432-0.641-0.844-0.837l0.13-0.821l8.83,1.028l-0.143,0.896
					c-1.824,0.246-3.336,0.703-4.537,1.373c-2.263,1.284-3.608,3.28-4.037,5.987c-0.434,2.734,0.293,5.143,2.178,7.227
					c1.888,2.072,4.726,3.407,8.515,4.007c3.484,0.551,6.413,0.084,8.785-1.404c2.363-1.503,3.766-3.652,4.208-6.45
					c0.32-2.021,0.132-3.96-0.564-5.817c-0.392-1.065-1.047-2.271-1.969-3.616l0.839-0.61c0.957,1.038,1.747,2.265,2.37,3.679
					c1.052,2.409,1.376,4.89,0.971,7.446c-0.664,4.195-2.532,7.314-5.606,9.356c-2.84,1.883-6.116,2.53-9.828,1.942
					c-3.801-0.603-6.802-2.31-9.003-5.121c-2.307-2.958-3.14-6.466-2.497-10.522C59.825,205.44,60.264,204.025,60.919,202.603z"/>
			</g>
			<g>
				<path fill-rule="evenodd" clip-rule="evenodd" fill="#004A99" d="M88.354,197.174c0.441-1.552,0.575-2.613,0.399-3.184
					c-0.188-0.575-1.002-1.125-2.441-1.649l-16.53-6.017c-1.367-0.497-2.326-0.592-2.875-0.286
					c-0.562,0.302-1.155,1.196-1.777,2.682l-0.689-0.251l4.002-10.996l0.689,0.251c-0.478,1.539-0.599,2.604-0.362,3.197
					c0.224,0.589,1.02,1.131,2.387,1.629l16.529,6.017c1.44,0.523,2.417,0.626,2.93,0.306c0.502-0.324,1.083-1.223,1.741-2.695
					l0.672,0.244l-4.002,10.995L88.354,197.174z"/>
			</g>
			<g>
				<path fill-rule="evenodd" clip-rule="evenodd" fill="#004A99" d="M93.227,175.707c2.499-0.599,4.27-1.97,5.314-4.11
					c1.021-2.095,1.025-4.305,0.012-6.633c-1.02-2.344-3.444-4.45-7.273-6.318c-3.876-1.89-7.043-2.504-9.5-1.841
					c-2.458,0.664-4.188,2.025-5.193,4.084c-1.038,2.129-1.021,4.372,0.05,6.727c1.065,2.34,3.472,4.422,7.221,6.25
					C87.594,175.688,90.717,176.303,93.227,175.707z M74.508,169.865c-1.027-3.208-0.762-6.409,0.795-9.602
					c1.563-3.205,3.931-5.386,7.103-6.547c3.437-1.26,7.052-0.964,10.847,0.886c3.853,1.88,6.321,4.602,7.404,8.166
					c0.964,3.192,0.686,6.343-0.831,9.455c-1.625,3.333-4.102,5.547-7.43,6.646c-3.392,1.11-6.892,0.785-10.502-0.976
					C78.099,176.042,75.637,173.366,74.508,169.865z M71.977,152.195c0.129,0.293,0.223,0.675,0.278,1.146l0.787,7.152l-0.702,1.439
					l-2.711-7.788c-0.094-0.275-0.173-0.6-0.234-0.974c-0.061-0.374-0.015-0.717,0.137-1.029c0.146-0.3,0.389-0.519,0.728-0.655
					c0.333-0.153,0.672-0.144,1.019,0.024C71.614,151.675,71.847,151.903,71.977,152.195z"/>
			</g>
			<g>
				<path fill-rule="evenodd" clip-rule="evenodd" fill="#004A99" d="M106.058,156.86c0.85-1.406,1.188-2.464,1.015-3.176
					c-0.184-0.719-1.109-1.706-2.774-2.961L90.374,140.23l-0.834,0.049c-0.893,0.052-1.525,0.196-1.896,0.432
					c-0.374,0.218-0.815,0.643-1.324,1.275l-0.586-0.442l4.079-5.412l24.374-0.71l-10.563-7.96
					c-1.737-1.309-3.062-1.904-3.973-1.785c-0.595,0.084-1.382,0.668-2.361,1.751l-0.585-0.441l5.59-7.417l0.585,0.441
					c-0.783,1.296-1.094,2.318-0.934,3.068c0.161,0.75,1.069,1.748,2.724,2.996l16.623,12.526l-0.407,0.54l-27.845,0.922
					l12.306,9.273c1.728,1.301,3.043,1.898,3.947,1.789c0.587-0.072,1.372-0.633,2.356-1.682l0.57,0.43l-5.589,7.417L106.058,156.86
					z"/>
			</g>
			<g>
				<path fill-rule="evenodd" clip-rule="evenodd" fill="#004A99" d="M129.954,94.444c1.407-0.626,2.194-1.01,2.362-1.15
					c0.434-0.364,0.669-0.704,0.706-1.021c0.047-0.325,0.002-0.699-0.135-1.122l0.666-0.558l5.586,6.176l-0.695,0.583
					c-1.854-0.948-3.414-1.504-4.678-1.67c-2.253-0.26-4.335,0.412-6.248,2.017c-1.943,1.629-3.033,3.804-3.271,6.525
					c-0.237,2.703,1.064,5.744,3.902,9.127c2.342,2.791,4.905,4.354,7.689,4.688c2.785,0.336,5.257-0.403,7.417-2.216
					c0.364-0.306,0.765-0.699,1.2-1.183c0.435-0.482,0.812-0.983,1.132-1.504c0.521-0.841,0.8-1.419,0.837-1.736
					c0.028-0.326-0.098-0.657-0.379-0.993l-4.059-4.836c-0.976-1.164-1.752-1.747-2.327-1.752c-0.566-0.013-1.435,0.415-2.607,1.279
					l-0.472-0.562l7.722-6.479l0.471,0.562c-0.708,0.678-1.102,1.22-1.183,1.624c-0.149,0.663,0.189,1.487,1.017,2.474l5.002,5.96
					c0.298,0.355-0.178,1.562-1.426,3.617c-1.24,2.048-2.662,3.746-4.27,5.095c-2.958,2.482-6.178,3.713-9.657,3.691
					c-3.835-0.024-7.097-1.639-9.787-4.844c-2.367-2.82-3.501-5.984-3.405-9.494c0.101-3.866,1.772-7.159,5.018-9.882
					C127.256,95.876,128.546,95.07,129.954,94.444z"/>
			</g>
			<g>
				<path fill-rule="evenodd" clip-rule="evenodd" fill="#004A99" d="M155.061,106.942c1.167-0.881,1.84-1.585,2.02-2.114
					c0.182-0.545-0.111-1.458-0.88-2.738l-9.06-15.078c-0.722-1.203-1.375-1.876-1.958-2.022c-0.59-0.157-1.54,0.099-2.851,0.767
					l-0.378-0.63l18.007-10.819l3.04,4.796l-0.86,0.517c-1.189-1.328-2.203-2.04-3.042-2.137c-0.839-0.096-2.251,0.453-4.238,1.646
					l-4.601,2.765c-0.497,0.298-0.756,0.566-0.778,0.805c-0.018,0.221,0.107,0.552,0.373,0.993l4.544,7.564l5.214-3.133
					c1.445-0.869,2.237-1.637,2.376-2.307c0.138-0.669-0.065-1.733-0.612-3.192l0.794-0.478l4.714,7.845l-0.795,0.478
					c-1.042-1.16-1.888-1.831-2.538-2.012c-0.656-0.192-1.701,0.144-3.135,1.005l-5.214,3.133l5.042,8.392
					c0.405,0.673,0.854,0.944,1.345,0.813c0.504-0.137,1.814-0.843,3.933-2.115c2.295-1.379,3.839-2.645,4.634-3.798
					c0.788-1.164,1.037-2.973,0.748-5.428l0.943-0.567l1.902,6.651l-18.323,11.009L155.061,106.942z"/>
			</g>
			<g>
				<path fill-rule="evenodd" clip-rule="evenodd" fill="#004A99" d="M184.165,88.332c2.143,1.418,4.354,1.779,6.631,1.082
					c2.228-0.681,3.847-2.186,4.858-4.515c1.021-2.344,0.907-5.553-0.338-9.628c-1.261-4.123-2.973-6.857-5.133-8.203
					c-2.161-1.344-4.337-1.682-6.529-1.012c-2.265,0.692-3.894,2.234-4.886,4.623c-0.984,2.375-0.866,5.555,0.354,9.543
					C180.337,84.198,182.018,86.902,184.165,88.332z M175.671,70.656c1.645-2.94,4.167-4.928,7.564-5.967
					c3.41-1.043,6.62-0.799,9.632,0.729c3.265,1.654,5.514,4.5,6.75,8.538c1.253,4.099,0.945,7.76-0.922,10.983
					c-1.677,2.882-4.171,4.828-7.482,5.841c-3.545,1.084-6.855,0.783-9.927-0.902c-3.125-1.724-5.274-4.505-6.448-8.347
					C173.603,77.494,173.881,73.869,175.671,70.656z"/>
			</g>
			<g>
				<path fill-rule="evenodd" clip-rule="evenodd" fill="#004A99" d="M222.291,56.173c1.517,0.268,2.383,0.391,2.603,0.368
					c0.562-0.059,0.948-0.209,1.154-0.452c0.222-0.243,0.393-0.578,0.517-1.005l0.865-0.091l1.176,8.244l-0.902,0.096
					c-1.006-1.823-1.989-3.157-2.944-4.001c-1.722-1.476-3.824-2.083-6.307-1.822c-2.523,0.265-4.642,1.458-6.361,3.58
					c-1.708,2.108-2.331,5.358-1.869,9.75c0.38,3.623,1.632,6.352,3.754,8.187c2.12,1.835,4.583,2.605,7.388,2.311
					c0.474-0.049,1.025-0.153,1.655-0.311c0.631-0.156,1.224-0.36,1.78-0.614c0.901-0.405,1.455-0.729,1.664-0.971
					c0.207-0.255,0.286-0.6,0.24-1.035l-0.659-6.279c-0.157-1.511-0.476-2.429-0.95-2.755c-0.459-0.326-1.42-0.458-2.875-0.396
					l-0.078-0.73l10.025-1.053l0.075,0.729c-0.965,0.167-1.595,0.396-1.888,0.685c-0.495,0.466-0.676,1.339-0.54,2.62l0.812,7.739
					c0.05,0.46-1.019,1.193-3.204,2.2c-2.171,1.005-4.302,1.618-6.389,1.837c-3.841,0.403-7.199-0.375-10.07-2.339
					c-3.166-2.165-4.965-5.328-5.404-9.49c-0.385-3.661,0.444-6.918,2.486-9.774c2.246-3.148,5.475-4.944,9.687-5.387
					C219.254,55.851,220.773,55.905,222.291,56.173z"/>
			</g>
			<g>
				<path fill-rule="evenodd" clip-rule="evenodd" fill="#004A99" d="M250.244,65.817c2.14-0.751,3.271-2.316,3.398-4.694
					c0.119-2.288-0.739-3.899-2.571-4.833c-0.979-0.501-2.299-0.796-3.955-0.883c-1.12-0.059-1.812-0.012-2.078,0.143
					c-0.251,0.141-0.393,0.507-0.425,1.099l-0.509,9.737C246.949,66.432,248.997,66.243,250.244,65.817z M236.028,78.801
					c1.524-0.062,2.484-0.308,2.881-0.738c0.396-0.431,0.637-1.469,0.725-3.114l0.896-17.104c0.074-1.388-0.092-2.305-0.494-2.751
					c-0.387-0.459-1.292-0.783-2.714-0.974l0.039-0.733l10.934,0.574c2.275,0.119,4.157,0.507,5.643,1.165
					c2.822,1.244,4.155,3.331,4.003,6.263c-0.103,1.966-0.825,3.443-2.166,4.43c-1.328,0.988-3.1,1.591-5.313,1.81l7.61,10.434
					c0.471,0.644,0.948,1.12,1.435,1.429c0.486,0.31,1.119,0.522,1.9,0.641l-0.038,0.713l-6.363-0.333l-8.773-12.642l-2.204-0.019
					l-0.406,7.771c-0.078,1.466,0.092,2.409,0.509,2.83c0.43,0.41,1.387,0.718,2.872,0.924l-0.039,0.713l-10.971-0.575
					L236.028,78.801z"/>
			</g>
			<g>
				<path fill-rule="evenodd" clip-rule="evenodd" fill="#004A99" d="M281.762,73.57l-2.815-11.472l-6.168,10.049L281.762,73.57z
					 M263.315,80.932l0.111-0.705c1.024,0.044,1.834-0.219,2.432-0.788c0.611-0.568,1.754-2.192,3.431-4.872l11.179-17.877
					l0.765,0.121l6.217,23.682c0.416,1.579,0.785,2.575,1.11,2.991c0.34,0.406,0.959,0.745,1.854,1.017l-0.113,0.706l-9.935-1.574
					l0.111-0.705c1.16,0.08,1.917,0.076,2.27-0.013c0.355-0.1,0.576-0.436,0.668-1.008c0.032-0.191,0.021-0.538-0.03-1.041
					c-0.051-0.503-0.148-1.04-0.292-1.611l-1.025-4.014l-10.225-1.619c-1.421,2.395-2.279,3.862-2.572,4.402
					c-0.279,0.529-0.445,0.959-0.497,1.289c-0.106,0.662,0.089,1.162,0.583,1.5c0.307,0.204,0.909,0.417,1.814,0.639l-0.113,0.706
					L263.315,80.932z M287.59,51.21c-0.24,0.209-0.58,0.41-1.014,0.602l-6.607,2.844l-1.585-0.251l6.656-4.869
					c0.236-0.172,0.523-0.34,0.863-0.508c0.339-0.168,0.681-0.225,1.025-0.171c0.329,0.052,0.608,0.221,0.838,0.505
					c0.244,0.273,0.334,0.601,0.274,0.981C287.983,50.711,287.833,51,287.59,51.21z"/>
			</g>
			<g>
				<path fill-rule="evenodd" clip-rule="evenodd" fill="#004A99" d="M292.995,85.949c1.521,0.375,2.523,0.44,3.011,0.192
					c0.504-0.254,1.049-1.187,1.635-2.795l5.857-16.094c0.479-1.318,0.593-2.25,0.34-2.795c-0.251-0.556-1.047-1.134-2.391-1.733
					l0.251-0.689l19.795,7.206l-1.814,5.38l-1.033-0.376c0.366-1.798,0.28-3.049-0.258-3.751c-0.536-0.715-1.836-1.449-3.904-2.203
					l-5.08-1.849c-0.497-0.181-0.848-0.212-1.056-0.096c-0.195,0.121-0.383,0.43-0.562,0.925l-3.017,8.292l5.37,1.955
					c1.582,0.578,2.679,0.708,3.287,0.396s1.305-1.141,2.096-2.484l0.871,0.317l-3.13,8.601l-0.871-0.317
					c0.245-1.541,0.235-2.62-0.034-3.238c-0.263-0.63-1.181-1.231-2.755-1.803l-5.37-1.955l-2.958,8.128
					c-0.499,1.368-0.612,2.319-0.342,2.856c0.286,0.53,1.112,1.104,2.476,1.723l-0.244,0.671l-10.415-3.792L292.995,85.949z"/>
			</g>
			<g>
				<path fill-rule="evenodd" clip-rule="evenodd" fill="#004A99" d="M314.483,94.3c1.498,0.6,2.539,0.844,3.126,0.729
					c0.591-0.126,1.223-0.878,1.896-2.254l7.71-15.811c0.637-1.308,0.833-2.251,0.586-2.83c-0.242-0.591-1.07-1.273-2.481-2.048
					l0.322-0.66l10.516,5.13l-0.321,0.66c-1.48-0.637-2.527-0.868-3.143-0.695c-0.608,0.162-1.23,0.896-1.867,2.203l-7.714,15.811
					c-0.67,1.376-0.873,2.337-0.608,2.881c0.27,0.533,1.103,1.204,2.497,2.013l-0.312,0.642l-10.517-5.129L314.483,94.3z"/>
			</g>
			<g>
				<path fill-rule="evenodd" clip-rule="evenodd" fill="#004A99" d="M355.67,88.375c1.071,1.141,1.686,1.757,1.839,1.85
					c0.32,0.191,0.676,0.286,1.07,0.282c0.393-0.004,0.757-0.161,1.093-0.469l0.712,0.427l-4.262,7.803l-0.777-0.468
					c0.456-1.782,0.598-3.356,0.428-4.721c-0.343-2.578-1.69-4.574-4.039-5.987c-2.373-1.425-4.879-1.654-7.517-0.687
					c-2.63,0.975-4.931,3.105-6.905,6.394c-1.818,3.024-2.479,5.914-1.989,8.672c0.507,2.753,1.975,4.858,4.402,6.317
					c1.756,1.054,3.624,1.606,5.605,1.656c1.134,0.036,2.499-0.12,4.091-0.47l0.251,1.007c-1.321,0.498-2.755,0.771-4.299,0.818
					c-2.628,0.073-5.049-0.557-7.268-1.889c-3.642-2.188-5.834-5.089-6.575-8.704c-0.681-3.338-0.055-6.618,1.882-9.84
					c1.982-3.299,4.688-5.442,8.12-6.429c3.609-1.031,7.171-0.489,10.693,1.626C353.45,86.298,354.599,87.235,355.67,88.375z"/>
			</g>
			<g>
				<path fill-rule="evenodd" clip-rule="evenodd" fill="#004A99" d="M369.067,120.652l3.887-11.156l-10.646,5.07L369.067,120.652z
					 M349.585,116.778l0.479-0.531c0.831,0.594,1.655,0.815,2.467,0.664c0.822-0.143,2.665-0.882,5.529-2.217l19.113-8.904
					l0.575,0.517l-7.684,23.249c-0.511,1.549-0.744,2.586-0.698,3.113c0.063,0.524,0.396,1.145,1.001,1.861l-0.478,0.531
					l-7.477-6.732l0.478-0.53c0.93,0.699,1.566,1.107,1.91,1.226c0.352,0.109,0.721-0.051,1.11-0.482
					c0.127-0.144,0.308-0.439,0.541-0.89c0.229-0.45,0.442-0.952,0.631-1.51l1.325-3.924l-7.69-6.926
					c-2.497,1.234-4.017,1.997-4.558,2.29c-0.521,0.292-0.895,0.562-1.117,0.811c-0.449,0.498-0.559,1.023-0.329,1.576
					c0.146,0.338,0.538,0.847,1.174,1.524l-0.477,0.531L349.585,116.778z"/>
			</g>
			<g>
				<path fill-rule="evenodd" clip-rule="evenodd" fill="#004A99" d="M404.416,143.28c-0.159-1.211-0.679-2.551-1.56-4.019
					c-0.417-0.695-0.748-1.083-0.99-1.161c-0.227-0.075-0.576,0.03-1.051,0.315l-8.838,5.311c0.31,0.639,0.515,1.057,0.617,1.251
					c0.101,0.194,0.205,0.379,0.312,0.556c0.936,1.556,1.891,2.648,2.87,3.277c1.778,1.138,3.773,1.044,5.98-0.282
					C403.831,147.282,404.716,145.532,404.416,143.28z M377.615,143.817c0.898,1.218,1.636,1.871,2.214,1.958
					c0.591,0.082,1.585-0.299,2.987-1.141l14.681-8.821c1.179-0.709,1.848-1.359,2.005-1.949c0.163-0.578-0.07-1.505-0.7-2.778
					l0.628-0.377l5.372,8.937c1.722,2.869,2.484,5.399,2.284,7.592c-0.197,2.192-1.209,3.835-3.029,4.929
					c-2.306,1.385-4.485,1.546-6.537,0.481c-2.051-1.064-3.839-2.867-5.365-5.404c-0.217-0.364-0.495-0.836-0.827-1.417
					c-0.316-0.576-0.559-1.002-0.722-1.278l-6.157,3.7c-1.28,0.769-1.97,1.446-2.069,2.031c-0.092,0.596,0.22,1.604,0.936,3.02
					l-0.613,0.368l-5.697-9.484L377.615,143.817z"/>
			</g>
			<g>
				<path fill-rule="evenodd" clip-rule="evenodd" fill="#004A99" d="M407.827,169.096c1.696,1.508,3.612,1.739,5.752,0.696
					c2.061-1.004,3.055-2.535,2.981-4.59c-0.035-1.1-0.417-2.396-1.144-3.889c-0.49-1.007-0.868-1.589-1.13-1.747
					c-0.248-0.152-0.637-0.098-1.167,0.161l-8.766,4.275C405.692,166.514,406.851,168.212,407.827,169.096z M389.58,162.958
					c0.792,1.303,1.475,2.024,2.044,2.162c0.566,0.138,1.592-0.155,3.073-0.876l15.394-7.508c1.25-0.609,1.972-1.198,2.168-1.766
					c0.212-0.562,0.058-1.511-0.466-2.846l0.662-0.322l4.799,9.841c0.997,2.048,1.57,3.881,1.716,5.5
					c0.279,3.071-0.898,5.25-3.537,6.536c-1.771,0.864-3.411,0.949-4.923,0.254c-1.509-0.682-2.896-1.939-4.161-3.771l-5.436,11.717
					c-0.334,0.722-0.52,1.371-0.554,1.946c-0.035,0.576,0.085,1.232,0.361,1.973l-0.645,0.313l-2.792-5.728l6.803-13.802
					l-1.052-1.936l-6.994,3.411c-1.318,0.643-2.062,1.249-2.228,1.817c-0.15,0.574,0.044,1.561,0.583,2.959l-0.642,0.313
					l-4.816-9.875L389.58,162.958z"/>
			</g>
			<g>
				<path fill-rule="evenodd" clip-rule="evenodd" fill="#004A99" d="M405.624,194.838c-1.418,2.142-1.777,4.353-1.082,6.63
					c0.681,2.229,2.188,3.848,4.515,4.859c2.345,1.02,5.552,0.907,9.628-0.339c4.124-1.261,6.859-2.972,8.203-5.132
					c1.344-2.161,1.682-4.337,1.012-6.529c-0.691-2.265-2.233-3.894-4.622-4.886c-2.373-0.984-5.555-0.867-9.544,0.353
					C409.756,191.01,407.054,192.691,405.624,194.838z M423.299,186.345c2.939,1.645,4.929,4.167,5.968,7.564
					c1.042,3.409,0.798,6.62-0.731,9.632c-1.651,3.265-4.499,5.514-8.536,6.75c-4.101,1.253-7.761,0.945-10.982-0.923
					c-2.883-1.678-4.83-4.171-5.843-7.482c-1.082-3.545-0.781-6.855,0.901-9.927c1.725-3.125,4.506-5.274,8.347-6.449
					C416.461,184.275,420.086,184.554,423.299,186.345z"/>
			</g>
			<g>
				<path fill-rule="evenodd" clip-rule="evenodd" fill="#004A99" d="M433.324,215.215l2.336,22.219l-6.661,0.914l-0.099-0.941
					c2.051-0.682,3.353-1.415,3.904-2.197c0.565-0.771,0.729-2.296,0.491-4.575l-0.229-2.189l-20.127,2.116
					c-1.522,0.16-2.445,0.496-2.766,1.009c-0.312,0.511-0.438,1.573-0.386,3.186l-0.709,0.075l-1.204-11.465l0.709-0.075
					c0.303,1.651,0.688,2.659,1.153,3.024c0.465,0.365,1.549,0.458,3.252,0.279l19.663-2.066l-0.229-2.189
					c-0.229-2.177-0.697-3.629-1.408-4.356c-0.71-0.716-2.143-1.16-4.297-1.335l-0.099-0.96L433.324,215.215z"/>
			</g>
			<g>
				<path fill-rule="evenodd" clip-rule="evenodd" fill="#004A99" d="M410.587,242.907c0.077,1.459,0.284,2.412,0.622,2.855
					c0.351,0.457,1.27,0.723,2.762,0.802l17.566,0.92c1.401,0.073,2.324-0.09,2.771-0.492c0.46-0.401,0.779-1.333,0.958-2.792
					l0.734,0.038l-1.101,20.979l-5.676-0.161l0.053-1.005c1.765-0.242,2.922-0.684,3.474-1.326c0.548-0.64,0.882-2.118,1.004-4.431
					l0.281-5.362c0.03-0.578-0.048-0.944-0.231-1.095c-0.174-0.14-0.519-0.221-1.033-0.247l-8.812-0.462l-0.318,6.072
					c-0.088,1.686,0.106,2.771,0.584,3.262c0.476,0.487,1.473,0.915,2.986,1.278l-0.048,0.925l-9.14-0.478l0.049-0.927
					c1.546-0.216,2.575-0.541,3.088-0.979c0.525-0.436,0.831-1.489,0.92-3.162l0.317-6.072l-9.776-0.513
					c-0.783-0.043-1.261,0.179-1.428,0.659c-0.166,0.493-0.314,1.976-0.445,4.444c-0.14,2.674,0.046,4.661,0.559,5.964
					c0.523,1.304,1.886,2.522,4.082,3.655l-0.059,1.1l-6.576-2.143l1.117-21.346L410.587,242.907z"/>
			</g>
			<g>
				<path fill-rule="evenodd" clip-rule="evenodd" fill="#004A99" d="M429.245,293.091c-0.77,1.334-1.182,2.108-1.234,2.32
					c-0.136,0.548-0.127,0.962,0.03,1.241c0.151,0.29,0.406,0.566,0.768,0.828l-0.211,0.844l-8.15-1.714l0.22-0.881
					c2.059-0.321,3.646-0.788,4.768-1.398c1.975-1.112,3.264-2.881,3.869-5.304c0.613-2.461,0.217-4.862-1.188-7.202
					c-1.397-2.325-4.239-4.022-8.523-5.091c-3.533-0.881-6.525-0.639-8.976,0.729c-2.451,1.365-4.017,3.415-4.699,6.15
					c-0.114,0.463-0.206,1.017-0.273,1.664c-0.069,0.646-0.082,1.271-0.032,1.883c0.071,0.985,0.186,1.616,0.343,1.896
					c0.168,0.279,0.464,0.475,0.89,0.58l6.127,1.528c1.474,0.367,2.444,0.384,2.913,0.049c0.465-0.321,0.918-1.178,1.356-2.567
					l0.711,0.177l-2.438,9.781l-0.712-0.178c0.175-0.965,0.175-1.635,0.003-2.01c-0.271-0.623-1.027-1.092-2.275-1.402l-7.551-1.884
					c-0.451-0.111-0.774-1.366-0.973-3.763c-0.201-2.387-0.048-4.598,0.46-6.633c0.934-3.747,2.815-6.635,5.643-8.663
					c3.117-2.235,6.705-2.845,10.764-1.832c3.572,0.892,6.352,2.783,8.336,5.68c2.19,3.187,2.772,6.833,1.749,10.942
					C430.586,290.349,430.015,291.758,429.245,293.091z"/>
			</g>
			<g>
				<path fill-rule="evenodd" clip-rule="evenodd" fill="#004A99" d="M401.375,297.406c-0.442,1.549-0.575,2.611-0.398,3.183
					c0.188,0.575,1.001,1.125,2.44,1.648l16.53,6.016c1.367,0.499,2.325,0.594,2.875,0.286c0.562-0.301,1.155-1.195,1.777-2.681
					l0.689,0.251l-4.002,10.995l-0.689-0.251c0.478-1.538,0.6-2.603,0.362-3.197c-0.224-0.588-1.02-1.131-2.387-1.628l-16.53-6.018
					c-1.439-0.523-2.415-0.626-2.929-0.305c-0.502,0.322-1.082,1.223-1.741,2.695l-0.67-0.244l4-10.997L401.375,297.406z"/>
			</g>
			<g>
				<path fill-rule="evenodd" clip-rule="evenodd" fill="#004A99" d="M393.798,319.071c-0.343,0.17-0.769,0.679-1.28,1.528
					c-1.591,2.648-2.376,5.142-2.355,7.483c0.032,3.593,1.997,6.56,5.893,8.901c3.477,2.088,6.74,2.578,9.793,1.47
					c2.615-0.953,4.842-2.957,6.677-6.013c0.458-0.762,0.687-1.33,0.687-1.706c-0.006-0.362-0.29-0.715-0.853-1.053l-17.23-10.354
					C394.577,318.997,394.134,318.912,393.798,319.071z M396.985,311.704c-0.609,1.316-0.873,2.253-0.79,2.815
					c0.094,0.566,0.783,1.234,2.062,2.006l15.079,9.059c1.233,0.743,2.139,1.038,2.712,0.886c0.569-0.151,1.278-0.831,2.122-2.035
					l0.63,0.377l-5.489,9.139c-1.85,3.076-3.922,5.375-6.217,6.896c-4.128,2.744-8.538,2.709-13.228-0.108
					c-1.687-1.015-3.084-2.327-4.189-3.938c-1.112-1.599-1.773-3.41-1.985-5.429c-0.133-1.28-0.085-2.497,0.145-3.652
					c0.4-2.116,1.36-4.439,2.879-6.965l5.659-9.418L396.985,311.704z"/>
			</g>
			<g>
				<path fill-rule="evenodd" clip-rule="evenodd" fill="#004A99" d="M378.892,356.077l11.451,2.897l-5.979-10.16L378.892,356.077z
					 M381.052,336.332l0.57,0.43c-0.519,0.882-0.667,1.721-0.446,2.518c0.216,0.807,1.112,2.577,2.691,5.315l10.536,18.264
					l-0.464,0.617l-23.829-5.627c-1.589-0.375-2.643-0.517-3.162-0.425c-0.52,0.108-1.107,0.495-1.769,1.158l-0.569-0.43
					l6.053-8.033l0.571,0.428c-0.615,0.987-0.967,1.659-1.056,2.011c-0.078,0.359,0.115,0.715,0.576,1.063
					c0.154,0.116,0.466,0.27,0.934,0.463c0.469,0.19,0.989,0.355,1.561,0.497l4.026,0.978l6.228-8.265
					c-1.446-2.381-2.34-3.827-2.677-4.34c-0.338-0.495-0.641-0.844-0.905-1.043c-0.536-0.403-1.068-0.467-1.599-0.191
					c-0.326,0.175-0.798,0.608-1.419,1.302l-0.569-0.428L381.052,336.332z"/>
			</g>
			<g>
				<path fill-rule="evenodd" clip-rule="evenodd" fill="#004A99" d="M357.945,375.568c1.54,0.227,2.783,0.966,3.728,2.222
					c0.937,1.243,1.298,2.631,1.084,4.162c-0.227,1.542-0.961,2.78-2.205,3.718c-1.243,0.937-2.626,1.294-4.148,1.071
					s-2.752-0.957-3.689-2.2c-0.945-1.255-1.315-2.652-1.106-4.196c0.208-1.543,0.923-2.774,2.146-3.697
					C355.007,375.703,356.404,375.343,357.945,375.568z"/>
			</g>
		</g>
	</g>
	<g>
		<g>
			<defs>
				<circle id="SVGID_1_" cx="244.568" cy="243.607" r="90.569"/>
			</defs>
			<use xlink:href="#SVGID_1_"  overflow="visible" fill-rule="evenodd" clip-rule="evenodd" fill="#004A99"/>
			<clipPath id="SVGID_2_">
				<use xlink:href="#SVGID_1_"  overflow="visible"/>
			</clipPath>
			<g clip-path="url(#SVGID_2_)">
				<g>
					<g>
						<g>
							<g>
								<path fill="#004A99" d="M104.998,365.601c-26.808-36.342,23.044-91.198,111.349-122.527s181.618-27.265,208.425,9.078
									c26.807,36.343-23.044,91.199-111.351,122.526C225.118,406.007,131.805,401.943,104.998,365.601z"/>
								<path fill="#004A99" d="M264.885,308.875"/>
							</g>
							<g>
								<path fill="none" stroke="#FFDD00" stroke-width="9.444" stroke-miterlimit="3.8637" d="M104.998,365.601
									c-26.808-36.342,23.044-91.198,111.349-122.527s181.618-27.265,208.425,9.078c26.807,36.343-23.044,91.199-111.351,122.526
									C225.118,406.007,131.805,401.943,104.998,365.601z"/>
								<path fill="none" stroke="#FFDD00" stroke-width="9.444" stroke-miterlimit="3.8637" d="M264.885,308.875"/>
							</g>
						</g>
						<g>
							<g>
								<path fill="#004A99" d="M140.653,352.952c-20.829-28.24,17.906-70.861,86.517-95.204
									c68.612-24.343,141.117-21.185,161.945,7.054c20.829,28.236-17.905,70.86-86.518,95.202
									C233.986,384.347,161.482,381.188,140.653,352.952z"/>
								<path fill="#004A99" d="M264.885,308.875"/>
							</g>
							<g>
								<path fill="none" stroke="#FFDD00" stroke-width="9.5394" stroke-miterlimit="3.8637" d="M140.653,352.952
									c-20.829-28.24,17.906-70.861,86.517-95.204c68.612-24.343,141.117-21.185,161.945,7.054
									c20.829,28.236-17.905,70.86-86.518,95.202C233.986,384.347,161.482,381.188,140.653,352.952z"/>
								<path fill="none" stroke="#FFDD00" stroke-width="9.5394" stroke-miterlimit="3.8637" d="M264.885,308.875"/>
							</g>
						</g>
						<g>
							<g>
								<path fill="#004A99" d="M176.148,340.358c-14.878-20.17,12.79-50.616,61.799-68.002
									c49.009-17.388,100.797-15.134,115.676,5.037c14.877,20.17-12.792,50.615-61.799,68.003
									C242.813,362.784,191.025,360.527,176.148,340.358z"/>
								<path fill="#004A99" d="M264.885,308.875"/>
							</g>
							<g>
								<path fill="none" stroke="#FFDD00" stroke-width="9.5394" stroke-miterlimit="3.8637" d="M176.148,340.358
									c-14.878-20.17,12.79-50.616,61.799-68.002c49.009-17.388,100.797-15.134,115.676,5.037
									c14.877,20.17-12.792,50.615-61.799,68.003C242.813,362.784,191.025,360.527,176.148,340.358z"/>
								<path fill="none" stroke="#FFDD00" stroke-width="9.5394" stroke-miterlimit="3.8637" d="M264.885,308.875"/>
							</g>
						</g>
					</g>
					<g>
						<g>
							<g>
								<path fill="#004A99" d="M209.205,328.648c-9.307-12.611,7.995-31.651,38.645-42.524c30.648-10.873,63.04-9.464,72.347,3.147
									s-7.994,31.649-38.645,42.524C250.902,342.67,218.511,341.26,209.205,328.648z"/>
								<path fill="#004A99" d="M264.702,308.96"/>
							</g>
							<g>
								<path fill="none" stroke="#FFDD00" stroke-width="9.5479" stroke-miterlimit="3.8637" d="M209.205,328.648
									c-9.307-12.611,7.995-31.651,38.645-42.524c30.648-10.873,63.04-9.464,72.347,3.147s-7.994,31.649-38.645,42.524
									C250.902,342.67,218.511,341.26,209.205,328.648z"/>
								<path fill="none" stroke="#FFDD00" stroke-width="9.5479" stroke-miterlimit="3.8637" d="M264.702,308.96"/>
							</g>
						</g>
					</g>
				</g>
				<g>
					<g>
						<g>
							<path fill="#004A99" d="M233.708,319.846c-4.523-4.231,6.12-12.271,23.771-17.963c17.65-5.687,35.624-6.867,40.147-2.635
								s-6.118,12.274-23.77,17.963C256.207,322.898,238.23,324.079,233.708,319.846z"/>
							<path fill="#004A99" d="M265.667,309.547"/>
						</g>
						<g>
							<path fill="none" stroke="#FFDD00" stroke-width="6.9002" stroke-miterlimit="3.8637" d="M233.708,319.846
								c-4.523-4.231,6.12-12.271,23.771-17.963c17.65-5.687,35.624-6.867,40.147-2.635s-6.118,12.274-23.77,17.963
								C256.207,322.898,238.23,324.079,233.708,319.846z"/>
							<path fill="none" stroke="#FFDD00" stroke-width="6.9002" stroke-miterlimit="3.8637" d="M265.667,309.547"/>
						</g>
					</g>
				</g>
				<g>
					<g>
						<g>
							<g>
								<path fill="#004A99" d="M-82.659,319.146c-13.834-58.043,75.133-99.027,198.717-91.543
									c123.583,7.484,234.982,60.602,248.816,118.645c13.833,58.041-75.134,99.025-198.718,91.542
									C42.573,430.305-68.824,377.187-82.659,319.146z"/>
								<path fill="#004A99" d="M141.108,332.694"/>
							</g>
							<g>
								<path fill="none" stroke="#FFDD00" stroke-width="12.4792" stroke-miterlimit="3.8637" d="M-82.659,319.146
									c-13.834-58.043,75.133-99.027,198.717-91.543c123.583,7.484,234.982,60.602,248.816,118.645
									c13.833,58.041-75.134,99.025-198.718,91.542C42.573,430.305-68.824,377.187-82.659,319.146z"/>
								<path fill="none" stroke="#FFDD00" stroke-width="12.4792" stroke-miterlimit="3.8637" d="M141.108,332.694"/>
							</g>
						</g>
						<g>
							<g>
								<path fill="#004A99" d="M-32.757,322.166c-10.75-45.1,58.377-76.943,154.402-71.129
									c96.024,5.816,182.578,47.089,193.327,92.186c10.75,45.1-58.377,76.943-154.401,71.129
									C64.546,408.537-22.008,367.265-32.757,322.166z"/>
								<path fill="#004A99" d="M141.108,332.694"/>
							</g>
							<g>
								<path fill="none" stroke="#FFDD00" stroke-width="12.6054" stroke-miterlimit="3.8637" d="M-32.757,322.166
									c-10.75-45.1,58.377-76.943,154.402-71.129c96.024,5.816,182.578,47.089,193.327,92.186
									c10.75,45.1-58.377,76.943-154.401,71.129C64.546,408.537-22.008,367.265-32.757,322.166z"/>
								<path fill="none" stroke="#FFDD00" stroke-width="12.6054" stroke-miterlimit="3.8637" d="M141.108,332.694"/>
							</g>
						</g>
						<g>
							<g>
								<path fill="#004A99" d="M16.918,325.176c-7.678-32.216,41.698-54.961,110.288-50.808
									c68.588,4.154,130.415,33.634,138.093,65.849c7.678,32.212-41.7,54.959-110.289,50.804
									C86.421,386.868,24.596,357.387,16.918,325.176z"/>
								<path fill="#004A99" d="M141.108,332.694"/>
							</g>
							<g>
								<path fill="none" stroke="#FFDD00" stroke-width="12.6054" stroke-miterlimit="3.8637" d="M16.918,325.176
									c-7.678-32.216,41.698-54.961,110.288-50.808c68.588,4.154,130.415,33.634,138.093,65.849
									c7.678,32.212-41.7,54.959-110.289,50.804C86.421,386.868,24.596,357.387,16.918,325.176z"/>
								<path fill="none" stroke="#FFDD00" stroke-width="12.6054" stroke-miterlimit="3.8637" d="M141.108,332.694"/>
							</g>
						</g>
					</g>
					<g>
						<g>
							<g>
								<path fill="#004A99" d="M63.223,328.277c-4.803-20.146,26.076-34.369,68.972-31.77
									c42.897,2.601,81.564,21.041,86.367,41.188c4.806,20.145-26.074,34.369-68.97,31.768S68.028,348.422,63.223,328.277z"/>
								<path fill="#004A99" d="M140.894,332.984"/>
							</g>
							<g>
								<path fill="none" stroke="#FFDD00" stroke-width="12.6168" stroke-miterlimit="3.8637" d="M63.223,328.277
									c-4.803-20.146,26.076-34.369,68.972-31.77c42.897,2.601,81.564,21.041,86.367,41.188
									c4.806,20.145-26.074,34.369-68.97,31.768S68.028,348.422,63.223,328.277z"/>
								<path fill="none" stroke="#FFDD00" stroke-width="12.6168" stroke-miterlimit="3.8637" d="M140.894,332.984"/>
							</g>
						</g>
					</g>
				</g>
				<g>
					<g>
						<g>
							<path fill="#004A99" d="M97.118,330.484c-3.315-7.482,13.785-11.767,38.193-9.57c24.408,2.196,46.881,10.044,50.196,17.525
								c3.315,7.481-13.785,11.767-38.193,9.568C122.906,345.812,100.432,337.968,97.118,330.484z"/>
							<path fill="#004A99" d="M141.312,334.463"/>
						</g>
						<g>
							<path fill="none" stroke="#FFDD00" stroke-width="9.1718" stroke-miterlimit="3.8637" d="M97.118,330.484
								c-3.315-7.482,13.785-11.767,38.193-9.57c24.408,2.196,46.881,10.044,50.196,17.525c3.315,7.481-13.785,11.767-38.193,9.568
								C122.906,345.812,100.432,337.968,97.118,330.484z"/>
							<path fill="none" stroke="#FFDD00" stroke-width="9.1718" stroke-miterlimit="3.8637" d="M141.312,334.463"/>
						</g>
					</g>
				</g>
			</g>
		</g>
	</g>
</g>
</svg>
